G04*
G04 #@! TF.GenerationSoftware,Altium Limited,Altium Designer,18.1.7 (191)*
G04*
G04 Layer_Physical_Order=2*
G04 Layer_Color=16711680*
%FSLAX25Y25*%
%MOIN*%
G70*
G01*
G75*
%ADD13C,0.01181*%
%ADD16C,0.00500*%
%ADD17C,0.01000*%
%ADD18C,0.00000*%
%ADD51R,0.05906X0.05906*%
%ADD52C,0.05906*%
%ADD53R,0.05906X0.05906*%
%ADD54C,0.05000*%
D13*
X161043Y169524D02*
X160256D01*
X161043D01*
D16*
X165346Y159650D02*
Y171461D01*
X158654Y159650D02*
X165346D01*
X158654D02*
Y171461D01*
X165346D01*
D17*
X260923Y240500D02*
X261423Y240000D01*
X299374D01*
X276500Y224457D02*
X288279D01*
X297323Y233500D01*
X316500D01*
X318208Y231792D01*
X323292D01*
X328593Y202861D02*
X359139D01*
X328567Y202835D02*
X328593Y202861D01*
X329173Y201461D02*
X354696D01*
X328712Y201000D02*
X329173Y201461D01*
X329753Y200061D02*
X353439D01*
X329292Y199600D02*
X329753Y200061D01*
X269000Y223216D02*
X281575Y235792D01*
X290692D01*
X214046Y168213D02*
Y169254D01*
X198299Y185000D02*
X214046Y169254D01*
X196213Y261118D02*
X218000D01*
X284500Y185500D02*
Y195500D01*
X278516Y197000D02*
X281016Y199500D01*
X276000Y199516D02*
X278516Y197000D01*
Y169353D02*
Y197000D01*
X275984Y199500D02*
X276000Y199516D01*
X264500Y199500D02*
X275984D01*
X278516Y169353D02*
X318500Y129368D01*
X308100Y216900D02*
X324000Y201000D01*
X289400Y216900D02*
X308100D01*
X324000Y201000D02*
X328712D01*
X295000Y213500D02*
X309520D01*
X323420Y199600D01*
X289000Y216500D02*
X289400Y216900D01*
X375768Y142500D02*
X379500D01*
X311103Y207165D02*
X375768Y142500D01*
X291974Y207165D02*
X311103D01*
X341759Y190241D02*
X379500Y152500D01*
X330007Y190241D02*
X341759D01*
X317600Y202648D02*
X317600D01*
X330007Y190241D01*
X289500Y209500D02*
X310748D01*
X317600Y202648D01*
X309687Y205765D02*
X379500Y135953D01*
X303988Y205765D02*
X309687D01*
X281016Y199500D02*
X310000D01*
X343500Y117000D02*
X349000Y122500D01*
X343500Y108400D02*
Y117000D01*
X342500Y107400D02*
X343500Y108400D01*
X316100Y107400D02*
X342500D01*
X313500Y110000D02*
X316100Y107400D01*
X313500Y110000D02*
Y115500D01*
X226400Y202600D02*
X313500Y115500D01*
X303903Y108097D02*
X306000Y106000D01*
X303903Y108097D02*
Y121058D01*
X318500Y112500D02*
Y129368D01*
X196213Y259500D02*
Y261118D01*
X218000D02*
Y278200D01*
X225799Y264701D02*
Y281701D01*
Y264701D02*
X243406Y247094D01*
X112500Y276000D02*
X145500Y243000D01*
X168000D01*
X175000Y232500D02*
Y254500D01*
X141500Y288000D02*
X175000Y254500D01*
X107500Y291000D02*
X112500Y286000D01*
X107500Y291000D02*
Y354500D01*
X117500Y364500D01*
X143000D01*
X160650Y346850D01*
Y318139D02*
Y346850D01*
Y318139D02*
X201189Y277600D01*
X204991D01*
X214046Y268546D01*
X258500Y240500D02*
X260923D01*
X243000Y235000D02*
X251900Y243900D01*
X286069D01*
X286484Y243484D01*
X253594Y235594D02*
X258500Y240500D01*
X243406Y247094D02*
X244000Y246500D01*
X237406Y247094D02*
X243406D01*
X286484Y243484D02*
Y247972D01*
X255956Y278500D02*
X286484Y247972D01*
X259000Y213216D02*
X269000Y223216D01*
X264382Y212338D02*
X276500Y224457D01*
X264382Y207335D02*
Y212338D01*
X259000Y205000D02*
Y213216D01*
Y205000D02*
X261039Y202961D01*
X223083Y205361D02*
X224408D01*
X349000Y122500D02*
X379500D01*
X306000Y106000D02*
X373000D01*
X226400Y202600D02*
Y203369D01*
X224408Y205361D02*
X226400Y203369D01*
X223083Y205361D02*
X224000Y206278D01*
Y207500D01*
X218500Y197500D02*
Y218709D01*
X226500Y213000D02*
X228500D01*
X230000Y211500D01*
X218500Y197500D02*
X240000Y176000D01*
X218500Y218709D02*
X244000Y244209D01*
X223000Y201961D02*
X303903Y121058D01*
X373000Y106000D02*
X379500Y112500D01*
X244000Y244209D02*
Y246500D01*
X278516Y203000D02*
X301223D01*
X272016Y209500D02*
X278516Y203000D01*
X301223D02*
X303988Y205765D01*
X282388Y206100D02*
X290908D01*
X281154Y207335D02*
X282388Y206100D01*
X290908D02*
X291974Y207165D01*
X379500Y132500D02*
Y135953D01*
X271235Y209500D02*
X272016D01*
X372000Y170000D02*
X379500Y162500D01*
X372000Y170000D02*
Y181500D01*
X353439Y200061D02*
X372000Y181500D01*
X359139Y202861D02*
X379500Y182500D01*
X354696Y201461D02*
X379500Y176657D01*
X325165Y202835D02*
X328567D01*
X323420Y199600D02*
X329292D01*
X281323Y219823D02*
X281400Y219900D01*
X379500Y172500D02*
Y176657D01*
X308100Y219900D02*
X325165Y202835D01*
X281400Y219900D02*
X308100D01*
X365500Y206500D02*
X379500Y192500D01*
X334000Y206500D02*
X365500D01*
X326000Y210000D02*
X372000D01*
X379500Y202500D01*
X202597Y281000D02*
Y295297D01*
X208500Y301200D01*
X148500Y263500D02*
X158500D01*
X159157Y262843D01*
X175000Y232500D02*
X227500Y180000D01*
X133000Y302500D02*
Y330500D01*
Y302500D02*
X212823Y222677D01*
X217500D01*
X219000Y224177D01*
X145500Y297953D02*
Y340870D01*
X145000D02*
X145500D01*
Y297953D02*
X214500Y228953D01*
X353000Y329000D02*
Y381000D01*
X293979Y269979D02*
X353000Y329000D01*
X283665Y269979D02*
X293979D01*
X343000Y330000D02*
Y381000D01*
X292000Y279000D02*
X343000Y330000D01*
X333000Y329000D02*
Y381000D01*
X287500Y283500D02*
X333000Y329000D01*
X280000Y287500D02*
X323000Y330500D01*
Y381000D01*
X343201Y196661D02*
X347000Y192862D01*
X331161Y196661D02*
X343201D01*
X230000Y211500D02*
X242000D01*
X245500Y208000D01*
X146000Y172500D02*
X151500Y178000D01*
X146000Y154500D02*
Y172500D01*
X261039Y202961D02*
X264500Y199500D01*
X394000Y100500D02*
Y394000D01*
X393000Y99500D02*
X394000Y100500D01*
X101000Y99500D02*
X393000D01*
X100000Y100500D02*
X101000Y99500D01*
X100000Y100500D02*
Y394500D01*
X100500Y395000D01*
X393000D01*
X394000Y394000D01*
D18*
X185300Y315800D02*
X185652Y314951D01*
X186500Y314600D01*
X187348Y314951D01*
X187700Y315800D01*
X178600Y296200D02*
Y315800D01*
X185300D01*
X187700D01*
X194400D01*
Y296200D02*
Y315800D01*
X178600Y296200D02*
X194400D01*
Y314500D02*
X198700D01*
Y312500D02*
Y314500D01*
X194400Y312500D02*
X198700D01*
X194400D02*
Y314500D01*
Y309500D02*
X198700D01*
Y307500D02*
Y309500D01*
X194400Y307500D02*
X198700D01*
X194400D02*
Y309500D01*
Y304500D02*
X198700D01*
Y302500D02*
Y304500D01*
X194400Y302500D02*
X198700D01*
X194400D02*
Y304500D01*
Y299500D02*
X198700D01*
Y297500D02*
Y299500D01*
X194400Y297500D02*
X198700D01*
X194400D02*
Y299500D01*
X174300Y297500D02*
X178600D01*
X174300D02*
Y299500D01*
X178600D01*
Y297500D02*
Y299500D01*
X174300Y302500D02*
X178600D01*
X174300D02*
Y304500D01*
X178600D01*
Y302500D02*
Y304500D01*
X174300Y307500D02*
X178600D01*
X174300D02*
Y309500D01*
X178600D01*
Y307500D02*
Y309500D01*
X174300Y312500D02*
X178600D01*
X174300D02*
Y314500D01*
X178600D01*
Y312500D02*
Y314500D01*
D51*
X112500Y276000D02*
D03*
X118500Y171500D02*
D03*
X379500Y112500D02*
D03*
X381000Y315000D02*
D03*
X112000Y300870D02*
D03*
D52*
X112500Y286000D02*
D03*
X118500Y161500D02*
D03*
X379500Y132500D02*
D03*
Y202500D02*
D03*
Y192500D02*
D03*
Y182500D02*
D03*
Y172500D02*
D03*
Y162500D02*
D03*
Y152500D02*
D03*
Y142500D02*
D03*
Y122500D02*
D03*
X288500Y112500D02*
D03*
X298500D02*
D03*
X308500D02*
D03*
X318500D02*
D03*
X328500D02*
D03*
X338500D02*
D03*
X348500D02*
D03*
X381000Y325000D02*
D03*
Y335000D02*
D03*
Y345000D02*
D03*
Y355000D02*
D03*
X343000Y381000D02*
D03*
X333000D02*
D03*
X323000D02*
D03*
X112000Y310870D02*
D03*
Y320870D02*
D03*
Y330870D02*
D03*
Y340870D02*
D03*
Y350870D02*
D03*
D53*
X358500Y112500D02*
D03*
X353000Y381000D02*
D03*
D54*
X299374Y240000D02*
D03*
X323292Y231792D02*
D03*
X290692Y235792D02*
D03*
X214046Y168213D02*
D03*
X284500Y195500D02*
D03*
Y185500D02*
D03*
X295000Y213500D02*
D03*
X310000Y199500D02*
D03*
X196213Y259500D02*
D03*
X218000Y278200D02*
D03*
X225799Y281701D02*
D03*
X168000Y243000D02*
D03*
X214046Y268546D02*
D03*
X260923Y240500D02*
D03*
X253594Y235594D02*
D03*
X237406Y247094D02*
D03*
X255956Y278500D02*
D03*
X243000Y235000D02*
D03*
X286484Y243484D02*
D03*
X269000Y223216D02*
D03*
X264382Y207335D02*
D03*
X276500Y224457D02*
D03*
X226500Y213000D02*
D03*
X224000Y207500D02*
D03*
X223000Y201961D02*
D03*
X271235Y209500D02*
D03*
X281154Y207335D02*
D03*
X289500Y209500D02*
D03*
X281323Y219823D02*
D03*
X289000Y216500D02*
D03*
X334000Y206500D02*
D03*
X326000Y210000D02*
D03*
X202597Y281000D02*
D03*
X208500Y301200D02*
D03*
X240000Y176000D02*
D03*
X148500Y263500D02*
D03*
X159157Y262843D02*
D03*
X227500Y180000D02*
D03*
X141500Y288000D02*
D03*
X133000Y330500D02*
D03*
X219000Y224177D02*
D03*
X145000Y340870D02*
D03*
X214500Y228953D02*
D03*
X283665Y269979D02*
D03*
X292000Y279000D02*
D03*
X287500Y283500D02*
D03*
X280000Y287500D02*
D03*
X198299Y185000D02*
D03*
X347000Y192862D02*
D03*
X331161Y196661D02*
D03*
X245500Y208000D02*
D03*
X151500Y178000D02*
D03*
X146000Y154500D02*
D03*
X261039Y202961D02*
D03*
M02*
