M48
;Layer_Color=9474304
;FILE_FORMAT=2:5
INCH,LZ
;TYPE=PLATED
T1F00S00C0.02800
T2F00S00C0.03543
%
T01
X0146Y01545
X0331161Y0196661
X0334Y02065
X0326Y021
X0323292Y0231792
X0347Y0192862
X031Y01995
X0295Y02135
X0289Y02165
X02895Y02095
X0281154Y0207335
X0271235Y02095
X0264382Y0207335
X0261039Y0202961
X02455Y0208
X0224Y02075
X0223Y0201961
X02265Y0213
X0219Y0224177
X02145Y0228953
X0243Y0235
X0253594Y0235594
X0260923Y02405
X0269Y0223216
X02765Y0224457
X0281323Y0219823
X0290692Y0235792
X0286484Y0243484
X0299374Y024
X0283665Y0269979
X0292Y0279
X02875Y02835
X028Y02875
X0255956Y02785
X0225799Y0281701
X0218Y02782
X0214046Y0268546
X0202597Y0281
X02085Y03012
X0196213Y02595
X0159157Y0262843
X0168Y0243
X0237406Y0247094
X024Y0176
X02275Y018
X0214046Y0168213
X0198299Y0185
X02845Y01855
Y01955
X01515Y0178
X01485Y02635
X01415Y0288
X0133Y03305
X0145Y034087
T02
X02885Y01125
X02985
X03085
X03185
X03285
X03385
X03485
X03585
X03795
Y01225
Y01325
Y01425
Y01525
Y01625
Y01725
Y01825
Y01925
Y02025
X01185Y01715
Y01615
X01125Y0276
Y0286
X0112Y030087
Y031087
Y032087
Y033087
Y034087
Y035087
X0323Y0381
X0333
X0343
X0353
X0381Y0355
Y0345
Y0335
Y0325
Y0315
M30
