G04*
G04 #@! TF.GenerationSoftware,Altium Limited,Altium Designer,18.1.7 (191)*
G04*
G04 Layer_Color=8421504*
%FSLAX25Y25*%
%MOIN*%
G70*
G01*
G75*
%ADD13C,0.01181*%
%ADD16C,0.00500*%
%ADD17C,0.01000*%
%ADD18C,0.00000*%
%ADD19R,0.03543X0.02756*%
%ADD20R,0.01968X0.01378*%
%ADD21R,0.03150X0.03543*%
%ADD22R,0.05512X0.04724*%
%ADD23R,0.02756X0.03543*%
%ADD24O,0.07087X0.01181*%
%ADD25O,0.01181X0.07087*%
%ADD26R,0.03543X0.03150*%
%ADD27R,0.05512X0.04331*%
%ADD28R,0.05472X0.02284*%
%ADD29R,0.01181X0.02067*%
%ADD30R,0.01673X0.01181*%
%ADD31R,0.07800X0.02200*%
%ADD32R,0.04331X0.05512*%
D13*
X161043Y169524D02*
X160256D01*
X161043D01*
D16*
X165346Y159650D02*
Y171461D01*
X158654Y159650D02*
X165346D01*
X158654D02*
Y171461D01*
X165346D01*
D17*
X394000Y100500D02*
Y394000D01*
X393000Y99500D02*
X394000Y100500D01*
X101000Y99500D02*
X393000D01*
X100000Y100500D02*
X101000Y99500D01*
X100000Y100500D02*
Y394500D01*
X100500Y395000D01*
X393000D01*
X394000Y394000D01*
D18*
X185300Y315800D02*
X185652Y314951D01*
X186500Y314600D01*
X187348Y314951D01*
X187700Y315800D01*
X178600Y296200D02*
Y315800D01*
X185300D01*
X187700D01*
X194400D01*
Y296200D02*
Y315800D01*
X178600Y296200D02*
X194400D01*
Y314500D02*
X198700D01*
Y312500D02*
Y314500D01*
X194400Y312500D02*
X198700D01*
X194400D02*
Y314500D01*
Y309500D02*
X198700D01*
Y307500D02*
Y309500D01*
X194400Y307500D02*
X198700D01*
X194400D02*
Y309500D01*
Y304500D02*
X198700D01*
Y302500D02*
Y304500D01*
X194400Y302500D02*
X198700D01*
X194400D02*
Y304500D01*
Y299500D02*
X198700D01*
Y297500D02*
Y299500D01*
X194400Y297500D02*
X198700D01*
X194400D02*
Y299500D01*
X174300Y297500D02*
X178600D01*
X174300D02*
Y299500D01*
X178600D01*
Y297500D02*
Y299500D01*
X174300Y302500D02*
X178600D01*
X174300D02*
Y304500D01*
X178600D01*
Y302500D02*
Y304500D01*
X174300Y307500D02*
X178600D01*
X174300D02*
Y309500D01*
X178600D01*
Y307500D02*
Y309500D01*
X174300Y312500D02*
X178600D01*
X174300D02*
Y314500D01*
X178600D01*
Y312500D02*
Y314500D01*
D19*
X312500Y241839D02*
D03*
Y247744D02*
D03*
X352000Y252134D02*
D03*
Y246228D02*
D03*
X296843Y318547D02*
D03*
Y324453D02*
D03*
X281500Y319000D02*
D03*
Y324906D02*
D03*
X265500Y319000D02*
D03*
Y324906D02*
D03*
X249618Y319000D02*
D03*
Y324906D02*
D03*
X233476Y318547D02*
D03*
Y324453D02*
D03*
X268500Y203000D02*
D03*
Y197094D02*
D03*
X254000Y202961D02*
D03*
Y197055D02*
D03*
X333500Y184063D02*
D03*
Y189968D02*
D03*
X207772Y237047D02*
D03*
Y242953D02*
D03*
Y221594D02*
D03*
Y227500D02*
D03*
D20*
X332299Y247508D02*
D03*
X326000D02*
D03*
X332299Y244949D02*
D03*
X326000D02*
D03*
Y250067D02*
D03*
X332299D02*
D03*
Y242390D02*
D03*
X326000D02*
D03*
D21*
X326118Y268000D02*
D03*
X331630D02*
D03*
X234488Y209500D02*
D03*
X240000D02*
D03*
X302500Y171000D02*
D03*
X296988D02*
D03*
X298488Y205000D02*
D03*
X304000D02*
D03*
D22*
X296843Y349500D02*
D03*
Y342413D02*
D03*
X282000Y349500D02*
D03*
Y342413D02*
D03*
X265500Y349500D02*
D03*
Y342413D02*
D03*
X249618Y349543D02*
D03*
Y342457D02*
D03*
X233000Y349500D02*
D03*
Y342413D02*
D03*
D23*
X209500Y256000D02*
D03*
X203594D02*
D03*
X156406Y150000D02*
D03*
X150500D02*
D03*
X218000Y306000D02*
D03*
X212094D02*
D03*
X218000Y296200D02*
D03*
X212094D02*
D03*
X160500Y297854D02*
D03*
X154594D02*
D03*
X160406Y308500D02*
D03*
X154500D02*
D03*
X160453Y319000D02*
D03*
X154547D02*
D03*
D24*
X225799Y262843D02*
D03*
Y260874D02*
D03*
Y258906D02*
D03*
Y256937D02*
D03*
Y254969D02*
D03*
Y253000D02*
D03*
Y251031D02*
D03*
Y249063D02*
D03*
Y247094D02*
D03*
Y245126D02*
D03*
Y243157D02*
D03*
Y241189D02*
D03*
Y239220D02*
D03*
Y237252D02*
D03*
Y235283D02*
D03*
Y233315D02*
D03*
X269500D02*
D03*
Y235283D02*
D03*
Y237252D02*
D03*
Y239220D02*
D03*
Y241189D02*
D03*
Y243157D02*
D03*
Y245126D02*
D03*
Y247094D02*
D03*
Y249063D02*
D03*
Y251031D02*
D03*
Y253000D02*
D03*
Y254969D02*
D03*
Y256937D02*
D03*
Y258906D02*
D03*
Y260874D02*
D03*
Y262843D02*
D03*
D25*
X232886Y226228D02*
D03*
X234854D02*
D03*
X236823D02*
D03*
X238791D02*
D03*
X240760D02*
D03*
X242728D02*
D03*
X244697D02*
D03*
X246665D02*
D03*
X248634D02*
D03*
X250602D02*
D03*
X252571D02*
D03*
X254539D02*
D03*
X256508D02*
D03*
X258476D02*
D03*
X260445D02*
D03*
X262413D02*
D03*
Y269929D02*
D03*
X260445D02*
D03*
X258476D02*
D03*
X256508D02*
D03*
X254539D02*
D03*
X252571D02*
D03*
X250602D02*
D03*
X248634D02*
D03*
X246665D02*
D03*
X244697D02*
D03*
X242728D02*
D03*
X240760D02*
D03*
X238791D02*
D03*
X236823D02*
D03*
X234854D02*
D03*
X232886D02*
D03*
D26*
X198000Y169000D02*
D03*
Y163488D02*
D03*
X196500Y221701D02*
D03*
Y227213D02*
D03*
D27*
X183500Y168508D02*
D03*
Y162602D02*
D03*
X137500Y169953D02*
D03*
Y164047D02*
D03*
D28*
X166587Y169295D02*
D03*
Y161815D02*
D03*
X157413D02*
D03*
Y165555D02*
D03*
Y169295D02*
D03*
D29*
X298417Y194152D02*
D03*
X300386D02*
D03*
X302354D02*
D03*
X304323D02*
D03*
X306291D02*
D03*
X308260D02*
D03*
X310228D02*
D03*
X312197D02*
D03*
X314165D02*
D03*
Y181848D02*
D03*
X312197D02*
D03*
X310228D02*
D03*
X308260D02*
D03*
X306291D02*
D03*
X304323D02*
D03*
X302354D02*
D03*
X300386D02*
D03*
X298417D02*
D03*
X296449D02*
D03*
Y194152D02*
D03*
D30*
X314411Y190953D02*
D03*
Y188984D02*
D03*
Y187016D02*
D03*
Y185047D02*
D03*
X296203D02*
D03*
Y187016D02*
D03*
Y188984D02*
D03*
Y190953D02*
D03*
D31*
X196200Y313500D02*
D03*
Y308500D02*
D03*
Y303500D02*
D03*
Y298500D02*
D03*
X176800D02*
D03*
Y303500D02*
D03*
Y308500D02*
D03*
Y313500D02*
D03*
D32*
X259500Y287000D02*
D03*
X253594D02*
D03*
M02*
