<svg version="1.1" xmlns="http://www.w3.org/2000/svg" xmlns:xlink="http://www.w3.org/1999/xlink" stroke-linecap="round" stroke-linejoin="round" stroke-width="0" fill-rule="evenodd" clip-rule="evenodd" id="ZmXC1ROAiqy3_ojC7fnt_bottom" viewBox="888.58 893.58 3056.42 3166.42" width="3.05642in" height="3.16642in" class="w-100 h-100"><defs><style>.ZmXC1ROAiqy3_ojC7fnt_fr4 {color: #666666;}
.ZmXC1ROAiqy3_ojC7fnt_cu {color: #cccccc;}
.ZmXC1ROAiqy3_ojC7fnt_cf {color: #cc9933;}
.ZmXC1ROAiqy3_ojC7fnt_sm {color: #004200; opacity: 0.75;}
.ZmXC1ROAiqy3_ojC7fnt_ss {color: #ffffff;}
.ZmXC1ROAiqy3_ojC7fnt_sp {color: #999999;}
.ZmXC1ROAiqy3_ojC7fnt_out {color: #000000;}</style><rect x="-29.53" y="-29.53" width="59.06" height="59.06" id="W_K-YJxhzI_ueZJ1Adk6_pad-51"/><circle cx="0" cy="0" r="29.53" id="W_K-YJxhzI_ueZJ1Adk6_pad-52"/><rect x="-29.53" y="-29.53" width="59.06" height="59.06" id="W_K-YJxhzI_ueZJ1Adk6_pad-53"/><circle cx="0" cy="0" r="25" id="W_K-YJxhzI_ueZJ1Adk6_pad-54"/><rect x="-33.53" y="-33.53" width="67.06" height="67.06" id="do9LOS5LoNMqRaIlOlx0_pad-47"/><circle cx="0" cy="0" r="33.53" id="do9LOS5LoNMqRaIlOlx0_pad-48"/><rect x="-33.53" y="-33.53" width="67.06" height="67.06" id="do9LOS5LoNMqRaIlOlx0_pad-49"/><circle cx="0" cy="0" r="29" id="do9LOS5LoNMqRaIlOlx0_pad-50"/><circle cx="0" cy="0" r="14" id="Wj3QyGA9fKnheKfgtEEB_pad-1"/><circle cx="0" cy="0" r="17.715" id="Wj3QyGA9fKnheKfgtEEB_pad-2"/><g id="ZmXC1ROAiqy3_ojC7fnt_bottom_solderpaste"><path d="M 1610.43 1695.24 1602.56 1695.24 1610.43 1695.24" fill="none" stroke-width="11.81"/><path d="M 1653.46 1596.5 1653.46 1714.61 M 1586.54 1596.5 1653.46 1596.5 M 1586.54 1596.5 1586.54 1714.61 1653.46 1714.61" fill="none" stroke-width="5"/><path d="M 3940 1005 3940 3940 M 3930 995 3940 1005 M 1010 995 3930 995 M 1000 1005 1010 995 M 1000 1005 1000 3945 1005 3950 3930 3950 3940 3940" fill="none" stroke-width="10"/><path d="M 1853 3158 1856.52 3149.51 1865 3146 1873.48 3149.51 1877 3158 M 1786 2962 1786 3158 1853 3158 1877 3158 1944 3158 M 1944 2962 1944 3158 M 1786 2962 1944 2962 M 1944 3145 1987 3145 M 1987 3125 1987 3145 M 1944 3125 1987 3125 M 1944 3125 1944 3145 M 1944 3095 1987 3095 M 1987 3075 1987 3095 M 1944 3075 1987 3075 M 1944 3075 1944 3095 M 1944 3045 1987 3045 M 1987 3025 1987 3045 M 1944 3025 1987 3025 M 1944 3025 1944 3045 M 1944 2995 1987 2995 M 1987 2975 1987 2995 M 1944 2975 1987 2975 M 1944 2975 1944 2995 M 1743 2975 1786 2975 M 1743 2975 1743 2995 1786 2995 M 1786 2975 1786 2995 M 1743 3025 1786 3025 M 1743 3025 1743 3045 1786 3045 M 1786 3025 1786 3045 M 1743 3075 1786 3075 M 1743 3075 1743 3095 1786 3095 M 1786 3075 1786 3095 M 1743 3125 1786 3125 M 1743 3125 1743 3145 1786 3145 M 1786 3125 1786 3145" fill="none" stroke-width="0"/></g><g id="ZmXC1ROAiqy3_ojC7fnt_bottom_copper"><path d="M 1610.43 1695.24 1602.56 1695.24 1610.43 1695.24" fill="none" stroke-width="11.81"/><path d="M 1653.46 1596.5 1653.46 1714.61 M 1586.54 1596.5 1653.46 1596.5 M 1586.54 1596.5 1586.54 1714.61 1653.46 1714.61" fill="none" stroke-width="5"/><path d="M 2609.23 2405 2614.23 2400 2993.74 2400 M 2765 2244.57 2882.79 2244.57 2973.23 2335 3165 2335 3182.08 2317.92 3232.92 2317.92 M 3285.93 2028.61 3591.39 2028.61 M 3285.67 2028.35 3285.93 2028.61 M 3291.73 2014.61 3546.96 2014.61 M 3287.12 2010 3291.73 2014.61 M 3297.53 2000.61 3534.39 2000.61 M 3292.92 1996 3297.53 2000.61 M 2690 2232.16 2815.75 2357.92 2906.92 2357.92 M 2140.46 1682.13 2140.46 1692.54 M 1982.99 1850 2140.46 1692.54 M 1962.13 2611.18 2180 2611.18 M 2845 1855 2845 1955 M 2785.16 1970 2810.16 1995 M 2760 1995.16 2785.16 1970 M 2785.16 1693.53 2785.16 1970 M 2759.84 1995 2760 1995.16 M 2645 1995 2759.84 1995 M 2785.16 1693.53 3185 1293.68 M 3081 2169 3240 2010 M 2894 2169 3081 2169 M 3240 2010 3287.12 2010 M 2950 2135 3095.2 2135 3234.2 1996 M 2890 2165 2894 2169 M 3757.68 1425 3795 1425 M 3111.03 2071.65 3757.68 1425 M 2919.74 2071.65 3111.03 2071.65 M 3417.59 1902.41 3795 1525 M 3300.07 1902.41 3417.59 1902.41 M 3176 2026.48 3176 2026.48 3300.07 1902.41 M 2895 2095 3107.48 2095 3176 2026.48 M 3096.87 2057.65 3795 1359.53 M 3039.88 2057.65 3096.87 2057.65 M 2810.16 1995 3100 1995 M 3435 1170 3490 1225 M 3435 1084 3435 1170 M 3425 1074 3435 1084 M 3161 1074 3425 1074 M 3135 1100 3161 1074 M 3135 1100 3135 1155 M 2264 2026 3135 1155 M 3039.03 1080.97 3060 1060 M 3039.03 1080.97 3039.03 1210.58 M 3185 1125 3185 1293.68 M 1962.13 2595 1962.13 2611.18 M 2180 2611.18 2180 2782 M 2257.99 2647.01 2257.99 2817.01 M 2257.99 2647.01 2434.06 2470.94 M 1125 2760 1455 2430 1680 2430 M 1750 2325 1750 2545 M 1415 2880 1750 2545 M 1075 2910 1125 2860 M 1075 2910 1075 3545 1175 3645 1430 3645 1606.5 3468.5 M 1606.5 3181.39 1606.5 3468.5 M 1606.5 3181.39 2011.89 2776 2049.91 2776 2140.46 2685.46 M 2585 2405 2609.23 2405 M 2430 2350 2519 2439 2860.69 2439 2864.84 2434.84 M 2535.94 2355.94 2585 2405 M 2434.06 2470.94 2440 2465 M 2374.06 2470.94 2434.06 2470.94 M 2864.84 2434.84 2864.84 2479.72 M 2559.56 2785 2864.84 2479.72 M 2590 2132.16 2690 2232.16 M 2643.82 2123.38 2765 2244.57 M 2643.82 2073.35 2643.82 2123.38 M 2590 2050 2590 2132.16 M 2590 2050 2610.39 2029.61 M 2230.83 2053.61 2244.08 2053.61 M 3490 1225 3795 1225 M 3060 1060 3730 1060 M 2264 2026 2264 2033.69 M 2244.08 2053.61 2264 2033.69 M 2230.83 2053.61 2240 2062.78 2240 2075 M 2185 1975 2185 2187.09 M 2265 2130 2285 2130 2300 2115 M 2185 1975 2400 1760 M 2185 2187.09 2440 2442.09 M 2230 2019.61 3039.03 1210.58 M 3730 1060 3795 1125 M 2440 2442.09 2440 2465 M 2785.16 2030 3012.23 2030 M 2720.16 2095 2785.16 2030 M 3012.23 2030 3039.88 2057.65 M 2823.88 2061 2909.08 2061 M 2811.54 2073.35 2823.88 2061 M 2909.08 2061 2919.74 2071.65 M 3795 1325 3795 1359.53 M 2712.35 2095 2720.16 2095 M 3720 1700 3795 1625 M 3720 1700 3720 1815 M 3534.39 2000.61 3720 1815 M 3591.39 2028.61 3795 1825 M 3546.96 2014.61 3795 1766.57 M 3251.65 2028.35 3285.67 2028.35 M 3234.2 1996 3292.92 1996 M 2813.23 2198.23 2814 2199 M 3795 1725 3795 1766.57 M 3081 2199 3251.65 2028.35 M 2814 2199 3081 2199 M 3655 2065 3795 1925 M 3340 2065 3655 2065 M 3260 2100 3720 2100 3795 2025 M 2025.97 2810 2025.97 2952.97 2085 3012 M 1485 2635 1585 2635 1591.57 2628.43 M 1750 2325 2275 1800 M 1330 3025 1330 3305 M 1330 3025 2128.23 2226.77 2175 2226.77 2190 2241.77 M 1455 2979.53 1455 3408.7 M 1450 3408.7 1455 3408.7 M 1455 2979.53 2145 2289.53 M 3530 3290 3530 3810 M 2939.79 2699.79 3530 3290 M 2836.65 2699.79 2939.79 2699.79 M 3430 3300 3430 3810 M 2920 2790 3430 3300 M 3330 3290 3330 3810 M 2875 2835 3330 3290 M 2800 2875 3230 3305 3230 3810 M 3432.01 1966.61 3470 1928.62 M 3311.61 1966.61 3432.01 1966.61 M 2300 2115 2420 2115 2455 2080 M 1460 1725 1515 1780 M 1460 1545 1460 1725 M 2610.39 2029.61 2645 1995 M 3940 1005 3940 3940 M 3930 995 3940 1005 M 1010 995 3930 995 M 1000 1005 1010 995 M 1000 1005 1000 3945 1005 3950 3930 3950 3940 3940" fill="none" stroke-width="10"/><path d="M 1853 3158 1856.52 3149.51 1865 3146 1873.48 3149.51 1877 3158 M 1786 2962 1786 3158 1853 3158 1877 3158 1944 3158 M 1944 2962 1944 3158 M 1786 2962 1944 2962 M 1944 3145 1987 3145 M 1987 3125 1987 3145 M 1944 3125 1987 3125 M 1944 3125 1944 3145 M 1944 3095 1987 3095 M 1987 3075 1987 3095 M 1944 3075 1987 3075 M 1944 3075 1944 3095 M 1944 3045 1987 3045 M 1987 3025 1987 3045 M 1944 3025 1987 3025 M 1944 3025 1944 3045 M 1944 2995 1987 2995 M 1987 2975 1987 2995 M 1944 2975 1987 2975 M 1944 2975 1944 2995 M 1743 2975 1786 2975 M 1743 2975 1743 2995 1786 2995 M 1786 2975 1786 2995 M 1743 3025 1786 3025 M 1743 3025 1743 3045 1786 3045 M 1786 3025 1786 3045 M 1743 3075 1786 3075 M 1743 3075 1743 3095 1786 3095 M 1786 3075 1786 3095 M 1743 3125 1786 3125 M 1743 3125 1743 3145 1786 3145 M 1786 3125 1786 3145" fill="none" stroke-width="0"/><use xlink:href="#W_K-YJxhzI_ueZJ1Adk6_pad-51" x="1125" y="2760"/><use xlink:href="#W_K-YJxhzI_ueZJ1Adk6_pad-51" x="1185" y="1715"/><use xlink:href="#W_K-YJxhzI_ueZJ1Adk6_pad-51" x="3795" y="1125"/><use xlink:href="#W_K-YJxhzI_ueZJ1Adk6_pad-51" x="3810" y="3150"/><use xlink:href="#W_K-YJxhzI_ueZJ1Adk6_pad-51" x="1120" y="3008.7"/><use xlink:href="#W_K-YJxhzI_ueZJ1Adk6_pad-52" x="1125" y="2860"/><use xlink:href="#W_K-YJxhzI_ueZJ1Adk6_pad-52" x="1185" y="1615"/><use xlink:href="#W_K-YJxhzI_ueZJ1Adk6_pad-52" x="3795" y="1325"/><use xlink:href="#W_K-YJxhzI_ueZJ1Adk6_pad-52" x="3795" y="2025"/><use xlink:href="#W_K-YJxhzI_ueZJ1Adk6_pad-52" x="3795" y="1925"/><use xlink:href="#W_K-YJxhzI_ueZJ1Adk6_pad-52" x="3795" y="1825"/><use xlink:href="#W_K-YJxhzI_ueZJ1Adk6_pad-52" x="3795" y="1725"/><use xlink:href="#W_K-YJxhzI_ueZJ1Adk6_pad-52" x="3795" y="1625"/><use xlink:href="#W_K-YJxhzI_ueZJ1Adk6_pad-52" x="3795" y="1525"/><use xlink:href="#W_K-YJxhzI_ueZJ1Adk6_pad-52" x="3795" y="1425"/><use xlink:href="#W_K-YJxhzI_ueZJ1Adk6_pad-52" x="3795" y="1225"/><use xlink:href="#W_K-YJxhzI_ueZJ1Adk6_pad-52" x="2885" y="1125"/><use xlink:href="#W_K-YJxhzI_ueZJ1Adk6_pad-52" x="2985" y="1125"/><use xlink:href="#W_K-YJxhzI_ueZJ1Adk6_pad-52" x="3085" y="1125"/><use xlink:href="#W_K-YJxhzI_ueZJ1Adk6_pad-52" x="3185" y="1125"/><use xlink:href="#W_K-YJxhzI_ueZJ1Adk6_pad-52" x="3285" y="1125"/><use xlink:href="#W_K-YJxhzI_ueZJ1Adk6_pad-52" x="3385" y="1125"/><use xlink:href="#W_K-YJxhzI_ueZJ1Adk6_pad-52" x="3485" y="1125"/><use xlink:href="#W_K-YJxhzI_ueZJ1Adk6_pad-52" x="3810" y="3250"/><use xlink:href="#W_K-YJxhzI_ueZJ1Adk6_pad-52" x="3810" y="3350"/><use xlink:href="#W_K-YJxhzI_ueZJ1Adk6_pad-52" x="3810" y="3450"/><use xlink:href="#W_K-YJxhzI_ueZJ1Adk6_pad-52" x="3810" y="3550"/><use xlink:href="#W_K-YJxhzI_ueZJ1Adk6_pad-52" x="3430" y="3810"/><use xlink:href="#W_K-YJxhzI_ueZJ1Adk6_pad-52" x="3330" y="3810"/><use xlink:href="#W_K-YJxhzI_ueZJ1Adk6_pad-52" x="3230" y="3810"/><use xlink:href="#W_K-YJxhzI_ueZJ1Adk6_pad-52" x="1120" y="3108.7"/><use xlink:href="#W_K-YJxhzI_ueZJ1Adk6_pad-52" x="1120" y="3208.7"/><use xlink:href="#W_K-YJxhzI_ueZJ1Adk6_pad-52" x="1120" y="3308.7"/><use xlink:href="#W_K-YJxhzI_ueZJ1Adk6_pad-52" x="1120" y="3408.7"/><use xlink:href="#W_K-YJxhzI_ueZJ1Adk6_pad-52" x="1120" y="3508.7"/><use xlink:href="#W_K-YJxhzI_ueZJ1Adk6_pad-53" x="3585" y="1125"/><use xlink:href="#W_K-YJxhzI_ueZJ1Adk6_pad-53" x="3530" y="3810"/><use xlink:href="#W_K-YJxhzI_ueZJ1Adk6_pad-54" x="2993.74" y="2400"/><use xlink:href="#W_K-YJxhzI_ueZJ1Adk6_pad-54" x="3232.92" y="2317.92"/><use xlink:href="#W_K-YJxhzI_ueZJ1Adk6_pad-54" x="2906.92" y="2357.92"/><use xlink:href="#W_K-YJxhzI_ueZJ1Adk6_pad-54" x="2140.46" y="1682.13"/><use xlink:href="#W_K-YJxhzI_ueZJ1Adk6_pad-54" x="2845" y="1955"/><use xlink:href="#W_K-YJxhzI_ueZJ1Adk6_pad-54" x="2845" y="1855"/><use xlink:href="#W_K-YJxhzI_ueZJ1Adk6_pad-54" x="2950" y="2135"/><use xlink:href="#W_K-YJxhzI_ueZJ1Adk6_pad-54" x="3100" y="1995"/><use xlink:href="#W_K-YJxhzI_ueZJ1Adk6_pad-54" x="1962.13" y="2595"/><use xlink:href="#W_K-YJxhzI_ueZJ1Adk6_pad-54" x="2180" y="2782"/><use xlink:href="#W_K-YJxhzI_ueZJ1Adk6_pad-54" x="2257.99" y="2817.01"/><use xlink:href="#W_K-YJxhzI_ueZJ1Adk6_pad-54" x="1680" y="2430"/><use xlink:href="#W_K-YJxhzI_ueZJ1Adk6_pad-54" x="2140.46" y="2685.46"/><use xlink:href="#W_K-YJxhzI_ueZJ1Adk6_pad-54" x="2609.23" y="2405"/><use xlink:href="#W_K-YJxhzI_ueZJ1Adk6_pad-54" x="2535.94" y="2355.94"/><use xlink:href="#W_K-YJxhzI_ueZJ1Adk6_pad-54" x="2374.06" y="2470.94"/><use xlink:href="#W_K-YJxhzI_ueZJ1Adk6_pad-54" x="2559.56" y="2785"/><use xlink:href="#W_K-YJxhzI_ueZJ1Adk6_pad-54" x="2430" y="2350"/><use xlink:href="#W_K-YJxhzI_ueZJ1Adk6_pad-54" x="2864.84" y="2434.84"/><use xlink:href="#W_K-YJxhzI_ueZJ1Adk6_pad-54" x="2690" y="2232.16"/><use xlink:href="#W_K-YJxhzI_ueZJ1Adk6_pad-54" x="2643.82" y="2073.35"/><use xlink:href="#W_K-YJxhzI_ueZJ1Adk6_pad-54" x="2765" y="2244.57"/><use xlink:href="#W_K-YJxhzI_ueZJ1Adk6_pad-54" x="2265" y="2130"/><use xlink:href="#W_K-YJxhzI_ueZJ1Adk6_pad-54" x="2240" y="2075"/><use xlink:href="#W_K-YJxhzI_ueZJ1Adk6_pad-54" x="2230" y="2019.61"/><use xlink:href="#W_K-YJxhzI_ueZJ1Adk6_pad-54" x="2712.35" y="2095"/><use xlink:href="#W_K-YJxhzI_ueZJ1Adk6_pad-54" x="2811.54" y="2073.35"/><use xlink:href="#W_K-YJxhzI_ueZJ1Adk6_pad-54" x="2895" y="2095"/><use xlink:href="#W_K-YJxhzI_ueZJ1Adk6_pad-54" x="2813.23" y="2198.23"/><use xlink:href="#W_K-YJxhzI_ueZJ1Adk6_pad-54" x="2890" y="2165"/><use xlink:href="#W_K-YJxhzI_ueZJ1Adk6_pad-54" x="3340" y="2065"/><use xlink:href="#W_K-YJxhzI_ueZJ1Adk6_pad-54" x="3260" y="2100"/><use xlink:href="#W_K-YJxhzI_ueZJ1Adk6_pad-54" x="2025.97" y="2810"/><use xlink:href="#W_K-YJxhzI_ueZJ1Adk6_pad-54" x="2085" y="3012"/><use xlink:href="#W_K-YJxhzI_ueZJ1Adk6_pad-54" x="2400" y="1760"/><use xlink:href="#W_K-YJxhzI_ueZJ1Adk6_pad-54" x="1485" y="2635"/><use xlink:href="#W_K-YJxhzI_ueZJ1Adk6_pad-54" x="1591.57" y="2628.43"/><use xlink:href="#W_K-YJxhzI_ueZJ1Adk6_pad-54" x="2275" y="1800"/><use xlink:href="#W_K-YJxhzI_ueZJ1Adk6_pad-54" x="1415" y="2880"/><use xlink:href="#W_K-YJxhzI_ueZJ1Adk6_pad-54" x="1330" y="3305"/><use xlink:href="#W_K-YJxhzI_ueZJ1Adk6_pad-54" x="2190" y="2241.77"/><use xlink:href="#W_K-YJxhzI_ueZJ1Adk6_pad-54" x="1450" y="3408.7"/><use xlink:href="#W_K-YJxhzI_ueZJ1Adk6_pad-54" x="2145" y="2289.53"/><use xlink:href="#W_K-YJxhzI_ueZJ1Adk6_pad-54" x="2836.65" y="2699.79"/><use xlink:href="#W_K-YJxhzI_ueZJ1Adk6_pad-54" x="2920" y="2790"/><use xlink:href="#W_K-YJxhzI_ueZJ1Adk6_pad-54" x="2875" y="2835"/><use xlink:href="#W_K-YJxhzI_ueZJ1Adk6_pad-54" x="2800" y="2875"/><use xlink:href="#W_K-YJxhzI_ueZJ1Adk6_pad-54" x="1982.99" y="1850"/><use xlink:href="#W_K-YJxhzI_ueZJ1Adk6_pad-54" x="3470" y="1928.62"/><use xlink:href="#W_K-YJxhzI_ueZJ1Adk6_pad-54" x="3311.61" y="1966.61"/><use xlink:href="#W_K-YJxhzI_ueZJ1Adk6_pad-54" x="2455" y="2080"/><use xlink:href="#W_K-YJxhzI_ueZJ1Adk6_pad-54" x="1515" y="1780"/><use xlink:href="#W_K-YJxhzI_ueZJ1Adk6_pad-54" x="1460" y="1545"/><use xlink:href="#W_K-YJxhzI_ueZJ1Adk6_pad-54" x="2610.39" y="2029.61"/></g><g id="ZmXC1ROAiqy3_ojC7fnt_bottom_soldermask"><path d="M 1610.43 1695.24 1602.56 1695.24 1610.43 1695.24" fill="none" stroke-width="11.81"/><path d="M 1653.46 1596.5 1653.46 1714.61 M 1586.54 1596.5 1653.46 1596.5 M 1586.54 1596.5 1586.54 1714.61 1653.46 1714.61" fill="none" stroke-width="5"/><path d="M 3940 1005 3940 3940 M 3930 995 3940 1005 M 1010 995 3930 995 M 1000 1005 1010 995 M 1000 1005 1000 3945 1005 3950 3930 3950 3940 3940" fill="none" stroke-width="10"/><path d="M 1853 3158 1856.52 3149.51 1865 3146 1873.48 3149.51 1877 3158 M 1786 2962 1786 3158 1853 3158 1877 3158 1944 3158 M 1944 2962 1944 3158 M 1786 2962 1944 2962 M 1944 3145 1987 3145 M 1987 3125 1987 3145 M 1944 3125 1987 3125 M 1944 3125 1944 3145 M 1944 3095 1987 3095 M 1987 3075 1987 3095 M 1944 3075 1987 3075 M 1944 3075 1944 3095 M 1944 3045 1987 3045 M 1987 3025 1987 3045 M 1944 3025 1987 3025 M 1944 3025 1944 3045 M 1944 2995 1987 2995 M 1987 2975 1987 2995 M 1944 2975 1987 2975 M 1944 2975 1944 2995 M 1743 2975 1786 2975 M 1743 2975 1743 2995 1786 2995 M 1786 2975 1786 2995 M 1743 3025 1786 3025 M 1743 3025 1743 3045 1786 3045 M 1786 3025 1786 3045 M 1743 3075 1786 3075 M 1743 3075 1743 3095 1786 3095 M 1786 3075 1786 3095 M 1743 3125 1786 3125 M 1743 3125 1743 3145 1786 3145 M 1786 3125 1786 3145" fill="none" stroke-width="0"/><use xlink:href="#do9LOS5LoNMqRaIlOlx0_pad-47" x="1125" y="2760"/><use xlink:href="#do9LOS5LoNMqRaIlOlx0_pad-47" x="1185" y="1715"/><use xlink:href="#do9LOS5LoNMqRaIlOlx0_pad-47" x="3795" y="1125"/><use xlink:href="#do9LOS5LoNMqRaIlOlx0_pad-47" x="3810" y="3150"/><use xlink:href="#do9LOS5LoNMqRaIlOlx0_pad-47" x="1120" y="3008.7"/><use xlink:href="#do9LOS5LoNMqRaIlOlx0_pad-48" x="1125" y="2860"/><use xlink:href="#do9LOS5LoNMqRaIlOlx0_pad-48" x="1185" y="1615"/><use xlink:href="#do9LOS5LoNMqRaIlOlx0_pad-48" x="3795" y="1325"/><use xlink:href="#do9LOS5LoNMqRaIlOlx0_pad-48" x="3795" y="2025"/><use xlink:href="#do9LOS5LoNMqRaIlOlx0_pad-48" x="3795" y="1925"/><use xlink:href="#do9LOS5LoNMqRaIlOlx0_pad-48" x="3795" y="1825"/><use xlink:href="#do9LOS5LoNMqRaIlOlx0_pad-48" x="3795" y="1725"/><use xlink:href="#do9LOS5LoNMqRaIlOlx0_pad-48" x="3795" y="1625"/><use xlink:href="#do9LOS5LoNMqRaIlOlx0_pad-48" x="3795" y="1525"/><use xlink:href="#do9LOS5LoNMqRaIlOlx0_pad-48" x="3795" y="1425"/><use xlink:href="#do9LOS5LoNMqRaIlOlx0_pad-48" x="3795" y="1225"/><use xlink:href="#do9LOS5LoNMqRaIlOlx0_pad-48" x="2885" y="1125"/><use xlink:href="#do9LOS5LoNMqRaIlOlx0_pad-48" x="2985" y="1125"/><use xlink:href="#do9LOS5LoNMqRaIlOlx0_pad-48" x="3085" y="1125"/><use xlink:href="#do9LOS5LoNMqRaIlOlx0_pad-48" x="3185" y="1125"/><use xlink:href="#do9LOS5LoNMqRaIlOlx0_pad-48" x="3285" y="1125"/><use xlink:href="#do9LOS5LoNMqRaIlOlx0_pad-48" x="3385" y="1125"/><use xlink:href="#do9LOS5LoNMqRaIlOlx0_pad-48" x="3485" y="1125"/><use xlink:href="#do9LOS5LoNMqRaIlOlx0_pad-48" x="3810" y="3250"/><use xlink:href="#do9LOS5LoNMqRaIlOlx0_pad-48" x="3810" y="3350"/><use xlink:href="#do9LOS5LoNMqRaIlOlx0_pad-48" x="3810" y="3450"/><use xlink:href="#do9LOS5LoNMqRaIlOlx0_pad-48" x="3810" y="3550"/><use xlink:href="#do9LOS5LoNMqRaIlOlx0_pad-48" x="3430" y="3810"/><use xlink:href="#do9LOS5LoNMqRaIlOlx0_pad-48" x="3330" y="3810"/><use xlink:href="#do9LOS5LoNMqRaIlOlx0_pad-48" x="3230" y="3810"/><use xlink:href="#do9LOS5LoNMqRaIlOlx0_pad-48" x="1120" y="3108.7"/><use xlink:href="#do9LOS5LoNMqRaIlOlx0_pad-48" x="1120" y="3208.7"/><use xlink:href="#do9LOS5LoNMqRaIlOlx0_pad-48" x="1120" y="3308.7"/><use xlink:href="#do9LOS5LoNMqRaIlOlx0_pad-48" x="1120" y="3408.7"/><use xlink:href="#do9LOS5LoNMqRaIlOlx0_pad-48" x="1120" y="3508.7"/><use xlink:href="#do9LOS5LoNMqRaIlOlx0_pad-49" x="3585" y="1125"/><use xlink:href="#do9LOS5LoNMqRaIlOlx0_pad-49" x="3530" y="3810"/><use xlink:href="#do9LOS5LoNMqRaIlOlx0_pad-50" x="2993.74" y="2400"/><use xlink:href="#do9LOS5LoNMqRaIlOlx0_pad-50" x="3232.92" y="2317.92"/><use xlink:href="#do9LOS5LoNMqRaIlOlx0_pad-50" x="2906.92" y="2357.92"/><use xlink:href="#do9LOS5LoNMqRaIlOlx0_pad-50" x="2140.46" y="1682.13"/><use xlink:href="#do9LOS5LoNMqRaIlOlx0_pad-50" x="2845" y="1955"/><use xlink:href="#do9LOS5LoNMqRaIlOlx0_pad-50" x="2845" y="1855"/><use xlink:href="#do9LOS5LoNMqRaIlOlx0_pad-50" x="2950" y="2135"/><use xlink:href="#do9LOS5LoNMqRaIlOlx0_pad-50" x="3100" y="1995"/><use xlink:href="#do9LOS5LoNMqRaIlOlx0_pad-50" x="1962.13" y="2595"/><use xlink:href="#do9LOS5LoNMqRaIlOlx0_pad-50" x="2180" y="2782"/><use xlink:href="#do9LOS5LoNMqRaIlOlx0_pad-50" x="2257.99" y="2817.01"/><use xlink:href="#do9LOS5LoNMqRaIlOlx0_pad-50" x="1680" y="2430"/><use xlink:href="#do9LOS5LoNMqRaIlOlx0_pad-50" x="2140.46" y="2685.46"/><use xlink:href="#do9LOS5LoNMqRaIlOlx0_pad-50" x="2609.23" y="2405"/><use xlink:href="#do9LOS5LoNMqRaIlOlx0_pad-50" x="2535.94" y="2355.94"/><use xlink:href="#do9LOS5LoNMqRaIlOlx0_pad-50" x="2374.06" y="2470.94"/><use xlink:href="#do9LOS5LoNMqRaIlOlx0_pad-50" x="2559.56" y="2785"/><use xlink:href="#do9LOS5LoNMqRaIlOlx0_pad-50" x="2430" y="2350"/><use xlink:href="#do9LOS5LoNMqRaIlOlx0_pad-50" x="2864.84" y="2434.84"/><use xlink:href="#do9LOS5LoNMqRaIlOlx0_pad-50" x="2690" y="2232.16"/><use xlink:href="#do9LOS5LoNMqRaIlOlx0_pad-50" x="2643.82" y="2073.35"/><use xlink:href="#do9LOS5LoNMqRaIlOlx0_pad-50" x="2765" y="2244.57"/><use xlink:href="#do9LOS5LoNMqRaIlOlx0_pad-50" x="2265" y="2130"/><use xlink:href="#do9LOS5LoNMqRaIlOlx0_pad-50" x="2240" y="2075"/><use xlink:href="#do9LOS5LoNMqRaIlOlx0_pad-50" x="2230" y="2019.61"/><use xlink:href="#do9LOS5LoNMqRaIlOlx0_pad-50" x="2712.35" y="2095"/><use xlink:href="#do9LOS5LoNMqRaIlOlx0_pad-50" x="2811.54" y="2073.35"/><use xlink:href="#do9LOS5LoNMqRaIlOlx0_pad-50" x="2895" y="2095"/><use xlink:href="#do9LOS5LoNMqRaIlOlx0_pad-50" x="2813.23" y="2198.23"/><use xlink:href="#do9LOS5LoNMqRaIlOlx0_pad-50" x="2890" y="2165"/><use xlink:href="#do9LOS5LoNMqRaIlOlx0_pad-50" x="3340" y="2065"/><use xlink:href="#do9LOS5LoNMqRaIlOlx0_pad-50" x="3260" y="2100"/><use xlink:href="#do9LOS5LoNMqRaIlOlx0_pad-50" x="2025.97" y="2810"/><use xlink:href="#do9LOS5LoNMqRaIlOlx0_pad-50" x="2085" y="3012"/><use xlink:href="#do9LOS5LoNMqRaIlOlx0_pad-50" x="2400" y="1760"/><use xlink:href="#do9LOS5LoNMqRaIlOlx0_pad-50" x="1485" y="2635"/><use xlink:href="#do9LOS5LoNMqRaIlOlx0_pad-50" x="1591.57" y="2628.43"/><use xlink:href="#do9LOS5LoNMqRaIlOlx0_pad-50" x="2275" y="1800"/><use xlink:href="#do9LOS5LoNMqRaIlOlx0_pad-50" x="1415" y="2880"/><use xlink:href="#do9LOS5LoNMqRaIlOlx0_pad-50" x="1330" y="3305"/><use xlink:href="#do9LOS5LoNMqRaIlOlx0_pad-50" x="2190" y="2241.77"/><use xlink:href="#do9LOS5LoNMqRaIlOlx0_pad-50" x="1450" y="3408.7"/><use xlink:href="#do9LOS5LoNMqRaIlOlx0_pad-50" x="2145" y="2289.53"/><use xlink:href="#do9LOS5LoNMqRaIlOlx0_pad-50" x="2836.65" y="2699.79"/><use xlink:href="#do9LOS5LoNMqRaIlOlx0_pad-50" x="2920" y="2790"/><use xlink:href="#do9LOS5LoNMqRaIlOlx0_pad-50" x="2875" y="2835"/><use xlink:href="#do9LOS5LoNMqRaIlOlx0_pad-50" x="2800" y="2875"/><use xlink:href="#do9LOS5LoNMqRaIlOlx0_pad-50" x="1982.99" y="1850"/><use xlink:href="#do9LOS5LoNMqRaIlOlx0_pad-50" x="3470" y="1928.62"/><use xlink:href="#do9LOS5LoNMqRaIlOlx0_pad-50" x="3311.61" y="1966.61"/><use xlink:href="#do9LOS5LoNMqRaIlOlx0_pad-50" x="2455" y="2080"/><use xlink:href="#do9LOS5LoNMqRaIlOlx0_pad-50" x="1515" y="1780"/><use xlink:href="#do9LOS5LoNMqRaIlOlx0_pad-50" x="1460" y="1545"/><use xlink:href="#do9LOS5LoNMqRaIlOlx0_pad-50" x="2610.39" y="2029.61"/></g><g id="ZmXC1ROAiqy3_ojC7fnt_bottom_silkscreen"><path d="M 1610.43 1695.24 1602.56 1695.24 1610.43 1695.24" fill="none" stroke-width="11.81"/><path d="M 1653.46 1596.5 1653.46 1714.61 M 1586.54 1596.5 1653.46 1596.5 M 1586.54 1596.5 1586.54 1714.61 1653.46 1714.61" fill="none" stroke-width="5"/><path d="M 3940 1005 3940 3940 M 3930 995 3940 1005 M 1010 995 3930 995 M 1000 1005 1010 995 M 1000 1005 1000 3945 1005 3950 3930 3950 3940 3940" fill="none" stroke-width="10"/><path d="M 1853 3158 1856.52 3149.51 1865 3146 1873.48 3149.51 1877 3158 M 1786 2962 1786 3158 1853 3158 1877 3158 1944 3158 M 1944 2962 1944 3158 M 1786 2962 1944 2962 M 1944 3145 1987 3145 M 1987 3125 1987 3145 M 1944 3125 1987 3125 M 1944 3125 1944 3145 M 1944 3095 1987 3095 M 1987 3075 1987 3095 M 1944 3075 1987 3075 M 1944 3075 1944 3095 M 1944 3045 1987 3045 M 1987 3025 1987 3045 M 1944 3025 1987 3025 M 1944 3025 1944 3045 M 1944 2995 1987 2995 M 1987 2975 1987 2995 M 1944 2975 1987 2975 M 1944 2975 1944 2995 M 1743 2975 1786 2975 M 1743 2975 1743 2995 1786 2995 M 1786 2975 1786 2995 M 1743 3025 1786 3025 M 1743 3025 1743 3045 1786 3045 M 1786 3025 1786 3045 M 1743 3075 1786 3075 M 1743 3075 1743 3095 1786 3095 M 1786 3075 1786 3095 M 1743 3125 1786 3125 M 1743 3125 1743 3145 1786 3145 M 1786 3125 1786 3145" fill="none" stroke-width="0"/></g><g id="ZmXC1ROAiqy3_ojC7fnt_bottom_drill1"><use xlink:href="#Wj3QyGA9fKnheKfgtEEB_pad-1" x="1460" y="1545"/><use xlink:href="#Wj3QyGA9fKnheKfgtEEB_pad-1" x="3311.61" y="1966.61"/><use xlink:href="#Wj3QyGA9fKnheKfgtEEB_pad-1" x="3340" y="2065"/><use xlink:href="#Wj3QyGA9fKnheKfgtEEB_pad-1" x="3260" y="2100"/><use xlink:href="#Wj3QyGA9fKnheKfgtEEB_pad-1" x="3232.92" y="2317.92"/><use xlink:href="#Wj3QyGA9fKnheKfgtEEB_pad-1" x="3470" y="1928.62"/><use xlink:href="#Wj3QyGA9fKnheKfgtEEB_pad-1" x="3100" y="1995"/><use xlink:href="#Wj3QyGA9fKnheKfgtEEB_pad-1" x="2950" y="2135"/><use xlink:href="#Wj3QyGA9fKnheKfgtEEB_pad-1" x="2890" y="2165"/><use xlink:href="#Wj3QyGA9fKnheKfgtEEB_pad-1" x="2895" y="2095"/><use xlink:href="#Wj3QyGA9fKnheKfgtEEB_pad-1" x="2811.54" y="2073.35"/><use xlink:href="#Wj3QyGA9fKnheKfgtEEB_pad-1" x="2712.35" y="2095"/><use xlink:href="#Wj3QyGA9fKnheKfgtEEB_pad-1" x="2643.82" y="2073.35"/><use xlink:href="#Wj3QyGA9fKnheKfgtEEB_pad-1" x="2610.39" y="2029.61"/><use xlink:href="#Wj3QyGA9fKnheKfgtEEB_pad-1" x="2455" y="2080"/><use xlink:href="#Wj3QyGA9fKnheKfgtEEB_pad-1" x="2240" y="2075"/><use xlink:href="#Wj3QyGA9fKnheKfgtEEB_pad-1" x="2230" y="2019.61"/><use xlink:href="#Wj3QyGA9fKnheKfgtEEB_pad-1" x="2265" y="2130"/><use xlink:href="#Wj3QyGA9fKnheKfgtEEB_pad-1" x="2190" y="2241.77"/><use xlink:href="#Wj3QyGA9fKnheKfgtEEB_pad-1" x="2145" y="2289.53"/><use xlink:href="#Wj3QyGA9fKnheKfgtEEB_pad-1" x="2430" y="2350"/><use xlink:href="#Wj3QyGA9fKnheKfgtEEB_pad-1" x="2535.94" y="2355.94"/><use xlink:href="#Wj3QyGA9fKnheKfgtEEB_pad-1" x="2609.23" y="2405"/><use xlink:href="#Wj3QyGA9fKnheKfgtEEB_pad-1" x="2690" y="2232.16"/><use xlink:href="#Wj3QyGA9fKnheKfgtEEB_pad-1" x="2765" y="2244.57"/><use xlink:href="#Wj3QyGA9fKnheKfgtEEB_pad-1" x="2813.23" y="2198.23"/><use xlink:href="#Wj3QyGA9fKnheKfgtEEB_pad-1" x="2906.92" y="2357.92"/><use xlink:href="#Wj3QyGA9fKnheKfgtEEB_pad-1" x="2864.84" y="2434.84"/><use xlink:href="#Wj3QyGA9fKnheKfgtEEB_pad-1" x="2993.74" y="2400"/><use xlink:href="#Wj3QyGA9fKnheKfgtEEB_pad-1" x="2836.65" y="2699.79"/><use xlink:href="#Wj3QyGA9fKnheKfgtEEB_pad-1" x="2920" y="2790"/><use xlink:href="#Wj3QyGA9fKnheKfgtEEB_pad-1" x="2875" y="2835"/><use xlink:href="#Wj3QyGA9fKnheKfgtEEB_pad-1" x="2800" y="2875"/><use xlink:href="#Wj3QyGA9fKnheKfgtEEB_pad-1" x="2559.56" y="2785"/><use xlink:href="#Wj3QyGA9fKnheKfgtEEB_pad-1" x="2257.99" y="2817.01"/><use xlink:href="#Wj3QyGA9fKnheKfgtEEB_pad-1" x="2180" y="2782"/><use xlink:href="#Wj3QyGA9fKnheKfgtEEB_pad-1" x="2140.46" y="2685.46"/><use xlink:href="#Wj3QyGA9fKnheKfgtEEB_pad-1" x="2025.97" y="2810"/><use xlink:href="#Wj3QyGA9fKnheKfgtEEB_pad-1" x="2085" y="3012"/><use xlink:href="#Wj3QyGA9fKnheKfgtEEB_pad-1" x="1962.13" y="2595"/><use xlink:href="#Wj3QyGA9fKnheKfgtEEB_pad-1" x="1591.57" y="2628.43"/><use xlink:href="#Wj3QyGA9fKnheKfgtEEB_pad-1" x="1680" y="2430"/><use xlink:href="#Wj3QyGA9fKnheKfgtEEB_pad-1" x="2374.06" y="2470.94"/><use xlink:href="#Wj3QyGA9fKnheKfgtEEB_pad-1" x="2400" y="1760"/><use xlink:href="#Wj3QyGA9fKnheKfgtEEB_pad-1" x="2275" y="1800"/><use xlink:href="#Wj3QyGA9fKnheKfgtEEB_pad-1" x="2140.46" y="1682.13"/><use xlink:href="#Wj3QyGA9fKnheKfgtEEB_pad-1" x="1982.99" y="1850"/><use xlink:href="#Wj3QyGA9fKnheKfgtEEB_pad-1" x="2845" y="1855"/><use xlink:href="#Wj3QyGA9fKnheKfgtEEB_pad-1" x="2845" y="1955"/><use xlink:href="#Wj3QyGA9fKnheKfgtEEB_pad-1" x="1515" y="1780"/><use xlink:href="#Wj3QyGA9fKnheKfgtEEB_pad-1" x="1485" y="2635"/><use xlink:href="#Wj3QyGA9fKnheKfgtEEB_pad-1" x="1415" y="2880"/><use xlink:href="#Wj3QyGA9fKnheKfgtEEB_pad-1" x="1330" y="3305"/><use xlink:href="#Wj3QyGA9fKnheKfgtEEB_pad-1" x="1450" y="3408.7"/><use xlink:href="#Wj3QyGA9fKnheKfgtEEB_pad-2" x="2885" y="1125"/><use xlink:href="#Wj3QyGA9fKnheKfgtEEB_pad-2" x="2985" y="1125"/><use xlink:href="#Wj3QyGA9fKnheKfgtEEB_pad-2" x="3085" y="1125"/><use xlink:href="#Wj3QyGA9fKnheKfgtEEB_pad-2" x="3185" y="1125"/><use xlink:href="#Wj3QyGA9fKnheKfgtEEB_pad-2" x="3285" y="1125"/><use xlink:href="#Wj3QyGA9fKnheKfgtEEB_pad-2" x="3385" y="1125"/><use xlink:href="#Wj3QyGA9fKnheKfgtEEB_pad-2" x="3485" y="1125"/><use xlink:href="#Wj3QyGA9fKnheKfgtEEB_pad-2" x="3585" y="1125"/><use xlink:href="#Wj3QyGA9fKnheKfgtEEB_pad-2" x="3795" y="1125"/><use xlink:href="#Wj3QyGA9fKnheKfgtEEB_pad-2" x="3795" y="1225"/><use xlink:href="#Wj3QyGA9fKnheKfgtEEB_pad-2" x="3795" y="1325"/><use xlink:href="#Wj3QyGA9fKnheKfgtEEB_pad-2" x="3795" y="1425"/><use xlink:href="#Wj3QyGA9fKnheKfgtEEB_pad-2" x="3795" y="1525"/><use xlink:href="#Wj3QyGA9fKnheKfgtEEB_pad-2" x="3795" y="1625"/><use xlink:href="#Wj3QyGA9fKnheKfgtEEB_pad-2" x="3795" y="1725"/><use xlink:href="#Wj3QyGA9fKnheKfgtEEB_pad-2" x="3795" y="1825"/><use xlink:href="#Wj3QyGA9fKnheKfgtEEB_pad-2" x="3795" y="1925"/><use xlink:href="#Wj3QyGA9fKnheKfgtEEB_pad-2" x="3795" y="2025"/><use xlink:href="#Wj3QyGA9fKnheKfgtEEB_pad-2" x="1185" y="1715"/><use xlink:href="#Wj3QyGA9fKnheKfgtEEB_pad-2" x="1185" y="1615"/><use xlink:href="#Wj3QyGA9fKnheKfgtEEB_pad-2" x="1125" y="2760"/><use xlink:href="#Wj3QyGA9fKnheKfgtEEB_pad-2" x="1125" y="2860"/><use xlink:href="#Wj3QyGA9fKnheKfgtEEB_pad-2" x="1120" y="3008.7"/><use xlink:href="#Wj3QyGA9fKnheKfgtEEB_pad-2" x="1120" y="3108.7"/><use xlink:href="#Wj3QyGA9fKnheKfgtEEB_pad-2" x="1120" y="3208.7"/><use xlink:href="#Wj3QyGA9fKnheKfgtEEB_pad-2" x="1120" y="3308.7"/><use xlink:href="#Wj3QyGA9fKnheKfgtEEB_pad-2" x="1120" y="3408.7"/><use xlink:href="#Wj3QyGA9fKnheKfgtEEB_pad-2" x="1120" y="3508.7"/><use xlink:href="#Wj3QyGA9fKnheKfgtEEB_pad-2" x="3230" y="3810"/><use xlink:href="#Wj3QyGA9fKnheKfgtEEB_pad-2" x="3330" y="3810"/><use xlink:href="#Wj3QyGA9fKnheKfgtEEB_pad-2" x="3430" y="3810"/><use xlink:href="#Wj3QyGA9fKnheKfgtEEB_pad-2" x="3530" y="3810"/><use xlink:href="#Wj3QyGA9fKnheKfgtEEB_pad-2" x="3810" y="3550"/><use xlink:href="#Wj3QyGA9fKnheKfgtEEB_pad-2" x="3810" y="3450"/><use xlink:href="#Wj3QyGA9fKnheKfgtEEB_pad-2" x="3810" y="3350"/><use xlink:href="#Wj3QyGA9fKnheKfgtEEB_pad-2" x="3810" y="3250"/><use xlink:href="#Wj3QyGA9fKnheKfgtEEB_pad-2" x="3810" y="3150"/></g><mask id="ZmXC1ROAiqy3_ojC7fnt_bottom_mech-mask"><g fill="#000" stroke="#000"><rect x="995" y="990" width="2950" height="2965" fill="#fff"/><use xlink:href="#ZmXC1ROAiqy3_ojC7fnt_bottom_drill1"/></g></mask><mask id="ZmXC1ROAiqy3_ojC7fnt_bottom_cf-mask"><g fill="#fff" stroke="#fff"><use xlink:href="#ZmXC1ROAiqy3_ojC7fnt_bottom_soldermask"/></g></mask><mask id="ZmXC1ROAiqy3_ojC7fnt_bottom_sm-mask"><g fill="#000" stroke="#000"><rect x="995" y="990" width="2950" height="2965" fill="#fff"/><use xlink:href="#ZmXC1ROAiqy3_ojC7fnt_bottom_soldermask"/></g></mask></defs><g transform="translate(0,4953.58) scale(1,-1)"><g mask="url(#ZmXC1ROAiqy3_ojC7fnt_bottom_mech-mask)" transform="translate(4833.58,0) scale(-1,1)"><rect x="995" y="990" width="2950" height="2965" fill="currentColor" class="ZmXC1ROAiqy3_ojC7fnt_fr4"/><use xlink:href="#ZmXC1ROAiqy3_ojC7fnt_bottom_copper" fill="currentColor" stroke="currentColor" class="ZmXC1ROAiqy3_ojC7fnt_cu"/><use xlink:href="#ZmXC1ROAiqy3_ojC7fnt_bottom_copper" fill="currentColor" stroke="currentColor" class="ZmXC1ROAiqy3_ojC7fnt_cf" mask="url(#ZmXC1ROAiqy3_ojC7fnt_bottom_cf-mask)"/><g mask="url(#ZmXC1ROAiqy3_ojC7fnt_bottom_sm-mask)"><rect x="995" y="990" width="2950" height="2965" fill="currentColor" class="ZmXC1ROAiqy3_ojC7fnt_sm"/><use xlink:href="#ZmXC1ROAiqy3_ojC7fnt_bottom_silkscreen" fill="currentColor" stroke="currentColor" class="ZmXC1ROAiqy3_ojC7fnt_ss"/></g><use xlink:href="#ZmXC1ROAiqy3_ojC7fnt_bottom_solderpaste" fill="currentColor" stroke="currentColor" class="ZmXC1ROAiqy3_ojC7fnt_sp"/></g></g></svg>