<svg version="1.1" xmlns="http://www.w3.org/2000/svg" xmlns:xlink="http://www.w3.org/1999/xlink" stroke-linecap="round" stroke-linejoin="round" stroke-width="0" fill-rule="evenodd" width="3.05642in" height="3.16642in" viewBox="888.58 893.58 3056.42 3166.42" id="TBjXdvDDiD85WtxEkJOL"><defs><rect x="-17.715" y="-13.78" width="35.43" height="27.56" id="TBjXdvDDiD85WtxEkJOL_pad-19"/><rect x="-9.84" y="-6.89" width="19.68" height="13.78" id="TBjXdvDDiD85WtxEkJOL_pad-20"/><rect x="-15.75" y="-17.715" width="31.5" height="35.43" id="TBjXdvDDiD85WtxEkJOL_pad-21"/><rect x="-27.56" y="-23.62" width="55.12" height="47.24" id="TBjXdvDDiD85WtxEkJOL_pad-22"/><rect x="-13.78" y="-17.715" width="27.56" height="35.43" id="TBjXdvDDiD85WtxEkJOL_pad-23"/><rect x="-35.435" y="-5.905" width="70.87" height="11.81" rx="5.905" ry="5.905" id="TBjXdvDDiD85WtxEkJOL_pad-24"/><rect x="-5.905" y="-35.435" width="11.81" height="70.87" rx="5.905" ry="5.905" id="TBjXdvDDiD85WtxEkJOL_pad-25"/><rect x="-17.715" y="-15.75" width="35.43" height="31.5" id="TBjXdvDDiD85WtxEkJOL_pad-26"/><rect x="-27.56" y="-21.655" width="55.12" height="43.31" id="TBjXdvDDiD85WtxEkJOL_pad-27"/><rect x="-27.36" y="-11.42" width="54.72" height="22.84" id="TBjXdvDDiD85WtxEkJOL_pad-28"/><rect x="-5.905" y="-10.335" width="11.81" height="20.67" id="TBjXdvDDiD85WtxEkJOL_pad-29"/><rect x="-8.365" y="-5.905" width="16.73" height="11.81" id="TBjXdvDDiD85WtxEkJOL_pad-30"/><rect x="-39" y="-11" width="78" height="22" id="TBjXdvDDiD85WtxEkJOL_pad-31"/><rect x="-21.655" y="-27.56" width="43.31" height="55.12" id="TBjXdvDDiD85WtxEkJOL_pad-32"/><rect x="-29.53" y="-29.53" width="59.06" height="59.06" id="TBjXdvDDiD85WtxEkJOL_pad-51"/><circle cx="0" cy="0" r="29.53" id="TBjXdvDDiD85WtxEkJOL_pad-52"/><rect x="-29.53" y="-29.53" width="59.06" height="59.06" id="TBjXdvDDiD85WtxEkJOL_pad-53"/><circle cx="0" cy="0" r="25" id="TBjXdvDDiD85WtxEkJOL_pad-54"/></defs><g transform="translate(0,4953.58) scale(1,-1)" fill="currentColor" stroke="currentColor"><path d="M 1610.43 1695.24 1602.56 1695.24 1610.43 1695.24" fill="none" stroke-width="11.81"/><path d="M 2438.96 3616.56 2438.96 3576.58 2398.97 3616.56 2388.98 3616.56 2378.98 3606.57 2378.98 3586.57 2388.98 3576.58 M 2378.98 3636.56 2378.98 3676.54 2388.98 3676.54 2428.96 3636.56 2438.96 3636.56 M 2378.98 3736.52 2378.98 3696.54 2408.97 3696.54 2398.97 3716.53 2398.97 3726.53 2408.97 3736.52 2428.96 3736.52 2438.96 3726.53 2438.96 3706.53 2428.96 3696.54 M 2438.96 3836.49 2418.97 3816.5 2398.97 3816.5 2378.98 3836.49 M 2438.96 3866.48 2398.97 3866.48 2398.97 3876.48 2408.97 3886.48 2438.96 3886.48 2408.97 3886.48 2398.97 3896.47 2408.97 3906.47 2438.96 3906.47 M 2438.96 3926.46 2438.96 3946.46 2438.96 3936.46 2398.97 3936.46 2398.97 3926.46 M 2438.96 3976.45 2438.96 3996.44 2438.96 3986.44 2378.98 3986.44 2378.98 3976.45 M 2438.96 4026.43 2418.97 4046.42 2398.97 4046.42 2378.98 4026.43 M 2511.87 936.56 2511.87 896.58 2471.89 936.56 2461.89 936.56 2451.89 926.57 2451.89 906.57 2461.89 896.58 M 2451.89 956.56 2451.89 996.54 2461.89 996.54 2501.88 956.56 2511.87 956.56 M 2451.89 1056.52 2451.89 1016.54 2481.88 1016.54 2471.89 1036.53 2471.89 1046.53 2481.88 1056.52 2501.88 1056.52 2511.87 1046.53 2511.87 1026.53 2501.88 1016.54 M 2511.87 1156.49 2491.88 1136.5 2471.89 1136.5 2451.89 1156.49 M 2511.87 1186.48 2471.89 1186.48 2471.89 1196.48 2481.88 1206.48 2511.87 1206.48 2481.88 1206.48 2471.89 1216.47 2481.88 1226.47 2511.87 1226.47 M 2511.87 1246.46 2511.87 1266.46 2511.87 1256.46 2471.89 1256.46 2471.89 1246.46 M 2511.87 1296.45 2511.87 1316.44 2511.87 1306.44 2451.89 1306.44 2451.89 1296.45 M 2511.87 1346.43 2491.88 1366.42 2471.89 1366.42 2451.89 1346.43 M 931.56 1871.04 891.58 1871.04 931.56 1911.03 931.56 1921.02 921.57 1931.02 901.57 1931.02 891.58 1921.02 M 951.56 1931.02 991.54 1931.02 991.54 1921.02 951.56 1881.04 951.56 1871.04 M 1051.52 1931.02 1011.54 1931.02 1011.54 1901.03 1031.53 1911.03 1041.53 1911.03 1051.52 1901.03 1051.52 1881.04 1041.53 1871.04 1021.53 1871.04 1011.54 1881.04 M 1151.49 1871.04 1131.5 1891.03 1131.5 1911.03 1151.49 1931.02 M 1181.48 1871.04 1181.48 1911.03 1191.48 1911.03 1201.48 1901.03 1201.48 1871.04 1201.48 1901.03 1211.47 1911.03 1221.47 1901.03 1221.47 1871.04 M 1241.46 1871.04 1261.46 1871.04 1251.46 1871.04 1251.46 1911.03 1241.46 1911.03 M 1291.45 1871.04 1311.44 1871.04 1301.44 1871.04 1301.44 1931.02 1291.45 1931.02 M 1341.43 1871.04 1361.42 1891.03 1361.42 1911.03 1341.43 1931.02" fill="none" stroke-width="6"/><path d="M 1653.46 1596.5 1653.46 1714.61 M 1586.54 1596.5 1653.46 1596.5 M 1586.54 1596.5 1586.54 1714.61 1653.46 1714.61" fill="none" stroke-width="5"/><path d="M 2993.74 2400 3036.89 2400 3086.38 2449.49 3260 2449.49 M 2819.37 2490.63 2870 2440 M 3054.33 2477.44 3125 2477.44 M 3011.73 2434.84 3054.33 2477.44 M 2864.84 2434.84 3011.73 2434.84 M 3127.36 2475.08 3260 2475.08 M 2864.84 2434.84 2870 2440 M 3232.92 2357.92 3292.92 2417.92 M 2906.92 2357.92 3232.92 2357.92 M 3292.92 2417.92 3292.92 2437.76 M 3260 2500.67 3261.18 2501.85 3261.18 2680 M 3289.46 2500.67 3322.99 2500.67 M 3263.87 2475.08 3289.46 2500.67 M 3260 2475.08 3263.87 2475.08 M 3322.99 2500.67 3322.99 2673.31 M 3316.3 2680 3322.99 2673.31 M 3232.92 2317.92 3322.99 2407.99 M 3292.92 2437.76 3304.65 2449.49 M 3322.99 2407.99 3322.99 2423.9 M 3254.49 2418.39 3260 2423.9 M 3125 2418.39 3254.49 2418.39 M 3135 2320 3410 2045 M 3108.08 2300 3294 2114.08 M 3028.95 2280.16 3209.27 2099.84 M 3086.38 2085 3170 2001.38 M 2945 2085 3086.38 2085 M 2890 2030 2945 2085 M 2685 2030 2890 2030 M 2920 1955 2935.94 1970.94 M 2845 1955 2920 1955 M 3040 1944.74 3040 2050 M 2685 1970.94 2824.06 1970.94 M 2516.97 1810 2921.56 1810 M 2824.06 1970.94 2845 1950 M 3304.65 2449.49 3322.99 2449.49 M 3125 2477.44 3127.36 2475.08 M 3322.99 2500.67 3400 2500.67 3420.67 2521.34 3520 2521.34 M 3477.72 2462.28 3520 2462.28 M 3464.92 2475.08 3477.72 2462.28 M 3322.99 2475.08 3464.92 2475.08 M 2140.46 1682.13 2150.87 1682.13 2282.99 1550 M 2481.56 2271.14 2486.34 2271.14 M 2968.43 1710 2968.43 1814.55 M 2458.39 1909.53 2962.03 1909.53 M 2387.91 1980 2458.39 1909.53 M 3034.55 1909.53 3054.24 1889.84 M 2962.03 1909.53 3034.55 1909.53 M 2921.56 1810 2962.03 1850.47 M 2346.97 1980 2516.97 1810 M 2845 1855 2845 1860.32 2854.84 1870.16 2962.03 1870.16 M 2908.08 2135 2950 2135 M 2904.08 2131 2908.08 2135 M 2792.65 2107.35 2895 2107.35 M 3100 1995 3115.94 1995 M 1960 2560 2035.94 2560 M 1741.89 2560 1960 2560 M 1962.13 2562.13 1962.13 2595 M 1960 2560 1962.13 2562.13 M 2040.37 2629 2159.06 2510.31 M 1592.15 2629 2040.37 2629 M 1591.57 2628.43 1592.15 2629 M 2180 2782 2180 2962 M 2257.99 2817.01 2257.99 3422.99 M 1680 2430 1740.63 2490.63 2257.99 2490.63 M 2140.46 2655.98 2140.46 2685.46 M 2106.46 2947.51 2120.94 2962 M 2106.46 2648.34 2200.33 2554.47 M 2106.46 2648.34 2106.46 2947.51 M 2140.46 2655.98 2222.29 2574.15 2253.21 2574.15 2257.99 2569.37 M 2935.94 1970.94 2980.12 1970.94 M 2962.03 1870.16 2962.03 1889.84 M 2360.94 2589.06 2615.28 2334.72 M 2257.99 2589.06 2360.94 2589.06 M 2658.38 2318.24 2730.7 2318.24 M 2641.91 2334.72 2658.38 2318.24 M 2615.28 2334.72 2641.91 2334.72 M 2506.02 2326.02 2506.02 2350.51 M 2609.23 2411.43 2629.37 2431.57 M 2609.23 2405 2609.23 2411.43 M 2506.02 2326.02 2535.94 2355.94 M 2506.02 2262.28 2506.02 2326.02 M 2257.99 2470.94 2374.06 2470.94 M 2559.56 2785 2595 2820.44 M 2593.56 2778.56 2755 2940 M 2593.56 2770.92 2593.56 2778.56 M 2573.65 2751 2593.56 2770.92 M 2566 2751 2573.65 2751 M 2565.08 2750.08 2566 2751 M 2595 2820.44 2595 2870 M 2456.54 2400 2506.02 2350.51 M 2370 2400 2456.54 2400 M 2323.52 2446.48 2370 2400 M 2262.77 2446.48 2323.52 2446.48 M 2370 2264.06 2370 2400 M 2425 2317.28 2462.26 2317.28 M 2397.96 2317.28 2425 2317.28 M 2802.52 2372.52 2864.84 2434.84 M 2425 2317.28 2425 2345 2430 2350 M 2695 2490.63 2819.37 2490.63 M 2695 2372.52 2802.52 2372.52 M 2695 2352.83 2695 2372.52 M 2486.34 2262.28 2486.34 2271.14 M 2481.56 2271.14 2481.56 2297.99 M 2462.26 2317.28 2481.56 2297.99 M 2392.69 2312.01 2397.96 2317.28 M 2392.69 2267.06 2392.69 2312.01 M 2387.91 2262.28 2392.69 2267.06 M 2592.47 2320.72 2636.11 2320.72 M 2630.31 2306.72 2657.03 2280 M 2598.27 2306.72 2630.31 2306.72 M 2656.82 2300 3108.08 2300 M 2636.11 2320.72 2656.82 2300 M 2670.12 2280.16 3028.95 2280.16 M 2669.95 2280 2670.12 2280.16 M 2657.03 2280 2669.95 2280 M 2732.46 2320 3135 2320 M 2730.7 2318.24 2732.46 2320 M 2704.08 2266.16 2725.68 2244.57 M 2675.92 2266.16 2704.08 2266.16 M 2655.92 2246.16 2675.92 2266.16 M 2652.16 2232.16 2690 2232.16 M 2704.15 2198.23 2813.23 2198.23 M 2704.08 2198.16 2704.15 2198.23 M 2564.56 2198.16 2704.08 2198.16 M 2709.95 2184.23 2779.15 2184.23 M 2709.88 2184.16 2709.95 2184.23 M 2558.76 2184.16 2709.88 2184.16 M 2519.76 2164.23 2760 2164.23 M 2368.23 2262.28 2370 2264.06 M 2257.99 2451.26 2262.77 2446.48 M 2629.37 2431.57 2695 2431.57 M 2466.65 2594.29 2629.37 2431.57 M 2466.65 2594.29 2466.65 2699.29 M 2643.82 2073.35 2685 2032.16 M 2685 2030 2685 2032.16 M 2880.94 2155.94 2890 2165 M 2835.6 2155.94 2880.94 2155.94 M 2827.31 2164.23 2835.6 2155.94 M 2895 2095 2895 2107.35 M 2736.72 2131 2794.37 2073.35 M 2693.65 2113.7 2712.35 2095 M 2505.68 2113.7 2693.65 2113.7 M 2508.18 2131 2736.72 2131 M 2513.98 2145 2755 2145 2792.65 2107.35 M 2412.38 2207 2505.68 2113.7 M 2412.38 2207 2412.38 2257.5 M 2407.6 2262.28 2412.38 2257.5 M 2725.68 2244.57 2765 2244.57 M 2640.25 2246.16 2655.92 2246.16 M 2624.13 2262.28 2640.25 2246.16 M 2604.45 2212.72 2604.45 2262.28 M 2604.45 2212.72 2605 2212.16 2632.16 2212.16 2652.16 2232.16 M 2530.49 2212.44 2558.76 2184.16 M 2550.17 2212.55 2564.56 2198.16 M 2287.15 2155.94 2287.15 2155.94 M 2279.08 2164 2287.15 2155.94 M 2240 2075 2240 2076.92 M 2216 2100.92 2240 2076.92 M 2235.37 2149 2235.92 2149 2250.92 2164 2279.08 2164 M 2287.15 2155.94 2343.76 2212.55 M 2274 2036 2274 2089.08 M 2274 2036 2300 2010 M 2265 2098.08 2265 2130 M 2265 2098.08 2274 2089.08 M 2202 2047.61 2202 2135.43 M 2202 2047.61 2230 2019.61 M 2202 2135.43 2328.86 2262.28 M 2216 2100.92 2216 2129.63 2235.37 2149 M 2343.76 2212.55 2343.76 2257.5 2348.54 2262.28 M 2100 1810 2300 2010 M 2155 1790 2345 1980 M 2368.23 2118.35 2368.23 2262.28 M 2344.88 2095 2368.23 2118.35 M 2760 2164.23 2793.23 2131 M 2407.6 2209.18 2407.6 2262.28 M 2794.37 2073.35 2811.54 2073.35 M 2427.28 2211.89 2508.18 2131 M 2427.28 2211.89 2427.28 2262.28 M 2446.97 2212.01 2446.97 2262.28 M 2446.97 2212.01 2513.98 2145 M 2793.23 2131 2904.08 2131 M 2471.43 2212.55 2519.76 2164.23 M 2471.43 2212.55 2471.43 2257.51 M 2466.65 2262.28 2471.43 2257.51 M 2984.17 1975 2984.17 2049.29 M 2481.46 1970.55 2540 1970.55 M 2799.14 2164.23 2827.31 2164.23 M 2779.15 2184.23 2799.14 2164.23 M 2530.49 2212.44 2530.49 2257.5 M 2525.71 2262.28 2530.49 2257.5 M 2550.17 2212.55 2550.17 2257.51 M 2545.39 2262.28 2550.17 2257.51 M 3294 2111 3340 2065 M 3294 2111 3294 2114.08 M 2578.47 2306.72 2592.47 2320.72 M 2569.86 2306.72 2578.47 2306.72 M 2569.86 2267.06 2569.86 2306.72 M 2565.08 2262.28 2569.86 2267.06 M 3209.43 2100 3260 2100 M 3209.27 2099.84 3209.43 2100 M 2589.54 2262.28 2589.54 2297.99 2598.27 2306.72 M 2584.76 2262.28 2589.54 2262.28 M 2177.52 2530 2257.99 2530 M 2025.97 2681.55 2177.52 2530 M 2025.97 2681.55 2025.97 2810 M 2159.06 2510.31 2257.99 2510.31 M 1545.94 2364.06 1741.89 2560 M 2085 3012 2120.94 3047.94 M 1985 2962 2120.94 2962 M 1962 2985 1985 2962 M 2120.94 3047.94 2120.94 3060 M 2253.21 2554.47 2257.99 2549.69 M 2200.33 2554.47 2253.21 2554.47 M 2345 1925.16 2345 1980 M 2345 1836.57 2345 1925.16 M 2345 1980 2346.97 1980 M 2345 1925.16 2400 1870.16 M 2400 1760 2400 1870.16 M 2257.99 3422.99 2330 3495 M 1863.35 3040 1908.35 3085 M 1808.35 2985 1863.35 3040 M 1245 3083.7 1416.3 3255 1815 3255 1863.35 3206.65 M 1863.35 3040 1863.35 3206.65 M 1545.94 2364.06 1545.94 2685 M 1908.35 3085 1962 3085 M 1768 2985 1808.35 2985 M 1120 3008.7 1166.3 3008.7 1485 2690 M 1485 2635 1485 2690 M 2195 2470.94 2257.99 2470.94 M 2308.43 1800 2345 1836.57 M 2275 1800 2308.43 1800 M 1245 3050 1415 2880 M 1245 3050 1245 3083.7 M 1120 3208.7 1245 3083.7 M 1120 3108.7 1543.7 2685 1545.94 2685 1545.94 2978.54 M 1120 3308.7 1123.7 3305 1330 3305 M 2190 2241.77 2190 2265.16 2257.99 2333.15 M 2300 2010 2344.88 2054.88 M 1120 3408.7 1450 3408.7 M 2145 2289.53 2208.31 2352.83 M 2077.72 2370.47 2255.94 2370.47 M 2208.31 2352.83 2257.99 2352.83 M 2730.7 2593.83 2836.65 2699.79 M 2699.78 2593.83 2730.7 2593.83 M 2695 2589.06 2699.78 2593.83 M 3031.31 2510.31 3671 3150 M 2942.72 2530 3662.72 3250 3810 3250 M 2774.37 2569.37 3650 3445 M 2695 2569.37 2774.37 2569.37 M 2714.84 2790 2920 2790 M 2624.13 2699.29 2714.84 2790 M 2699.8 2835 2875 2835 M 2584.76 2739.76 2720 2875 M 2584.76 2699.29 2584.76 2739.76 M 2720 2875 2800 2875 M 2565.08 2699.29 2565.08 2750.08 M 2755 2940 3000.71 2940 M 2747.72 2964.76 2968.43 3185.47 M 2609.23 2744.43 2699.8 2835 M 2609.23 2704.07 2609.23 2744.43 M 2604.45 2699.29 2609.23 2704.07 M 1375 1699.53 1525.47 1850 1982.99 1850 M 1980 1690 2100 1810 M 2282.99 1550 2355 1550 2860 1045 3505 1045 3585 1125 M 3148.27 1913.68 3170 1935.41 M 3285 1125 3285 1350 3470 1535 3470 1928.62 M 3281.74 1936.74 3311.61 1966.61 M 3206.74 1936.74 3281.74 1936.74 M 3183.68 1913.68 3206.74 1936.74 M 3148.27 1913.68 3183.68 1913.68 M 3144.11 1909.53 3148.27 1913.68 M 1999.88 1634.88 2155 1790 2155.08 1790 2875.08 1070 3330 1070 3385 1125 M 3410 1830 3410 2045 M 3345 1765 3410 1830 M 3149.84 1765 3345 1765 M 3274.84 1870.16 3304.37 1840.63 M 3144.11 1870.16 3274.84 1870.16 M 3121.97 1792.87 3149.84 1765 M 3121.97 1792.87 3121.97 1818.48 M 3035.02 1850 3035.5 1850.47 3144.11 1850.47 M 3141.65 1848.01 3144.11 1850.47 M 3141.65 1818.48 3141.65 1848.01 M 3023.54 1710 3023.54 1818.48 M 2180 2962 2180 3060 M 2105 3135 2180 3060 M 1962 3135 2105 3135 M 2076.65 3060 2120.94 3060 M 2051.65 3035 2076.65 3060 M 1962 3035 2051.65 3035 M 2407.6 2699.29 2412.38 2704.07 2412.38 2764.55 2443 2795.17 2443 2931.5 2476.26 2964.76 2747.72 2964.76 M 2387.91 2699.29 2392.69 2704.07 2392.69 2764.67 2429 2800.97 2429 2947.22 2506.78 3025 2650 3025 2815 3190 M 2368.23 2699.29 2368.23 2760 2415 2806.77 2415 3022.72 2455.63 3063.35 2528.35 3063.35 2655 3190 M 2400 3093.82 2496.18 3190 M 2400 2826.46 2400 3093.82 M 2348.54 2775 2400 2826.46 M 2348.54 2699.29 2348.54 2775 M 2328.86 2699.29 2333.64 2704.07 2333.64 3184.35 2334.76 3185.47 M 2968.43 3244.53 2968.43 3424.13 M 2815 3249.06 2820 3254.06 2820 3424.13 M 2655 3249.06 2655 3424.13 M 2496.18 3249.06 2496.18 3424.57 M 2330 3249.29 2334.76 3244.53 M 2330 3249.29 2330 3424.13 M 2820 3495 2968.43 3495 M 2655 3495 2820 3495 M 2654.57 3495.43 2655 3495 M 2496.18 3495.43 2654.57 3495.43 M 2495.75 3495 2496.18 3495.43 M 2330 3495 2495.75 3495 M 1545.94 2364.06 2100 1810 M 1545 3085 1545.94 3084.06 M 1545.94 2978.54 1545.94 3084.06 M 1545 3085 1545.47 3085.47 1545.47 3190 M 1604.53 3190 1665 3190 1720 3135 1768 3135 M 1705 3035 1768 3035 M 1648.54 2978.54 1705 3035 M 1605 2978.54 1648.54 2978.54 M 1604.06 3085 1768 3085 M 2984.17 1941.52 2984.17 1975 M 2980.12 1970.94 2984.17 1975 M 2684.61 1970.55 2685 1970.94 M 2540 1970.55 2684.61 1970.55 M 2455 1997.01 2481.46 1970.55 M 2455 1997.01 2455 2080 M 1574.13 1692.95 1574.13 1720.87 M 1515 1780 1574.13 1720.87 M 1460 1545 1505 1500 M 1564.06 1500 1574.13 1510.08 1574.13 1618.15 M 1500.55 1655.55 1574.13 1655.55 M 1485.47 1640.47 1500.55 1655.55 M 1375 1640.47 1485.47 1640.47 M 1349.53 1615 1375 1640.47 M 1185 1615 1349.53 1615 M 1567.56 1699.53 1574.13 1692.95 M 1375 1699.53 1567.56 1699.53 M 1359.53 1715 1375 1699.53 M 1185 1715 1359.53 1715 M 1574.13 1655.55 1714.45 1655.55 1737.09 1632.91 1835 1632.91 M 1665.87 1692.95 1666.85 1691.97 1835 1691.97 M 3170 1935.41 3170 2001.38 M 2984.17 2049.29 2984.88 2050 M 3141.65 1941.52 3141.65 1969.29 M 3115.94 1995 3141.65 1969.29 M 2540 2029.61 2610.39 2029.61 M 2962.03 1820.94 2962.03 1850.47 M 2962.03 1820.94 2964.49 1818.48 M 3054.24 1889.84 3144.11 1889.84 M 3034.55 1909.53 3038.45 1913.43 3038.45 1936.74 3043.23 1941.52 M 2962.03 1850.47 2962.5 1850 3035.02 1850 3038.45 1846.57 M 3038.45 1823.26 3038.45 1846.57 M 3038.45 1823.26 3043.23 1818.48 M 2346.97 1980 2387.91 1980 M 2345 1980 2400 2035 2400 2095 M 1980 1634.88 1999.88 1634.88 M 2344.88 2054.88 2344.88 2095 M 1835 1632.91 1978.03 1632.91 M 1835 1691.97 1978.03 1691.97 M 3040 1944.74 3043.23 1941.52 M 3144.11 1889.84 3174.84 1889.84 3184.68 1899.68 3335 1899.68 M 3304.37 1840.63 3335 1840.63 M 2964.49 1818.48 2968.43 1814.55 M 3000.71 2940 3610.71 3550 3810 3550 M 3650 3445 3805 3445 3810 3450 M 3665 3350 3810 3350 M 2864.69 2549.69 3665 3350 M 2695 2549.69 2864.69 2549.69 M 2695 2530 2942.72 2530 M 3671 3150 3810 3150 M 2695 2510.31 3031.31 2510.31 M 2486.34 2699.29 2486.34 2760 2535.94 2809.61 2535.94 2870 M 2074.84 2272.13 2077.72 2275 M 1965 2272.13 2074.84 2272.13 M 1965 2217.01 1966.06 2215.94 2077.72 2215.94 M 2077.72 2275 2077.72 2370.47 M 2255.94 2370.47 2257.99 2372.52 M 2153.58 2429.53 2195 2470.94 M 2077.72 2429.53 2153.58 2429.53 M 2387.91 2197.09 2387.91 2262.28 M 2387.91 2197.09 2400 2185 M 2400 2095 2400 2185 M 1978.03 1632.91 1980 1634.88 M 1978.03 1691.97 1980 1690 M 2285 3955 2305 3955 M 2285 3680 2305 3680 M 2295 3955 2315 4015 M 2275 4015 2295 3955 M 2295 3680 2315 3620 M 2275 3620 2295 3680 M 2295 3955 2295 4055 M 2295 3580 2295 3680 M 2357.91 1275 2377.91 1275 M 2357.91 1000 2377.91 1000 M 2367.91 1275 2387.91 1335 M 2347.91 1335 2367.91 1275 M 2367.91 1000 2387.91 940 M 2347.91 940 2367.91 1000 M 2367.91 1275 2367.91 1375 M 2367.91 900 2367.91 1000 M 1270 2005 1270 2025 M 995 2005 995 2025 M 1270 2015 1330 1995 M 1270 2015 1330 2035 M 935 1995 995 2015 M 935 2035 995 2015 M 1270 2015 1370 2015 M 895 2015 995 2015 M 3940 1005 3940 3940 M 3930 995 3940 1005 M 1010 995 3930 995 M 1000 1005 1010 995 M 1000 1005 1000 3945 1005 3950 3930 3950 3940 3940" fill="none" stroke-width="10"/><path d="M 1853 3158 1856.52 3149.51 1865 3146 1873.48 3149.51 1877 3158 M 1786 2962 1786 3158 1853 3158 1877 3158 1944 3158 M 1944 2962 1944 3158 M 1786 2962 1944 2962 M 1944 3145 1987 3145 M 1987 3125 1987 3145 M 1944 3125 1987 3125 M 1944 3125 1944 3145 M 1944 3095 1987 3095 M 1987 3075 1987 3095 M 1944 3075 1987 3075 M 1944 3075 1944 3095 M 1944 3045 1987 3045 M 1987 3025 1987 3045 M 1944 3025 1987 3025 M 1944 3025 1944 3045 M 1944 2995 1987 2995 M 1987 2975 1987 2995 M 1944 2975 1987 2975 M 1944 2975 1944 2995 M 1743 2975 1786 2975 M 1743 2975 1743 2995 1786 2995 M 1786 2975 1786 2995 M 1743 3025 1786 3025 M 1743 3025 1743 3045 1786 3045 M 1786 3025 1786 3045 M 1743 3075 1786 3075 M 1743 3075 1743 3095 1786 3095 M 1786 3075 1786 3095 M 1743 3125 1786 3125 M 1743 3125 1743 3145 1786 3145 M 1786 3125 1786 3145" fill="none" stroke-width="0"/><use xlink:href="#TBjXdvDDiD85WtxEkJOL_pad-19" x="3125" y="2418.39"/><use xlink:href="#TBjXdvDDiD85WtxEkJOL_pad-19" x="3125" y="2477.44"/><use xlink:href="#TBjXdvDDiD85WtxEkJOL_pad-19" x="3520" y="2521.34"/><use xlink:href="#TBjXdvDDiD85WtxEkJOL_pad-19" x="3520" y="2462.28"/><use xlink:href="#TBjXdvDDiD85WtxEkJOL_pad-19" x="2968.43" y="3185.47"/><use xlink:href="#TBjXdvDDiD85WtxEkJOL_pad-19" x="2968.43" y="3244.53"/><use xlink:href="#TBjXdvDDiD85WtxEkJOL_pad-19" x="2815" y="3190"/><use xlink:href="#TBjXdvDDiD85WtxEkJOL_pad-19" x="2815" y="3249.06"/><use xlink:href="#TBjXdvDDiD85WtxEkJOL_pad-19" x="2655" y="3190"/><use xlink:href="#TBjXdvDDiD85WtxEkJOL_pad-19" x="2655" y="3249.06"/><use xlink:href="#TBjXdvDDiD85WtxEkJOL_pad-19" x="2496.18" y="3190"/><use xlink:href="#TBjXdvDDiD85WtxEkJOL_pad-19" x="2496.18" y="3249.06"/><use xlink:href="#TBjXdvDDiD85WtxEkJOL_pad-19" x="2334.76" y="3185.47"/><use xlink:href="#TBjXdvDDiD85WtxEkJOL_pad-19" x="2334.76" y="3244.53"/><use xlink:href="#TBjXdvDDiD85WtxEkJOL_pad-19" x="2685" y="2030"/><use xlink:href="#TBjXdvDDiD85WtxEkJOL_pad-19" x="2685" y="1970.94"/><use xlink:href="#TBjXdvDDiD85WtxEkJOL_pad-19" x="2540" y="2029.61"/><use xlink:href="#TBjXdvDDiD85WtxEkJOL_pad-19" x="2540" y="1970.55"/><use xlink:href="#TBjXdvDDiD85WtxEkJOL_pad-19" x="3335" y="1840.63"/><use xlink:href="#TBjXdvDDiD85WtxEkJOL_pad-19" x="3335" y="1899.68"/><use xlink:href="#TBjXdvDDiD85WtxEkJOL_pad-19" x="2077.72" y="2370.47"/><use xlink:href="#TBjXdvDDiD85WtxEkJOL_pad-19" x="2077.72" y="2429.53"/><use xlink:href="#TBjXdvDDiD85WtxEkJOL_pad-19" x="2077.72" y="2215.94"/><use xlink:href="#TBjXdvDDiD85WtxEkJOL_pad-19" x="2077.72" y="2275"/><use xlink:href="#TBjXdvDDiD85WtxEkJOL_pad-20" x="3322.99" y="2475.08"/><use xlink:href="#TBjXdvDDiD85WtxEkJOL_pad-20" x="3260" y="2475.08"/><use xlink:href="#TBjXdvDDiD85WtxEkJOL_pad-20" x="3322.99" y="2449.49"/><use xlink:href="#TBjXdvDDiD85WtxEkJOL_pad-20" x="3260" y="2449.49"/><use xlink:href="#TBjXdvDDiD85WtxEkJOL_pad-20" x="3260" y="2500.67"/><use xlink:href="#TBjXdvDDiD85WtxEkJOL_pad-20" x="3322.99" y="2500.67"/><use xlink:href="#TBjXdvDDiD85WtxEkJOL_pad-20" x="3322.99" y="2423.9"/><use xlink:href="#TBjXdvDDiD85WtxEkJOL_pad-20" x="3260" y="2423.9"/><use xlink:href="#TBjXdvDDiD85WtxEkJOL_pad-21" x="3261.18" y="2680"/><use xlink:href="#TBjXdvDDiD85WtxEkJOL_pad-21" x="3316.3" y="2680"/><use xlink:href="#TBjXdvDDiD85WtxEkJOL_pad-21" x="2344.88" y="2095"/><use xlink:href="#TBjXdvDDiD85WtxEkJOL_pad-21" x="2400" y="2095"/><use xlink:href="#TBjXdvDDiD85WtxEkJOL_pad-21" x="3025" y="1710"/><use xlink:href="#TBjXdvDDiD85WtxEkJOL_pad-21" x="2969.88" y="1710"/><use xlink:href="#TBjXdvDDiD85WtxEkJOL_pad-21" x="2984.88" y="2050"/><use xlink:href="#TBjXdvDDiD85WtxEkJOL_pad-21" x="3040" y="2050"/><use xlink:href="#TBjXdvDDiD85WtxEkJOL_pad-22" x="2968.43" y="3495"/><use xlink:href="#TBjXdvDDiD85WtxEkJOL_pad-22" x="2968.43" y="3424.13"/><use xlink:href="#TBjXdvDDiD85WtxEkJOL_pad-22" x="2820" y="3495"/><use xlink:href="#TBjXdvDDiD85WtxEkJOL_pad-22" x="2820" y="3424.13"/><use xlink:href="#TBjXdvDDiD85WtxEkJOL_pad-22" x="2655" y="3495"/><use xlink:href="#TBjXdvDDiD85WtxEkJOL_pad-22" x="2655" y="3424.13"/><use xlink:href="#TBjXdvDDiD85WtxEkJOL_pad-22" x="2496.18" y="3495.43"/><use xlink:href="#TBjXdvDDiD85WtxEkJOL_pad-22" x="2496.18" y="3424.57"/><use xlink:href="#TBjXdvDDiD85WtxEkJOL_pad-22" x="2330" y="3495"/><use xlink:href="#TBjXdvDDiD85WtxEkJOL_pad-22" x="2330" y="3424.13"/><use xlink:href="#TBjXdvDDiD85WtxEkJOL_pad-23" x="2095" y="2560"/><use xlink:href="#TBjXdvDDiD85WtxEkJOL_pad-23" x="2035.94" y="2560"/><use xlink:href="#TBjXdvDDiD85WtxEkJOL_pad-23" x="1564.06" y="1500"/><use xlink:href="#TBjXdvDDiD85WtxEkJOL_pad-23" x="1505" y="1500"/><use xlink:href="#TBjXdvDDiD85WtxEkJOL_pad-23" x="2180" y="3060"/><use xlink:href="#TBjXdvDDiD85WtxEkJOL_pad-23" x="2120.94" y="3060"/><use xlink:href="#TBjXdvDDiD85WtxEkJOL_pad-23" x="2180" y="2962"/><use xlink:href="#TBjXdvDDiD85WtxEkJOL_pad-23" x="2120.94" y="2962"/><use xlink:href="#TBjXdvDDiD85WtxEkJOL_pad-23" x="1605" y="2978.54"/><use xlink:href="#TBjXdvDDiD85WtxEkJOL_pad-23" x="1545.94" y="2978.54"/><use xlink:href="#TBjXdvDDiD85WtxEkJOL_pad-23" x="1604.06" y="3085"/><use xlink:href="#TBjXdvDDiD85WtxEkJOL_pad-23" x="1545" y="3085"/><use xlink:href="#TBjXdvDDiD85WtxEkJOL_pad-23" x="1604.53" y="3190"/><use xlink:href="#TBjXdvDDiD85WtxEkJOL_pad-23" x="1545.47" y="3190"/><use xlink:href="#TBjXdvDDiD85WtxEkJOL_pad-24" x="2257.99" y="2628.43"/><use xlink:href="#TBjXdvDDiD85WtxEkJOL_pad-24" x="2257.99" y="2608.74"/><use xlink:href="#TBjXdvDDiD85WtxEkJOL_pad-24" x="2257.99" y="2589.06"/><use xlink:href="#TBjXdvDDiD85WtxEkJOL_pad-24" x="2257.99" y="2569.37"/><use xlink:href="#TBjXdvDDiD85WtxEkJOL_pad-24" x="2257.99" y="2549.69"/><use xlink:href="#TBjXdvDDiD85WtxEkJOL_pad-24" x="2257.99" y="2530"/><use xlink:href="#TBjXdvDDiD85WtxEkJOL_pad-24" x="2257.99" y="2510.31"/><use xlink:href="#TBjXdvDDiD85WtxEkJOL_pad-24" x="2257.99" y="2490.63"/><use xlink:href="#TBjXdvDDiD85WtxEkJOL_pad-24" x="2257.99" y="2470.94"/><use xlink:href="#TBjXdvDDiD85WtxEkJOL_pad-24" x="2257.99" y="2451.26"/><use xlink:href="#TBjXdvDDiD85WtxEkJOL_pad-24" x="2257.99" y="2431.57"/><use xlink:href="#TBjXdvDDiD85WtxEkJOL_pad-24" x="2257.99" y="2411.89"/><use xlink:href="#TBjXdvDDiD85WtxEkJOL_pad-24" x="2257.99" y="2392.2"/><use xlink:href="#TBjXdvDDiD85WtxEkJOL_pad-24" x="2257.99" y="2372.52"/><use xlink:href="#TBjXdvDDiD85WtxEkJOL_pad-24" x="2257.99" y="2352.83"/><use xlink:href="#TBjXdvDDiD85WtxEkJOL_pad-24" x="2257.99" y="2333.15"/><use xlink:href="#TBjXdvDDiD85WtxEkJOL_pad-24" x="2695" y="2333.15"/><use xlink:href="#TBjXdvDDiD85WtxEkJOL_pad-24" x="2695" y="2352.83"/><use xlink:href="#TBjXdvDDiD85WtxEkJOL_pad-24" x="2695" y="2372.52"/><use xlink:href="#TBjXdvDDiD85WtxEkJOL_pad-24" x="2695" y="2392.2"/><use xlink:href="#TBjXdvDDiD85WtxEkJOL_pad-24" x="2695" y="2411.89"/><use xlink:href="#TBjXdvDDiD85WtxEkJOL_pad-24" x="2695" y="2431.57"/><use xlink:href="#TBjXdvDDiD85WtxEkJOL_pad-24" x="2695" y="2451.26"/><use xlink:href="#TBjXdvDDiD85WtxEkJOL_pad-24" x="2695" y="2470.94"/><use xlink:href="#TBjXdvDDiD85WtxEkJOL_pad-24" x="2695" y="2490.63"/><use xlink:href="#TBjXdvDDiD85WtxEkJOL_pad-24" x="2695" y="2510.31"/><use xlink:href="#TBjXdvDDiD85WtxEkJOL_pad-24" x="2695" y="2530"/><use xlink:href="#TBjXdvDDiD85WtxEkJOL_pad-24" x="2695" y="2549.69"/><use xlink:href="#TBjXdvDDiD85WtxEkJOL_pad-24" x="2695" y="2569.37"/><use xlink:href="#TBjXdvDDiD85WtxEkJOL_pad-24" x="2695" y="2589.06"/><use xlink:href="#TBjXdvDDiD85WtxEkJOL_pad-24" x="2695" y="2608.74"/><use xlink:href="#TBjXdvDDiD85WtxEkJOL_pad-24" x="2695" y="2628.43"/><use xlink:href="#TBjXdvDDiD85WtxEkJOL_pad-25" x="2328.86" y="2262.28"/><use xlink:href="#TBjXdvDDiD85WtxEkJOL_pad-25" x="2348.54" y="2262.28"/><use xlink:href="#TBjXdvDDiD85WtxEkJOL_pad-25" x="2368.23" y="2262.28"/><use xlink:href="#TBjXdvDDiD85WtxEkJOL_pad-25" x="2387.91" y="2262.28"/><use xlink:href="#TBjXdvDDiD85WtxEkJOL_pad-25" x="2407.6" y="2262.28"/><use xlink:href="#TBjXdvDDiD85WtxEkJOL_pad-25" x="2427.28" y="2262.28"/><use xlink:href="#TBjXdvDDiD85WtxEkJOL_pad-25" x="2446.97" y="2262.28"/><use xlink:href="#TBjXdvDDiD85WtxEkJOL_pad-25" x="2466.65" y="2262.28"/><use xlink:href="#TBjXdvDDiD85WtxEkJOL_pad-25" x="2486.34" y="2262.28"/><use xlink:href="#TBjXdvDDiD85WtxEkJOL_pad-25" x="2506.02" y="2262.28"/><use xlink:href="#TBjXdvDDiD85WtxEkJOL_pad-25" x="2525.71" y="2262.28"/><use xlink:href="#TBjXdvDDiD85WtxEkJOL_pad-25" x="2545.39" y="2262.28"/><use xlink:href="#TBjXdvDDiD85WtxEkJOL_pad-25" x="2565.08" y="2262.28"/><use xlink:href="#TBjXdvDDiD85WtxEkJOL_pad-25" x="2584.76" y="2262.28"/><use xlink:href="#TBjXdvDDiD85WtxEkJOL_pad-25" x="2604.45" y="2262.28"/><use xlink:href="#TBjXdvDDiD85WtxEkJOL_pad-25" x="2624.13" y="2262.28"/><use xlink:href="#TBjXdvDDiD85WtxEkJOL_pad-25" x="2624.13" y="2699.29"/><use xlink:href="#TBjXdvDDiD85WtxEkJOL_pad-25" x="2604.45" y="2699.29"/><use xlink:href="#TBjXdvDDiD85WtxEkJOL_pad-25" x="2584.76" y="2699.29"/><use xlink:href="#TBjXdvDDiD85WtxEkJOL_pad-25" x="2565.08" y="2699.29"/><use xlink:href="#TBjXdvDDiD85WtxEkJOL_pad-25" x="2545.39" y="2699.29"/><use xlink:href="#TBjXdvDDiD85WtxEkJOL_pad-25" x="2525.71" y="2699.29"/><use xlink:href="#TBjXdvDDiD85WtxEkJOL_pad-25" x="2506.02" y="2699.29"/><use xlink:href="#TBjXdvDDiD85WtxEkJOL_pad-25" x="2486.34" y="2699.29"/><use xlink:href="#TBjXdvDDiD85WtxEkJOL_pad-25" x="2466.65" y="2699.29"/><use xlink:href="#TBjXdvDDiD85WtxEkJOL_pad-25" x="2446.97" y="2699.29"/><use xlink:href="#TBjXdvDDiD85WtxEkJOL_pad-25" x="2427.28" y="2699.29"/><use xlink:href="#TBjXdvDDiD85WtxEkJOL_pad-25" x="2407.6" y="2699.29"/><use xlink:href="#TBjXdvDDiD85WtxEkJOL_pad-25" x="2387.91" y="2699.29"/><use xlink:href="#TBjXdvDDiD85WtxEkJOL_pad-25" x="2368.23" y="2699.29"/><use xlink:href="#TBjXdvDDiD85WtxEkJOL_pad-25" x="2348.54" y="2699.29"/><use xlink:href="#TBjXdvDDiD85WtxEkJOL_pad-25" x="2328.86" y="2699.29"/><use xlink:href="#TBjXdvDDiD85WtxEkJOL_pad-26" x="1980" y="1690"/><use xlink:href="#TBjXdvDDiD85WtxEkJOL_pad-26" x="1980" y="1634.88"/><use xlink:href="#TBjXdvDDiD85WtxEkJOL_pad-26" x="1965" y="2217.01"/><use xlink:href="#TBjXdvDDiD85WtxEkJOL_pad-26" x="1965" y="2272.13"/><use xlink:href="#TBjXdvDDiD85WtxEkJOL_pad-27" x="1835" y="1685.08"/><use xlink:href="#TBjXdvDDiD85WtxEkJOL_pad-27" x="1835" y="1626.02"/><use xlink:href="#TBjXdvDDiD85WtxEkJOL_pad-27" x="1375" y="1699.53"/><use xlink:href="#TBjXdvDDiD85WtxEkJOL_pad-27" x="1375" y="1640.47"/><use xlink:href="#TBjXdvDDiD85WtxEkJOL_pad-28" x="1665.87" y="1692.95"/><use xlink:href="#TBjXdvDDiD85WtxEkJOL_pad-28" x="1665.87" y="1618.15"/><use xlink:href="#TBjXdvDDiD85WtxEkJOL_pad-28" x="1574.13" y="1618.15"/><use xlink:href="#TBjXdvDDiD85WtxEkJOL_pad-28" x="1574.13" y="1655.55"/><use xlink:href="#TBjXdvDDiD85WtxEkJOL_pad-28" x="1574.13" y="1692.95"/><use xlink:href="#TBjXdvDDiD85WtxEkJOL_pad-29" x="2984.17" y="1941.52"/><use xlink:href="#TBjXdvDDiD85WtxEkJOL_pad-29" x="3003.86" y="1941.52"/><use xlink:href="#TBjXdvDDiD85WtxEkJOL_pad-29" x="3023.54" y="1941.52"/><use xlink:href="#TBjXdvDDiD85WtxEkJOL_pad-29" x="3043.23" y="1941.52"/><use xlink:href="#TBjXdvDDiD85WtxEkJOL_pad-29" x="3062.91" y="1941.52"/><use xlink:href="#TBjXdvDDiD85WtxEkJOL_pad-29" x="3082.6" y="1941.52"/><use xlink:href="#TBjXdvDDiD85WtxEkJOL_pad-29" x="3102.28" y="1941.52"/><use xlink:href="#TBjXdvDDiD85WtxEkJOL_pad-29" x="3121.97" y="1941.52"/><use xlink:href="#TBjXdvDDiD85WtxEkJOL_pad-29" x="3141.65" y="1941.52"/><use xlink:href="#TBjXdvDDiD85WtxEkJOL_pad-29" x="3141.65" y="1818.48"/><use xlink:href="#TBjXdvDDiD85WtxEkJOL_pad-29" x="3121.97" y="1818.48"/><use xlink:href="#TBjXdvDDiD85WtxEkJOL_pad-29" x="3102.28" y="1818.48"/><use xlink:href="#TBjXdvDDiD85WtxEkJOL_pad-29" x="3082.6" y="1818.48"/><use xlink:href="#TBjXdvDDiD85WtxEkJOL_pad-29" x="3062.91" y="1818.48"/><use xlink:href="#TBjXdvDDiD85WtxEkJOL_pad-29" x="3043.23" y="1818.48"/><use xlink:href="#TBjXdvDDiD85WtxEkJOL_pad-29" x="3023.54" y="1818.48"/><use xlink:href="#TBjXdvDDiD85WtxEkJOL_pad-29" x="3003.86" y="1818.48"/><use xlink:href="#TBjXdvDDiD85WtxEkJOL_pad-29" x="2984.17" y="1818.48"/><use xlink:href="#TBjXdvDDiD85WtxEkJOL_pad-29" x="2964.49" y="1818.48"/><use xlink:href="#TBjXdvDDiD85WtxEkJOL_pad-29" x="2964.49" y="1941.52"/><use xlink:href="#TBjXdvDDiD85WtxEkJOL_pad-30" x="3144.11" y="1909.53"/><use xlink:href="#TBjXdvDDiD85WtxEkJOL_pad-30" x="3144.11" y="1889.84"/><use xlink:href="#TBjXdvDDiD85WtxEkJOL_pad-30" x="3144.11" y="1870.16"/><use xlink:href="#TBjXdvDDiD85WtxEkJOL_pad-30" x="3144.11" y="1850.47"/><use xlink:href="#TBjXdvDDiD85WtxEkJOL_pad-30" x="2962.03" y="1850.47"/><use xlink:href="#TBjXdvDDiD85WtxEkJOL_pad-30" x="2962.03" y="1870.16"/><use xlink:href="#TBjXdvDDiD85WtxEkJOL_pad-30" x="2962.03" y="1889.84"/><use xlink:href="#TBjXdvDDiD85WtxEkJOL_pad-30" x="2962.03" y="1909.53"/><use xlink:href="#TBjXdvDDiD85WtxEkJOL_pad-31" x="1962" y="3135"/><use xlink:href="#TBjXdvDDiD85WtxEkJOL_pad-31" x="1962" y="3085"/><use xlink:href="#TBjXdvDDiD85WtxEkJOL_pad-31" x="1962" y="3035"/><use xlink:href="#TBjXdvDDiD85WtxEkJOL_pad-31" x="1962" y="2985"/><use xlink:href="#TBjXdvDDiD85WtxEkJOL_pad-31" x="1768" y="2985"/><use xlink:href="#TBjXdvDDiD85WtxEkJOL_pad-31" x="1768" y="3035"/><use xlink:href="#TBjXdvDDiD85WtxEkJOL_pad-31" x="1768" y="3085"/><use xlink:href="#TBjXdvDDiD85WtxEkJOL_pad-31" x="1768" y="3135"/><use xlink:href="#TBjXdvDDiD85WtxEkJOL_pad-32" x="2595" y="2870"/><use xlink:href="#TBjXdvDDiD85WtxEkJOL_pad-32" x="2535.94" y="2870"/><use xlink:href="#TBjXdvDDiD85WtxEkJOL_pad-51" x="1125" y="2760"/><use xlink:href="#TBjXdvDDiD85WtxEkJOL_pad-51" x="1185" y="1715"/><use xlink:href="#TBjXdvDDiD85WtxEkJOL_pad-51" x="3795" y="1125"/><use xlink:href="#TBjXdvDDiD85WtxEkJOL_pad-51" x="3810" y="3150"/><use xlink:href="#TBjXdvDDiD85WtxEkJOL_pad-51" x="1120" y="3008.7"/><use xlink:href="#TBjXdvDDiD85WtxEkJOL_pad-52" x="1125" y="2860"/><use xlink:href="#TBjXdvDDiD85WtxEkJOL_pad-52" x="1185" y="1615"/><use xlink:href="#TBjXdvDDiD85WtxEkJOL_pad-52" x="3795" y="1325"/><use xlink:href="#TBjXdvDDiD85WtxEkJOL_pad-52" x="3795" y="2025"/><use xlink:href="#TBjXdvDDiD85WtxEkJOL_pad-52" x="3795" y="1925"/><use xlink:href="#TBjXdvDDiD85WtxEkJOL_pad-52" x="3795" y="1825"/><use xlink:href="#TBjXdvDDiD85WtxEkJOL_pad-52" x="3795" y="1725"/><use xlink:href="#TBjXdvDDiD85WtxEkJOL_pad-52" x="3795" y="1625"/><use xlink:href="#TBjXdvDDiD85WtxEkJOL_pad-52" x="3795" y="1525"/><use xlink:href="#TBjXdvDDiD85WtxEkJOL_pad-52" x="3795" y="1425"/><use xlink:href="#TBjXdvDDiD85WtxEkJOL_pad-52" x="3795" y="1225"/><use xlink:href="#TBjXdvDDiD85WtxEkJOL_pad-52" x="2885" y="1125"/><use xlink:href="#TBjXdvDDiD85WtxEkJOL_pad-52" x="2985" y="1125"/><use xlink:href="#TBjXdvDDiD85WtxEkJOL_pad-52" x="3085" y="1125"/><use xlink:href="#TBjXdvDDiD85WtxEkJOL_pad-52" x="3185" y="1125"/><use xlink:href="#TBjXdvDDiD85WtxEkJOL_pad-52" x="3285" y="1125"/><use xlink:href="#TBjXdvDDiD85WtxEkJOL_pad-52" x="3385" y="1125"/><use xlink:href="#TBjXdvDDiD85WtxEkJOL_pad-52" x="3485" y="1125"/><use xlink:href="#TBjXdvDDiD85WtxEkJOL_pad-52" x="3810" y="3250"/><use xlink:href="#TBjXdvDDiD85WtxEkJOL_pad-52" x="3810" y="3350"/><use xlink:href="#TBjXdvDDiD85WtxEkJOL_pad-52" x="3810" y="3450"/><use xlink:href="#TBjXdvDDiD85WtxEkJOL_pad-52" x="3810" y="3550"/><use xlink:href="#TBjXdvDDiD85WtxEkJOL_pad-52" x="3430" y="3810"/><use xlink:href="#TBjXdvDDiD85WtxEkJOL_pad-52" x="3330" y="3810"/><use xlink:href="#TBjXdvDDiD85WtxEkJOL_pad-52" x="3230" y="3810"/><use xlink:href="#TBjXdvDDiD85WtxEkJOL_pad-52" x="1120" y="3108.7"/><use xlink:href="#TBjXdvDDiD85WtxEkJOL_pad-52" x="1120" y="3208.7"/><use xlink:href="#TBjXdvDDiD85WtxEkJOL_pad-52" x="1120" y="3308.7"/><use xlink:href="#TBjXdvDDiD85WtxEkJOL_pad-52" x="1120" y="3408.7"/><use xlink:href="#TBjXdvDDiD85WtxEkJOL_pad-52" x="1120" y="3508.7"/><use xlink:href="#TBjXdvDDiD85WtxEkJOL_pad-53" x="3585" y="1125"/><use xlink:href="#TBjXdvDDiD85WtxEkJOL_pad-53" x="3530" y="3810"/><use xlink:href="#TBjXdvDDiD85WtxEkJOL_pad-54" x="2993.74" y="2400"/><use xlink:href="#TBjXdvDDiD85WtxEkJOL_pad-54" x="3232.92" y="2317.92"/><use xlink:href="#TBjXdvDDiD85WtxEkJOL_pad-54" x="2906.92" y="2357.92"/><use xlink:href="#TBjXdvDDiD85WtxEkJOL_pad-54" x="2140.46" y="1682.13"/><use xlink:href="#TBjXdvDDiD85WtxEkJOL_pad-54" x="2845" y="1955"/><use xlink:href="#TBjXdvDDiD85WtxEkJOL_pad-54" x="2845" y="1855"/><use xlink:href="#TBjXdvDDiD85WtxEkJOL_pad-54" x="2950" y="2135"/><use xlink:href="#TBjXdvDDiD85WtxEkJOL_pad-54" x="3100" y="1995"/><use xlink:href="#TBjXdvDDiD85WtxEkJOL_pad-54" x="1962.13" y="2595"/><use xlink:href="#TBjXdvDDiD85WtxEkJOL_pad-54" x="2180" y="2782"/><use xlink:href="#TBjXdvDDiD85WtxEkJOL_pad-54" x="2257.99" y="2817.01"/><use xlink:href="#TBjXdvDDiD85WtxEkJOL_pad-54" x="1680" y="2430"/><use xlink:href="#TBjXdvDDiD85WtxEkJOL_pad-54" x="2140.46" y="2685.46"/><use xlink:href="#TBjXdvDDiD85WtxEkJOL_pad-54" x="2609.23" y="2405"/><use xlink:href="#TBjXdvDDiD85WtxEkJOL_pad-54" x="2535.94" y="2355.94"/><use xlink:href="#TBjXdvDDiD85WtxEkJOL_pad-54" x="2374.06" y="2470.94"/><use xlink:href="#TBjXdvDDiD85WtxEkJOL_pad-54" x="2559.56" y="2785"/><use xlink:href="#TBjXdvDDiD85WtxEkJOL_pad-54" x="2430" y="2350"/><use xlink:href="#TBjXdvDDiD85WtxEkJOL_pad-54" x="2864.84" y="2434.84"/><use xlink:href="#TBjXdvDDiD85WtxEkJOL_pad-54" x="2690" y="2232.16"/><use xlink:href="#TBjXdvDDiD85WtxEkJOL_pad-54" x="2643.82" y="2073.35"/><use xlink:href="#TBjXdvDDiD85WtxEkJOL_pad-54" x="2765" y="2244.57"/><use xlink:href="#TBjXdvDDiD85WtxEkJOL_pad-54" x="2265" y="2130"/><use xlink:href="#TBjXdvDDiD85WtxEkJOL_pad-54" x="2240" y="2075"/><use xlink:href="#TBjXdvDDiD85WtxEkJOL_pad-54" x="2230" y="2019.61"/><use xlink:href="#TBjXdvDDiD85WtxEkJOL_pad-54" x="2712.35" y="2095"/><use xlink:href="#TBjXdvDDiD85WtxEkJOL_pad-54" x="2811.54" y="2073.35"/><use xlink:href="#TBjXdvDDiD85WtxEkJOL_pad-54" x="2895" y="2095"/><use xlink:href="#TBjXdvDDiD85WtxEkJOL_pad-54" x="2813.23" y="2198.23"/><use xlink:href="#TBjXdvDDiD85WtxEkJOL_pad-54" x="2890" y="2165"/><use xlink:href="#TBjXdvDDiD85WtxEkJOL_pad-54" x="3340" y="2065"/><use xlink:href="#TBjXdvDDiD85WtxEkJOL_pad-54" x="3260" y="2100"/><use xlink:href="#TBjXdvDDiD85WtxEkJOL_pad-54" x="2025.97" y="2810"/><use xlink:href="#TBjXdvDDiD85WtxEkJOL_pad-54" x="2085" y="3012"/><use xlink:href="#TBjXdvDDiD85WtxEkJOL_pad-54" x="2400" y="1760"/><use xlink:href="#TBjXdvDDiD85WtxEkJOL_pad-54" x="1485" y="2635"/><use xlink:href="#TBjXdvDDiD85WtxEkJOL_pad-54" x="1591.57" y="2628.43"/><use xlink:href="#TBjXdvDDiD85WtxEkJOL_pad-54" x="2275" y="1800"/><use xlink:href="#TBjXdvDDiD85WtxEkJOL_pad-54" x="1415" y="2880"/><use xlink:href="#TBjXdvDDiD85WtxEkJOL_pad-54" x="1330" y="3305"/><use xlink:href="#TBjXdvDDiD85WtxEkJOL_pad-54" x="2190" y="2241.77"/><use xlink:href="#TBjXdvDDiD85WtxEkJOL_pad-54" x="1450" y="3408.7"/><use xlink:href="#TBjXdvDDiD85WtxEkJOL_pad-54" x="2145" y="2289.53"/><use xlink:href="#TBjXdvDDiD85WtxEkJOL_pad-54" x="2836.65" y="2699.79"/><use xlink:href="#TBjXdvDDiD85WtxEkJOL_pad-54" x="2920" y="2790"/><use xlink:href="#TBjXdvDDiD85WtxEkJOL_pad-54" x="2875" y="2835"/><use xlink:href="#TBjXdvDDiD85WtxEkJOL_pad-54" x="2800" y="2875"/><use xlink:href="#TBjXdvDDiD85WtxEkJOL_pad-54" x="1982.99" y="1850"/><use xlink:href="#TBjXdvDDiD85WtxEkJOL_pad-54" x="3470" y="1928.62"/><use xlink:href="#TBjXdvDDiD85WtxEkJOL_pad-54" x="3311.61" y="1966.61"/><use xlink:href="#TBjXdvDDiD85WtxEkJOL_pad-54" x="2455" y="2080"/><use xlink:href="#TBjXdvDDiD85WtxEkJOL_pad-54" x="1515" y="1780"/><use xlink:href="#TBjXdvDDiD85WtxEkJOL_pad-54" x="1460" y="1545"/><use xlink:href="#TBjXdvDDiD85WtxEkJOL_pad-54" x="2610.39" y="2029.61"/></g></svg>