<svg version="1.1" xmlns="http://www.w3.org/2000/svg" xmlns:xlink="http://www.w3.org/1999/xlink" stroke-linecap="round" stroke-linejoin="round" stroke-width="0" fill-rule="evenodd" width="2.95in" height="2.965in" viewBox="995 990 2950 2965" id="do9LOS5LoNMqRaIlOlx0"><defs><rect x="-33.53" y="-33.53" width="67.06" height="67.06" id="do9LOS5LoNMqRaIlOlx0_pad-47"/><circle cx="0" cy="0" r="33.53" id="do9LOS5LoNMqRaIlOlx0_pad-48"/><rect x="-33.53" y="-33.53" width="67.06" height="67.06" id="do9LOS5LoNMqRaIlOlx0_pad-49"/><circle cx="0" cy="0" r="29" id="do9LOS5LoNMqRaIlOlx0_pad-50"/></defs><g transform="translate(0,4945) scale(1,-1)" fill="currentColor" stroke="currentColor"><path d="M 1610.43 1695.24 1602.56 1695.24 1610.43 1695.24" fill="none" stroke-width="11.81"/><path d="M 1653.46 1596.5 1653.46 1714.61 M 1586.54 1596.5 1653.46 1596.5 M 1586.54 1596.5 1586.54 1714.61 1653.46 1714.61" fill="none" stroke-width="5"/><path d="M 3940 1005 3940 3940 M 3930 995 3940 1005 M 1010 995 3930 995 M 1000 1005 1010 995 M 1000 1005 1000 3945 1005 3950 3930 3950 3940 3940" fill="none" stroke-width="10"/><path d="M 1853 3158 1856.52 3149.51 1865 3146 1873.48 3149.51 1877 3158 M 1786 2962 1786 3158 1853 3158 1877 3158 1944 3158 M 1944 2962 1944 3158 M 1786 2962 1944 2962 M 1944 3145 1987 3145 M 1987 3125 1987 3145 M 1944 3125 1987 3125 M 1944 3125 1944 3145 M 1944 3095 1987 3095 M 1987 3075 1987 3095 M 1944 3075 1987 3075 M 1944 3075 1944 3095 M 1944 3045 1987 3045 M 1987 3025 1987 3045 M 1944 3025 1987 3025 M 1944 3025 1944 3045 M 1944 2995 1987 2995 M 1987 2975 1987 2995 M 1944 2975 1987 2975 M 1944 2975 1944 2995 M 1743 2975 1786 2975 M 1743 2975 1743 2995 1786 2995 M 1786 2975 1786 2995 M 1743 3025 1786 3025 M 1743 3025 1743 3045 1786 3045 M 1786 3025 1786 3045 M 1743 3075 1786 3075 M 1743 3075 1743 3095 1786 3095 M 1786 3075 1786 3095 M 1743 3125 1786 3125 M 1743 3125 1743 3145 1786 3145 M 1786 3125 1786 3145" fill="none" stroke-width="0"/><use xlink:href="#do9LOS5LoNMqRaIlOlx0_pad-47" x="1125" y="2760"/><use xlink:href="#do9LOS5LoNMqRaIlOlx0_pad-47" x="1185" y="1715"/><use xlink:href="#do9LOS5LoNMqRaIlOlx0_pad-47" x="3795" y="1125"/><use xlink:href="#do9LOS5LoNMqRaIlOlx0_pad-47" x="3810" y="3150"/><use xlink:href="#do9LOS5LoNMqRaIlOlx0_pad-47" x="1120" y="3008.7"/><use xlink:href="#do9LOS5LoNMqRaIlOlx0_pad-48" x="1125" y="2860"/><use xlink:href="#do9LOS5LoNMqRaIlOlx0_pad-48" x="1185" y="1615"/><use xlink:href="#do9LOS5LoNMqRaIlOlx0_pad-48" x="3795" y="1325"/><use xlink:href="#do9LOS5LoNMqRaIlOlx0_pad-48" x="3795" y="2025"/><use xlink:href="#do9LOS5LoNMqRaIlOlx0_pad-48" x="3795" y="1925"/><use xlink:href="#do9LOS5LoNMqRaIlOlx0_pad-48" x="3795" y="1825"/><use xlink:href="#do9LOS5LoNMqRaIlOlx0_pad-48" x="3795" y="1725"/><use xlink:href="#do9LOS5LoNMqRaIlOlx0_pad-48" x="3795" y="1625"/><use xlink:href="#do9LOS5LoNMqRaIlOlx0_pad-48" x="3795" y="1525"/><use xlink:href="#do9LOS5LoNMqRaIlOlx0_pad-48" x="3795" y="1425"/><use xlink:href="#do9LOS5LoNMqRaIlOlx0_pad-48" x="3795" y="1225"/><use xlink:href="#do9LOS5LoNMqRaIlOlx0_pad-48" x="2885" y="1125"/><use xlink:href="#do9LOS5LoNMqRaIlOlx0_pad-48" x="2985" y="1125"/><use xlink:href="#do9LOS5LoNMqRaIlOlx0_pad-48" x="3085" y="1125"/><use xlink:href="#do9LOS5LoNMqRaIlOlx0_pad-48" x="3185" y="1125"/><use xlink:href="#do9LOS5LoNMqRaIlOlx0_pad-48" x="3285" y="1125"/><use xlink:href="#do9LOS5LoNMqRaIlOlx0_pad-48" x="3385" y="1125"/><use xlink:href="#do9LOS5LoNMqRaIlOlx0_pad-48" x="3485" y="1125"/><use xlink:href="#do9LOS5LoNMqRaIlOlx0_pad-48" x="3810" y="3250"/><use xlink:href="#do9LOS5LoNMqRaIlOlx0_pad-48" x="3810" y="3350"/><use xlink:href="#do9LOS5LoNMqRaIlOlx0_pad-48" x="3810" y="3450"/><use xlink:href="#do9LOS5LoNMqRaIlOlx0_pad-48" x="3810" y="3550"/><use xlink:href="#do9LOS5LoNMqRaIlOlx0_pad-48" x="3430" y="3810"/><use xlink:href="#do9LOS5LoNMqRaIlOlx0_pad-48" x="3330" y="3810"/><use xlink:href="#do9LOS5LoNMqRaIlOlx0_pad-48" x="3230" y="3810"/><use xlink:href="#do9LOS5LoNMqRaIlOlx0_pad-48" x="1120" y="3108.7"/><use xlink:href="#do9LOS5LoNMqRaIlOlx0_pad-48" x="1120" y="3208.7"/><use xlink:href="#do9LOS5LoNMqRaIlOlx0_pad-48" x="1120" y="3308.7"/><use xlink:href="#do9LOS5LoNMqRaIlOlx0_pad-48" x="1120" y="3408.7"/><use xlink:href="#do9LOS5LoNMqRaIlOlx0_pad-48" x="1120" y="3508.7"/><use xlink:href="#do9LOS5LoNMqRaIlOlx0_pad-49" x="3585" y="1125"/><use xlink:href="#do9LOS5LoNMqRaIlOlx0_pad-49" x="3530" y="3810"/><use xlink:href="#do9LOS5LoNMqRaIlOlx0_pad-50" x="2993.74" y="2400"/><use xlink:href="#do9LOS5LoNMqRaIlOlx0_pad-50" x="3232.92" y="2317.92"/><use xlink:href="#do9LOS5LoNMqRaIlOlx0_pad-50" x="2906.92" y="2357.92"/><use xlink:href="#do9LOS5LoNMqRaIlOlx0_pad-50" x="2140.46" y="1682.13"/><use xlink:href="#do9LOS5LoNMqRaIlOlx0_pad-50" x="2845" y="1955"/><use xlink:href="#do9LOS5LoNMqRaIlOlx0_pad-50" x="2845" y="1855"/><use xlink:href="#do9LOS5LoNMqRaIlOlx0_pad-50" x="2950" y="2135"/><use xlink:href="#do9LOS5LoNMqRaIlOlx0_pad-50" x="3100" y="1995"/><use xlink:href="#do9LOS5LoNMqRaIlOlx0_pad-50" x="1962.13" y="2595"/><use xlink:href="#do9LOS5LoNMqRaIlOlx0_pad-50" x="2180" y="2782"/><use xlink:href="#do9LOS5LoNMqRaIlOlx0_pad-50" x="2257.99" y="2817.01"/><use xlink:href="#do9LOS5LoNMqRaIlOlx0_pad-50" x="1680" y="2430"/><use xlink:href="#do9LOS5LoNMqRaIlOlx0_pad-50" x="2140.46" y="2685.46"/><use xlink:href="#do9LOS5LoNMqRaIlOlx0_pad-50" x="2609.23" y="2405"/><use xlink:href="#do9LOS5LoNMqRaIlOlx0_pad-50" x="2535.94" y="2355.94"/><use xlink:href="#do9LOS5LoNMqRaIlOlx0_pad-50" x="2374.06" y="2470.94"/><use xlink:href="#do9LOS5LoNMqRaIlOlx0_pad-50" x="2559.56" y="2785"/><use xlink:href="#do9LOS5LoNMqRaIlOlx0_pad-50" x="2430" y="2350"/><use xlink:href="#do9LOS5LoNMqRaIlOlx0_pad-50" x="2864.84" y="2434.84"/><use xlink:href="#do9LOS5LoNMqRaIlOlx0_pad-50" x="2690" y="2232.16"/><use xlink:href="#do9LOS5LoNMqRaIlOlx0_pad-50" x="2643.82" y="2073.35"/><use xlink:href="#do9LOS5LoNMqRaIlOlx0_pad-50" x="2765" y="2244.57"/><use xlink:href="#do9LOS5LoNMqRaIlOlx0_pad-50" x="2265" y="2130"/><use xlink:href="#do9LOS5LoNMqRaIlOlx0_pad-50" x="2240" y="2075"/><use xlink:href="#do9LOS5LoNMqRaIlOlx0_pad-50" x="2230" y="2019.61"/><use xlink:href="#do9LOS5LoNMqRaIlOlx0_pad-50" x="2712.35" y="2095"/><use xlink:href="#do9LOS5LoNMqRaIlOlx0_pad-50" x="2811.54" y="2073.35"/><use xlink:href="#do9LOS5LoNMqRaIlOlx0_pad-50" x="2895" y="2095"/><use xlink:href="#do9LOS5LoNMqRaIlOlx0_pad-50" x="2813.23" y="2198.23"/><use xlink:href="#do9LOS5LoNMqRaIlOlx0_pad-50" x="2890" y="2165"/><use xlink:href="#do9LOS5LoNMqRaIlOlx0_pad-50" x="3340" y="2065"/><use xlink:href="#do9LOS5LoNMqRaIlOlx0_pad-50" x="3260" y="2100"/><use xlink:href="#do9LOS5LoNMqRaIlOlx0_pad-50" x="2025.97" y="2810"/><use xlink:href="#do9LOS5LoNMqRaIlOlx0_pad-50" x="2085" y="3012"/><use xlink:href="#do9LOS5LoNMqRaIlOlx0_pad-50" x="2400" y="1760"/><use xlink:href="#do9LOS5LoNMqRaIlOlx0_pad-50" x="1485" y="2635"/><use xlink:href="#do9LOS5LoNMqRaIlOlx0_pad-50" x="1591.57" y="2628.43"/><use xlink:href="#do9LOS5LoNMqRaIlOlx0_pad-50" x="2275" y="1800"/><use xlink:href="#do9LOS5LoNMqRaIlOlx0_pad-50" x="1415" y="2880"/><use xlink:href="#do9LOS5LoNMqRaIlOlx0_pad-50" x="1330" y="3305"/><use xlink:href="#do9LOS5LoNMqRaIlOlx0_pad-50" x="2190" y="2241.77"/><use xlink:href="#do9LOS5LoNMqRaIlOlx0_pad-50" x="1450" y="3408.7"/><use xlink:href="#do9LOS5LoNMqRaIlOlx0_pad-50" x="2145" y="2289.53"/><use xlink:href="#do9LOS5LoNMqRaIlOlx0_pad-50" x="2836.65" y="2699.79"/><use xlink:href="#do9LOS5LoNMqRaIlOlx0_pad-50" x="2920" y="2790"/><use xlink:href="#do9LOS5LoNMqRaIlOlx0_pad-50" x="2875" y="2835"/><use xlink:href="#do9LOS5LoNMqRaIlOlx0_pad-50" x="2800" y="2875"/><use xlink:href="#do9LOS5LoNMqRaIlOlx0_pad-50" x="1982.99" y="1850"/><use xlink:href="#do9LOS5LoNMqRaIlOlx0_pad-50" x="3470" y="1928.62"/><use xlink:href="#do9LOS5LoNMqRaIlOlx0_pad-50" x="3311.61" y="1966.61"/><use xlink:href="#do9LOS5LoNMqRaIlOlx0_pad-50" x="2455" y="2080"/><use xlink:href="#do9LOS5LoNMqRaIlOlx0_pad-50" x="1515" y="1780"/><use xlink:href="#do9LOS5LoNMqRaIlOlx0_pad-50" x="1460" y="1545"/><use xlink:href="#do9LOS5LoNMqRaIlOlx0_pad-50" x="2610.39" y="2029.61"/></g></svg>