<svg version="1.1" xmlns="http://www.w3.org/2000/svg" xmlns:xlink="http://www.w3.org/1999/xlink" stroke-linecap="round" stroke-linejoin="round" stroke-width="0" fill-rule="evenodd" width="2.95in" height="2.965in" viewBox="995 990 2950 2965" id="yz6oRql3ak_Ei9W42lfR"><g transform="translate(0,4945) scale(1,-1)" fill="currentColor" stroke="currentColor"><path d="M 1610.43 1695.24 1602.56 1695.24 1610.43 1695.24" fill="none" stroke-width="11.81"/><path d="M 1653.46 1596.5 1653.46 1714.61 M 1586.54 1596.5 1653.46 1596.5 M 1586.54 1596.5 1586.54 1714.61 1653.46 1714.61" fill="none" stroke-width="5"/><path d="M 3940 1005 3940 3940 M 3930 995 3940 1005 M 1010 995 3930 995 M 1000 1005 1010 995 M 1000 1005 1000 3945 1005 3950 3930 3950 3940 3940" fill="none" stroke-width="10"/><path d="M 1853 3158 1856.52 3149.51 1865 3146 1873.48 3149.51 1877 3158 M 1786 2962 1786 3158 1853 3158 1877 3158 1944 3158 M 1944 2962 1944 3158 M 1786 2962 1944 2962 M 1944 3145 1987 3145 M 1987 3125 1987 3145 M 1944 3125 1987 3125 M 1944 3125 1944 3145 M 1944 3095 1987 3095 M 1987 3075 1987 3095 M 1944 3075 1987 3075 M 1944 3075 1944 3095 M 1944 3045 1987 3045 M 1987 3025 1987 3045 M 1944 3025 1987 3025 M 1944 3025 1944 3045 M 1944 2995 1987 2995 M 1987 2975 1987 2995 M 1944 2975 1987 2975 M 1944 2975 1944 2995 M 1743 2975 1786 2975 M 1743 2975 1743 2995 1786 2995 M 1786 2975 1786 2995 M 1743 3025 1786 3025 M 1743 3025 1743 3045 1786 3045 M 1786 3025 1786 3045 M 1743 3075 1786 3075 M 1743 3075 1743 3095 1786 3095 M 1786 3075 1786 3095 M 1743 3125 1786 3125 M 1743 3125 1743 3145 1786 3145 M 1786 3125 1786 3145" fill="none" stroke-width="0"/></g></svg>