<svg version="1.1" xmlns="http://www.w3.org/2000/svg" xmlns:xlink="http://www.w3.org/1999/xlink" stroke-linecap="round" stroke-linejoin="round" stroke-width="0" fill-rule="evenodd" width="2.72743in" height="2.72244in" viewBox="3816.86 1106.28 2727.43 2722.44" id="XXXZRR0xvn1Ml8bE5mcB"><g transform="translate(0,4935) scale(1,-1)" fill="currentColor" stroke="currentColor"><path d="M 6538.29 2760 6502.86 2760 M 6520.58 2742.28 6520.58 2777.72 M 6538.29 2860 6502.86 2860 M 6520.58 2842.28 6520.58 2877.72 M 6478.29 1615 6442.86 1615 M 6460.58 1597.28 6460.58 1632.72 M 6478.29 1715 6442.86 1715 M 6460.58 1697.28 6460.58 1732.72 M 3868.29 1325 3832.86 1325 M 3850.58 1307.28 3850.58 1342.72 M 3868.29 2025 3832.86 2025 M 3850.58 2007.28 3850.58 2042.72 M 3868.29 1925 3832.86 1925 M 3850.58 1907.28 3850.58 1942.72 M 3868.29 1825 3832.86 1825 M 3850.58 1807.28 3850.58 1842.72 M 3868.29 1725 3832.86 1725 M 3850.58 1707.28 3850.58 1742.72 M 3868.29 1625 3832.86 1625 M 3850.58 1607.28 3850.58 1642.72 M 3868.29 1525 3832.86 1525 M 3850.58 1507.28 3850.58 1542.72 M 3868.29 1425 3832.86 1425 M 3850.58 1407.28 3850.58 1442.72 M 3868.29 1225 3832.86 1225 M 3850.58 1207.28 3850.58 1242.72 M 3868.29 1125 3832.86 1125 M 3850.58 1107.28 3850.58 1142.72 M 4778.29 1125 4742.86 1125 M 4760.58 1107.28 4760.58 1142.72 M 4678.29 1125 4642.86 1125 M 4660.58 1107.28 4660.58 1142.72 M 4578.29 1125 4542.86 1125 M 4560.58 1107.28 4560.58 1142.72 M 4478.29 1125 4442.86 1125 M 4460.58 1107.28 4460.58 1142.72 M 4378.29 1125 4342.86 1125 M 4360.58 1107.28 4360.58 1142.72 M 4278.29 1125 4242.86 1125 M 4260.58 1107.28 4260.58 1142.72 M 4178.29 1125 4142.86 1125 M 4160.58 1107.28 4160.58 1142.72 M 4078.29 1125 4042.86 1125 M 4060.58 1107.28 4060.58 1142.72 M 3853.29 3150 3817.86 3150 M 3835.58 3132.28 3835.58 3167.72 M 3853.29 3250 3817.86 3250 M 3835.58 3232.28 3835.58 3267.72 M 3853.29 3350 3817.86 3350 M 3835.58 3332.28 3835.58 3367.72 M 3853.29 3450 3817.86 3450 M 3835.58 3432.28 3835.58 3467.72 M 3853.29 3550 3817.86 3550 M 3835.58 3532.28 3835.58 3567.72 M 4133.29 3810 4097.86 3810 M 4115.58 3792.28 4115.58 3827.72 M 4233.29 3810 4197.86 3810 M 4215.58 3792.28 4215.58 3827.72 M 4333.29 3810 4297.86 3810 M 4315.58 3792.28 4315.58 3827.72 M 4433.29 3810 4397.86 3810 M 4415.58 3792.28 4415.58 3827.72 M 6543.29 3008.7 6507.86 3008.7 M 6525.58 2990.98 6525.58 3026.42 M 6543.29 3108.7 6507.86 3108.7 M 6525.58 3090.98 6525.58 3126.42 M 6543.29 3208.7 6507.86 3208.7 M 6525.58 3190.98 6525.58 3226.42 M 6543.29 3308.7 6507.86 3308.7 M 6525.58 3290.98 6525.58 3326.42 M 6543.29 3408.7 6507.86 3408.7 M 6525.58 3390.98 6525.58 3426.42 M 6543.29 3508.7 6507.86 3508.7 M 6525.58 3490.98 6525.58 3526.42 M 4665.84 2400 4637.84 2400 M 4651.84 2386 4651.84 2414 M 4426.66 2317.92 4398.66 2317.92 M 4412.66 2303.92 4412.66 2331.92 M 4752.66 2357.92 4724.66 2357.92 M 4738.66 2343.92 4738.66 2371.92 M 5519.12 1682.13 5491.12 1682.13 M 5505.12 1668.13 5505.12 1696.13 M 4814.58 1955 4786.58 1955 M 4800.58 1941 4800.58 1969 M 4814.58 1855 4786.58 1855 M 4800.58 1841 4800.58 1869 M 4709.58 2135 4681.58 2135 M 4695.58 2121 4695.58 2149 M 4559.58 1995 4531.58 1995 M 4545.58 1981 4545.58 2009 M 5697.45 2595 5669.45 2595 M 5683.45 2581 5683.45 2609 M 5479.58 2782 5451.58 2782 M 5465.58 2768 5465.58 2796 M 5401.58 2817.01 5373.58 2817.01 M 5387.58 2803.01 5387.58 2831.01 M 5979.58 2430 5951.58 2430 M 5965.58 2416 5965.58 2444 M 5519.12 2685.46 5491.12 2685.46 M 5505.12 2671.46 5505.12 2699.46 M 5050.35 2405 5022.35 2405 M 5036.35 2391 5036.35 2419 M 5123.63 2355.94 5095.63 2355.94 M 5109.63 2341.94 5109.63 2369.94 M 5285.52 2470.94 5257.52 2470.94 M 5271.52 2456.94 5271.52 2484.94 M 5100.01 2785 5072.01 2785 M 5086.01 2771 5086.01 2799 M 5229.58 2350 5201.58 2350 M 5215.58 2336 5215.58 2364 M 4794.73 2434.84 4766.73 2434.84 M 4780.73 2420.84 4780.73 2448.84 M 4969.58 2232.16 4941.58 2232.16 M 4955.58 2218.16 4955.58 2246.16 M 5015.76 2073.35 4987.76 2073.35 M 5001.76 2059.35 5001.76 2087.35 M 4894.58 2244.57 4866.58 2244.57 M 4880.58 2230.57 4880.58 2258.57 M 5394.58 2130 5366.58 2130 M 5380.58 2116 5380.58 2144 M 5419.58 2075 5391.58 2075 M 5405.58 2061 5405.58 2089 M 5429.58 2019.61 5401.58 2019.61 M 5415.58 2005.61 5415.58 2033.61 M 4947.23 2095 4919.23 2095 M 4933.23 2081 4933.23 2109 M 4848.04 2073.35 4820.04 2073.35 M 4834.04 2059.35 4834.04 2087.35 M 4764.58 2095 4736.58 2095 M 4750.58 2081 4750.58 2109 M 4846.35 2198.23 4818.35 2198.23 M 4832.35 2184.23 4832.35 2212.23 M 4769.58 2165 4741.58 2165 M 4755.58 2151 4755.58 2179 M 4319.58 2065 4291.58 2065 M 4305.58 2051 4305.58 2079 M 4399.58 2100 4371.58 2100 M 4385.58 2086 4385.58 2114 M 5633.6 2810 5605.6 2810 M 5619.6 2796 5619.6 2824 M 5574.58 3012 5546.58 3012 M 5560.58 2998 5560.58 3026 M 5259.58 1760 5231.58 1760 M 5245.58 1746 5245.58 1774 M 6174.58 2635 6146.58 2635 M 6160.58 2621 6160.58 2649 M 6068 2628.43 6040 2628.43 M 6054 2614.43 6054 2642.43 M 5384.58 1800 5356.58 1800 M 5370.58 1786 5370.58 1814 M 6244.58 2880 6216.58 2880 M 6230.58 2866 6230.58 2894 M 6329.58 3305 6301.58 3305 M 6315.58 3291 6315.58 3319 M 5469.58 2241.77 5441.58 2241.77 M 5455.58 2227.77 5455.58 2255.77 M 6209.58 3408.7 6181.58 3408.7 M 6195.58 3394.7 6195.58 3422.7 M 5514.58 2289.53 5486.58 2289.53 M 5500.58 2275.53 5500.58 2303.53 M 4822.92 2699.79 4794.92 2699.79 M 4808.92 2685.79 4808.92 2713.79 M 4739.58 2790 4711.58 2790 M 4725.58 2776 4725.58 2804 M 4784.58 2835 4756.58 2835 M 4770.58 2821 4770.58 2849 M 4859.58 2875 4831.58 2875 M 4845.58 2861 4845.58 2889 M 5676.58 1850 5648.58 1850 M 5662.58 1836 5662.58 1864 M 4189.58 1928.62 4161.58 1928.62 M 4175.58 1914.62 4175.58 1942.62 M 4347.96 1966.61 4319.96 1966.61 M 4333.96 1952.61 4333.96 1980.61 M 5204.58 2080 5176.58 2080 M 5190.58 2066 5190.58 2094 M 6144.58 1780 6116.58 1780 M 6130.58 1766 6130.58 1794 M 6199.58 1545 6171.58 1545 M 6185.58 1531 6185.58 1559 M 5049.18 2029.61 5021.18 2029.61 M 5035.18 2015.61 5035.18 2043.61" fill="none" stroke-width="2"/></g></svg>