<svg version="1.1" xmlns="http://www.w3.org/2000/svg" xmlns:xlink="http://www.w3.org/1999/xlink" stroke-linecap="round" stroke-linejoin="round" stroke-width="0" fill-rule="evenodd" width="2.95in" height="2.965in" viewBox="995 990 2950 2965" id="OxDZi1QSqiCftpOR2_9I"><defs><rect x="-21.715" y="-17.78" width="43.43" height="35.56" id="OxDZi1QSqiCftpOR2_9I_pad-33"/><rect x="-13.845" y="-10.89" width="27.69" height="21.78" id="OxDZi1QSqiCftpOR2_9I_pad-34"/><rect x="-19.75" y="-21.715" width="39.5" height="43.43" id="OxDZi1QSqiCftpOR2_9I_pad-35"/><rect x="-31.56" y="-27.62" width="63.12" height="55.24" id="OxDZi1QSqiCftpOR2_9I_pad-36"/><rect x="-17.78" y="-21.715" width="35.56" height="43.43" id="OxDZi1QSqiCftpOR2_9I_pad-37"/><rect x="-39.435" y="-9.905" width="78.87" height="19.81" rx="9.905" ry="9.905" id="OxDZi1QSqiCftpOR2_9I_pad-38"/><rect x="-9.905" y="-39.435" width="19.81" height="78.87" rx="9.905" ry="9.905" id="OxDZi1QSqiCftpOR2_9I_pad-39"/><rect x="-21.715" y="-19.75" width="43.43" height="39.5" id="OxDZi1QSqiCftpOR2_9I_pad-40"/><rect x="-31.56" y="-25.655" width="63.12" height="51.31" id="OxDZi1QSqiCftpOR2_9I_pad-41"/><rect x="-31.36" y="-15.42" width="62.72" height="30.84" id="OxDZi1QSqiCftpOR2_9I_pad-42"/><rect x="-9.905" y="-14.335" width="19.81" height="28.67" id="OxDZi1QSqiCftpOR2_9I_pad-43"/><rect x="-12.365" y="-9.905" width="24.73" height="19.81" id="OxDZi1QSqiCftpOR2_9I_pad-44"/><rect x="-43" y="-15" width="86" height="30" id="OxDZi1QSqiCftpOR2_9I_pad-45"/><rect x="-25.655" y="-31.56" width="51.31" height="63.12" id="OxDZi1QSqiCftpOR2_9I_pad-46"/><rect x="-33.53" y="-33.53" width="67.06" height="67.06" id="OxDZi1QSqiCftpOR2_9I_pad-47"/><circle cx="0" cy="0" r="33.53" id="OxDZi1QSqiCftpOR2_9I_pad-48"/><rect x="-33.53" y="-33.53" width="67.06" height="67.06" id="OxDZi1QSqiCftpOR2_9I_pad-49"/><circle cx="0" cy="0" r="29" id="OxDZi1QSqiCftpOR2_9I_pad-50"/></defs><g transform="translate(0,4945) scale(1,-1)" fill="currentColor" stroke="currentColor"><path d="M 1610.43 1695.24 1602.56 1695.24 1610.43 1695.24" fill="none" stroke-width="11.81"/><path d="M 1653.46 1596.5 1653.46 1714.61 M 1586.54 1596.5 1653.46 1596.5 M 1586.54 1596.5 1586.54 1714.61 1653.46 1714.61" fill="none" stroke-width="5"/><path d="M 3940 1005 3940 3940 M 3930 995 3940 1005 M 1010 995 3930 995 M 1000 1005 1010 995 M 1000 1005 1000 3945 1005 3950 3930 3950 3940 3940" fill="none" stroke-width="10"/><path d="M 1853 3158 1856.52 3149.51 1865 3146 1873.48 3149.51 1877 3158 M 1786 2962 1786 3158 1853 3158 1877 3158 1944 3158 M 1944 2962 1944 3158 M 1786 2962 1944 2962 M 1944 3145 1987 3145 M 1987 3125 1987 3145 M 1944 3125 1987 3125 M 1944 3125 1944 3145 M 1944 3095 1987 3095 M 1987 3075 1987 3095 M 1944 3075 1987 3075 M 1944 3075 1944 3095 M 1944 3045 1987 3045 M 1987 3025 1987 3045 M 1944 3025 1987 3025 M 1944 3025 1944 3045 M 1944 2995 1987 2995 M 1987 2975 1987 2995 M 1944 2975 1987 2975 M 1944 2975 1944 2995 M 1743 2975 1786 2975 M 1743 2975 1743 2995 1786 2995 M 1786 2975 1786 2995 M 1743 3025 1786 3025 M 1743 3025 1743 3045 1786 3045 M 1786 3025 1786 3045 M 1743 3075 1786 3075 M 1743 3075 1743 3095 1786 3095 M 1786 3075 1786 3095 M 1743 3125 1786 3125 M 1743 3125 1743 3145 1786 3145 M 1786 3125 1786 3145" fill="none" stroke-width="0"/><use xlink:href="#OxDZi1QSqiCftpOR2_9I_pad-33" x="3125" y="2418.39"/><use xlink:href="#OxDZi1QSqiCftpOR2_9I_pad-33" x="3125" y="2477.44"/><use xlink:href="#OxDZi1QSqiCftpOR2_9I_pad-33" x="3520" y="2521.34"/><use xlink:href="#OxDZi1QSqiCftpOR2_9I_pad-33" x="3520" y="2462.28"/><use xlink:href="#OxDZi1QSqiCftpOR2_9I_pad-33" x="2968.43" y="3185.47"/><use xlink:href="#OxDZi1QSqiCftpOR2_9I_pad-33" x="2968.43" y="3244.53"/><use xlink:href="#OxDZi1QSqiCftpOR2_9I_pad-33" x="2815" y="3190"/><use xlink:href="#OxDZi1QSqiCftpOR2_9I_pad-33" x="2815" y="3249.06"/><use xlink:href="#OxDZi1QSqiCftpOR2_9I_pad-33" x="2655" y="3190"/><use xlink:href="#OxDZi1QSqiCftpOR2_9I_pad-33" x="2655" y="3249.06"/><use xlink:href="#OxDZi1QSqiCftpOR2_9I_pad-33" x="2496.18" y="3190"/><use xlink:href="#OxDZi1QSqiCftpOR2_9I_pad-33" x="2496.18" y="3249.06"/><use xlink:href="#OxDZi1QSqiCftpOR2_9I_pad-33" x="2334.76" y="3185.47"/><use xlink:href="#OxDZi1QSqiCftpOR2_9I_pad-33" x="2334.76" y="3244.53"/><use xlink:href="#OxDZi1QSqiCftpOR2_9I_pad-33" x="2685" y="2030"/><use xlink:href="#OxDZi1QSqiCftpOR2_9I_pad-33" x="2685" y="1970.94"/><use xlink:href="#OxDZi1QSqiCftpOR2_9I_pad-33" x="2540" y="2029.61"/><use xlink:href="#OxDZi1QSqiCftpOR2_9I_pad-33" x="2540" y="1970.55"/><use xlink:href="#OxDZi1QSqiCftpOR2_9I_pad-33" x="3335" y="1840.63"/><use xlink:href="#OxDZi1QSqiCftpOR2_9I_pad-33" x="3335" y="1899.68"/><use xlink:href="#OxDZi1QSqiCftpOR2_9I_pad-33" x="2077.72" y="2370.47"/><use xlink:href="#OxDZi1QSqiCftpOR2_9I_pad-33" x="2077.72" y="2429.53"/><use xlink:href="#OxDZi1QSqiCftpOR2_9I_pad-33" x="2077.72" y="2215.94"/><use xlink:href="#OxDZi1QSqiCftpOR2_9I_pad-33" x="2077.72" y="2275"/><use xlink:href="#OxDZi1QSqiCftpOR2_9I_pad-34" x="3322.99" y="2475.08"/><use xlink:href="#OxDZi1QSqiCftpOR2_9I_pad-34" x="3260" y="2475.08"/><use xlink:href="#OxDZi1QSqiCftpOR2_9I_pad-34" x="3322.99" y="2449.49"/><use xlink:href="#OxDZi1QSqiCftpOR2_9I_pad-34" x="3260" y="2449.49"/><use xlink:href="#OxDZi1QSqiCftpOR2_9I_pad-34" x="3260" y="2500.67"/><use xlink:href="#OxDZi1QSqiCftpOR2_9I_pad-34" x="3322.99" y="2500.67"/><use xlink:href="#OxDZi1QSqiCftpOR2_9I_pad-34" x="3322.99" y="2423.9"/><use xlink:href="#OxDZi1QSqiCftpOR2_9I_pad-34" x="3260" y="2423.9"/><use xlink:href="#OxDZi1QSqiCftpOR2_9I_pad-35" x="3261.18" y="2680"/><use xlink:href="#OxDZi1QSqiCftpOR2_9I_pad-35" x="3316.3" y="2680"/><use xlink:href="#OxDZi1QSqiCftpOR2_9I_pad-35" x="2344.88" y="2095"/><use xlink:href="#OxDZi1QSqiCftpOR2_9I_pad-35" x="2400" y="2095"/><use xlink:href="#OxDZi1QSqiCftpOR2_9I_pad-35" x="3025" y="1710"/><use xlink:href="#OxDZi1QSqiCftpOR2_9I_pad-35" x="2969.88" y="1710"/><use xlink:href="#OxDZi1QSqiCftpOR2_9I_pad-35" x="2984.88" y="2050"/><use xlink:href="#OxDZi1QSqiCftpOR2_9I_pad-35" x="3040" y="2050"/><use xlink:href="#OxDZi1QSqiCftpOR2_9I_pad-36" x="2968.43" y="3495"/><use xlink:href="#OxDZi1QSqiCftpOR2_9I_pad-36" x="2968.43" y="3424.13"/><use xlink:href="#OxDZi1QSqiCftpOR2_9I_pad-36" x="2820" y="3495"/><use xlink:href="#OxDZi1QSqiCftpOR2_9I_pad-36" x="2820" y="3424.13"/><use xlink:href="#OxDZi1QSqiCftpOR2_9I_pad-36" x="2655" y="3495"/><use xlink:href="#OxDZi1QSqiCftpOR2_9I_pad-36" x="2655" y="3424.13"/><use xlink:href="#OxDZi1QSqiCftpOR2_9I_pad-36" x="2496.18" y="3495.43"/><use xlink:href="#OxDZi1QSqiCftpOR2_9I_pad-36" x="2496.18" y="3424.57"/><use xlink:href="#OxDZi1QSqiCftpOR2_9I_pad-36" x="2330" y="3495"/><use xlink:href="#OxDZi1QSqiCftpOR2_9I_pad-36" x="2330" y="3424.13"/><use xlink:href="#OxDZi1QSqiCftpOR2_9I_pad-37" x="2095" y="2560"/><use xlink:href="#OxDZi1QSqiCftpOR2_9I_pad-37" x="2035.94" y="2560"/><use xlink:href="#OxDZi1QSqiCftpOR2_9I_pad-37" x="1564.06" y="1500"/><use xlink:href="#OxDZi1QSqiCftpOR2_9I_pad-37" x="1505" y="1500"/><use xlink:href="#OxDZi1QSqiCftpOR2_9I_pad-37" x="2180" y="3060"/><use xlink:href="#OxDZi1QSqiCftpOR2_9I_pad-37" x="2120.94" y="3060"/><use xlink:href="#OxDZi1QSqiCftpOR2_9I_pad-37" x="2180" y="2962"/><use xlink:href="#OxDZi1QSqiCftpOR2_9I_pad-37" x="2120.94" y="2962"/><use xlink:href="#OxDZi1QSqiCftpOR2_9I_pad-37" x="1605" y="2978.54"/><use xlink:href="#OxDZi1QSqiCftpOR2_9I_pad-37" x="1545.94" y="2978.54"/><use xlink:href="#OxDZi1QSqiCftpOR2_9I_pad-37" x="1604.06" y="3085"/><use xlink:href="#OxDZi1QSqiCftpOR2_9I_pad-37" x="1545" y="3085"/><use xlink:href="#OxDZi1QSqiCftpOR2_9I_pad-37" x="1604.53" y="3190"/><use xlink:href="#OxDZi1QSqiCftpOR2_9I_pad-37" x="1545.47" y="3190"/><use xlink:href="#OxDZi1QSqiCftpOR2_9I_pad-38" x="2257.99" y="2628.43"/><use xlink:href="#OxDZi1QSqiCftpOR2_9I_pad-38" x="2257.99" y="2608.74"/><use xlink:href="#OxDZi1QSqiCftpOR2_9I_pad-38" x="2257.99" y="2589.06"/><use xlink:href="#OxDZi1QSqiCftpOR2_9I_pad-38" x="2257.99" y="2569.37"/><use xlink:href="#OxDZi1QSqiCftpOR2_9I_pad-38" x="2257.99" y="2549.69"/><use xlink:href="#OxDZi1QSqiCftpOR2_9I_pad-38" x="2257.99" y="2530"/><use xlink:href="#OxDZi1QSqiCftpOR2_9I_pad-38" x="2257.99" y="2510.31"/><use xlink:href="#OxDZi1QSqiCftpOR2_9I_pad-38" x="2257.99" y="2490.63"/><use xlink:href="#OxDZi1QSqiCftpOR2_9I_pad-38" x="2257.99" y="2470.94"/><use xlink:href="#OxDZi1QSqiCftpOR2_9I_pad-38" x="2257.99" y="2451.26"/><use xlink:href="#OxDZi1QSqiCftpOR2_9I_pad-38" x="2257.99" y="2431.57"/><use xlink:href="#OxDZi1QSqiCftpOR2_9I_pad-38" x="2257.99" y="2411.89"/><use xlink:href="#OxDZi1QSqiCftpOR2_9I_pad-38" x="2257.99" y="2392.2"/><use xlink:href="#OxDZi1QSqiCftpOR2_9I_pad-38" x="2257.99" y="2372.52"/><use xlink:href="#OxDZi1QSqiCftpOR2_9I_pad-38" x="2257.99" y="2352.83"/><use xlink:href="#OxDZi1QSqiCftpOR2_9I_pad-38" x="2257.99" y="2333.15"/><use xlink:href="#OxDZi1QSqiCftpOR2_9I_pad-38" x="2695" y="2333.15"/><use xlink:href="#OxDZi1QSqiCftpOR2_9I_pad-38" x="2695" y="2352.83"/><use xlink:href="#OxDZi1QSqiCftpOR2_9I_pad-38" x="2695" y="2372.52"/><use xlink:href="#OxDZi1QSqiCftpOR2_9I_pad-38" x="2695" y="2392.2"/><use xlink:href="#OxDZi1QSqiCftpOR2_9I_pad-38" x="2695" y="2411.89"/><use xlink:href="#OxDZi1QSqiCftpOR2_9I_pad-38" x="2695" y="2431.57"/><use xlink:href="#OxDZi1QSqiCftpOR2_9I_pad-38" x="2695" y="2451.26"/><use xlink:href="#OxDZi1QSqiCftpOR2_9I_pad-38" x="2695" y="2470.94"/><use xlink:href="#OxDZi1QSqiCftpOR2_9I_pad-38" x="2695" y="2490.63"/><use xlink:href="#OxDZi1QSqiCftpOR2_9I_pad-38" x="2695" y="2510.31"/><use xlink:href="#OxDZi1QSqiCftpOR2_9I_pad-38" x="2695" y="2530"/><use xlink:href="#OxDZi1QSqiCftpOR2_9I_pad-38" x="2695" y="2549.69"/><use xlink:href="#OxDZi1QSqiCftpOR2_9I_pad-38" x="2695" y="2569.37"/><use xlink:href="#OxDZi1QSqiCftpOR2_9I_pad-38" x="2695" y="2589.06"/><use xlink:href="#OxDZi1QSqiCftpOR2_9I_pad-38" x="2695" y="2608.74"/><use xlink:href="#OxDZi1QSqiCftpOR2_9I_pad-38" x="2695" y="2628.43"/><use xlink:href="#OxDZi1QSqiCftpOR2_9I_pad-39" x="2328.86" y="2262.28"/><use xlink:href="#OxDZi1QSqiCftpOR2_9I_pad-39" x="2348.54" y="2262.28"/><use xlink:href="#OxDZi1QSqiCftpOR2_9I_pad-39" x="2368.23" y="2262.28"/><use xlink:href="#OxDZi1QSqiCftpOR2_9I_pad-39" x="2387.91" y="2262.28"/><use xlink:href="#OxDZi1QSqiCftpOR2_9I_pad-39" x="2407.6" y="2262.28"/><use xlink:href="#OxDZi1QSqiCftpOR2_9I_pad-39" x="2427.28" y="2262.28"/><use xlink:href="#OxDZi1QSqiCftpOR2_9I_pad-39" x="2446.97" y="2262.28"/><use xlink:href="#OxDZi1QSqiCftpOR2_9I_pad-39" x="2466.65" y="2262.28"/><use xlink:href="#OxDZi1QSqiCftpOR2_9I_pad-39" x="2486.34" y="2262.28"/><use xlink:href="#OxDZi1QSqiCftpOR2_9I_pad-39" x="2506.02" y="2262.28"/><use xlink:href="#OxDZi1QSqiCftpOR2_9I_pad-39" x="2525.71" y="2262.28"/><use xlink:href="#OxDZi1QSqiCftpOR2_9I_pad-39" x="2545.39" y="2262.28"/><use xlink:href="#OxDZi1QSqiCftpOR2_9I_pad-39" x="2565.08" y="2262.28"/><use xlink:href="#OxDZi1QSqiCftpOR2_9I_pad-39" x="2584.76" y="2262.28"/><use xlink:href="#OxDZi1QSqiCftpOR2_9I_pad-39" x="2604.45" y="2262.28"/><use xlink:href="#OxDZi1QSqiCftpOR2_9I_pad-39" x="2624.13" y="2262.28"/><use xlink:href="#OxDZi1QSqiCftpOR2_9I_pad-39" x="2624.13" y="2699.29"/><use xlink:href="#OxDZi1QSqiCftpOR2_9I_pad-39" x="2604.45" y="2699.29"/><use xlink:href="#OxDZi1QSqiCftpOR2_9I_pad-39" x="2584.76" y="2699.29"/><use xlink:href="#OxDZi1QSqiCftpOR2_9I_pad-39" x="2565.08" y="2699.29"/><use xlink:href="#OxDZi1QSqiCftpOR2_9I_pad-39" x="2545.39" y="2699.29"/><use xlink:href="#OxDZi1QSqiCftpOR2_9I_pad-39" x="2525.71" y="2699.29"/><use xlink:href="#OxDZi1QSqiCftpOR2_9I_pad-39" x="2506.02" y="2699.29"/><use xlink:href="#OxDZi1QSqiCftpOR2_9I_pad-39" x="2486.34" y="2699.29"/><use xlink:href="#OxDZi1QSqiCftpOR2_9I_pad-39" x="2466.65" y="2699.29"/><use xlink:href="#OxDZi1QSqiCftpOR2_9I_pad-39" x="2446.97" y="2699.29"/><use xlink:href="#OxDZi1QSqiCftpOR2_9I_pad-39" x="2427.28" y="2699.29"/><use xlink:href="#OxDZi1QSqiCftpOR2_9I_pad-39" x="2407.6" y="2699.29"/><use xlink:href="#OxDZi1QSqiCftpOR2_9I_pad-39" x="2387.91" y="2699.29"/><use xlink:href="#OxDZi1QSqiCftpOR2_9I_pad-39" x="2368.23" y="2699.29"/><use xlink:href="#OxDZi1QSqiCftpOR2_9I_pad-39" x="2348.54" y="2699.29"/><use xlink:href="#OxDZi1QSqiCftpOR2_9I_pad-39" x="2328.86" y="2699.29"/><use xlink:href="#OxDZi1QSqiCftpOR2_9I_pad-40" x="1980" y="1690"/><use xlink:href="#OxDZi1QSqiCftpOR2_9I_pad-40" x="1980" y="1634.88"/><use xlink:href="#OxDZi1QSqiCftpOR2_9I_pad-40" x="1965" y="2217.01"/><use xlink:href="#OxDZi1QSqiCftpOR2_9I_pad-40" x="1965" y="2272.13"/><use xlink:href="#OxDZi1QSqiCftpOR2_9I_pad-41" x="1835" y="1685.08"/><use xlink:href="#OxDZi1QSqiCftpOR2_9I_pad-41" x="1835" y="1626.02"/><use xlink:href="#OxDZi1QSqiCftpOR2_9I_pad-41" x="1375" y="1699.53"/><use xlink:href="#OxDZi1QSqiCftpOR2_9I_pad-41" x="1375" y="1640.47"/><use xlink:href="#OxDZi1QSqiCftpOR2_9I_pad-42" x="1665.87" y="1692.95"/><use xlink:href="#OxDZi1QSqiCftpOR2_9I_pad-42" x="1665.87" y="1618.15"/><use xlink:href="#OxDZi1QSqiCftpOR2_9I_pad-42" x="1574.13" y="1618.15"/><use xlink:href="#OxDZi1QSqiCftpOR2_9I_pad-42" x="1574.13" y="1655.55"/><use xlink:href="#OxDZi1QSqiCftpOR2_9I_pad-42" x="1574.13" y="1692.95"/><use xlink:href="#OxDZi1QSqiCftpOR2_9I_pad-43" x="2984.17" y="1941.52"/><use xlink:href="#OxDZi1QSqiCftpOR2_9I_pad-43" x="3003.86" y="1941.52"/><use xlink:href="#OxDZi1QSqiCftpOR2_9I_pad-43" x="3023.54" y="1941.52"/><use xlink:href="#OxDZi1QSqiCftpOR2_9I_pad-43" x="3043.23" y="1941.52"/><use xlink:href="#OxDZi1QSqiCftpOR2_9I_pad-43" x="3062.91" y="1941.52"/><use xlink:href="#OxDZi1QSqiCftpOR2_9I_pad-43" x="3082.6" y="1941.52"/><use xlink:href="#OxDZi1QSqiCftpOR2_9I_pad-43" x="3102.28" y="1941.52"/><use xlink:href="#OxDZi1QSqiCftpOR2_9I_pad-43" x="3121.97" y="1941.52"/><use xlink:href="#OxDZi1QSqiCftpOR2_9I_pad-43" x="3141.65" y="1941.52"/><use xlink:href="#OxDZi1QSqiCftpOR2_9I_pad-43" x="3141.65" y="1818.48"/><use xlink:href="#OxDZi1QSqiCftpOR2_9I_pad-43" x="3121.97" y="1818.48"/><use xlink:href="#OxDZi1QSqiCftpOR2_9I_pad-43" x="3102.28" y="1818.48"/><use xlink:href="#OxDZi1QSqiCftpOR2_9I_pad-43" x="3082.6" y="1818.48"/><use xlink:href="#OxDZi1QSqiCftpOR2_9I_pad-43" x="3062.91" y="1818.48"/><use xlink:href="#OxDZi1QSqiCftpOR2_9I_pad-43" x="3043.23" y="1818.48"/><use xlink:href="#OxDZi1QSqiCftpOR2_9I_pad-43" x="3023.54" y="1818.48"/><use xlink:href="#OxDZi1QSqiCftpOR2_9I_pad-43" x="3003.86" y="1818.48"/><use xlink:href="#OxDZi1QSqiCftpOR2_9I_pad-43" x="2984.17" y="1818.48"/><use xlink:href="#OxDZi1QSqiCftpOR2_9I_pad-43" x="2964.49" y="1818.48"/><use xlink:href="#OxDZi1QSqiCftpOR2_9I_pad-43" x="2964.49" y="1941.52"/><use xlink:href="#OxDZi1QSqiCftpOR2_9I_pad-44" x="3144.11" y="1909.53"/><use xlink:href="#OxDZi1QSqiCftpOR2_9I_pad-44" x="3144.11" y="1889.84"/><use xlink:href="#OxDZi1QSqiCftpOR2_9I_pad-44" x="3144.11" y="1870.16"/><use xlink:href="#OxDZi1QSqiCftpOR2_9I_pad-44" x="3144.11" y="1850.47"/><use xlink:href="#OxDZi1QSqiCftpOR2_9I_pad-44" x="2962.03" y="1850.47"/><use xlink:href="#OxDZi1QSqiCftpOR2_9I_pad-44" x="2962.03" y="1870.16"/><use xlink:href="#OxDZi1QSqiCftpOR2_9I_pad-44" x="2962.03" y="1889.84"/><use xlink:href="#OxDZi1QSqiCftpOR2_9I_pad-44" x="2962.03" y="1909.53"/><use xlink:href="#OxDZi1QSqiCftpOR2_9I_pad-45" x="1962" y="3135"/><use xlink:href="#OxDZi1QSqiCftpOR2_9I_pad-45" x="1962" y="3085"/><use xlink:href="#OxDZi1QSqiCftpOR2_9I_pad-45" x="1962" y="3035"/><use xlink:href="#OxDZi1QSqiCftpOR2_9I_pad-45" x="1962" y="2985"/><use xlink:href="#OxDZi1QSqiCftpOR2_9I_pad-45" x="1768" y="2985"/><use xlink:href="#OxDZi1QSqiCftpOR2_9I_pad-45" x="1768" y="3035"/><use xlink:href="#OxDZi1QSqiCftpOR2_9I_pad-45" x="1768" y="3085"/><use xlink:href="#OxDZi1QSqiCftpOR2_9I_pad-45" x="1768" y="3135"/><use xlink:href="#OxDZi1QSqiCftpOR2_9I_pad-46" x="2595" y="2870"/><use xlink:href="#OxDZi1QSqiCftpOR2_9I_pad-46" x="2535.94" y="2870"/><use xlink:href="#OxDZi1QSqiCftpOR2_9I_pad-47" x="1125" y="2760"/><use xlink:href="#OxDZi1QSqiCftpOR2_9I_pad-47" x="1185" y="1715"/><use xlink:href="#OxDZi1QSqiCftpOR2_9I_pad-47" x="3795" y="1125"/><use xlink:href="#OxDZi1QSqiCftpOR2_9I_pad-47" x="3810" y="3150"/><use xlink:href="#OxDZi1QSqiCftpOR2_9I_pad-47" x="1120" y="3008.7"/><use xlink:href="#OxDZi1QSqiCftpOR2_9I_pad-48" x="1125" y="2860"/><use xlink:href="#OxDZi1QSqiCftpOR2_9I_pad-48" x="1185" y="1615"/><use xlink:href="#OxDZi1QSqiCftpOR2_9I_pad-48" x="3795" y="1325"/><use xlink:href="#OxDZi1QSqiCftpOR2_9I_pad-48" x="3795" y="2025"/><use xlink:href="#OxDZi1QSqiCftpOR2_9I_pad-48" x="3795" y="1925"/><use xlink:href="#OxDZi1QSqiCftpOR2_9I_pad-48" x="3795" y="1825"/><use xlink:href="#OxDZi1QSqiCftpOR2_9I_pad-48" x="3795" y="1725"/><use xlink:href="#OxDZi1QSqiCftpOR2_9I_pad-48" x="3795" y="1625"/><use xlink:href="#OxDZi1QSqiCftpOR2_9I_pad-48" x="3795" y="1525"/><use xlink:href="#OxDZi1QSqiCftpOR2_9I_pad-48" x="3795" y="1425"/><use xlink:href="#OxDZi1QSqiCftpOR2_9I_pad-48" x="3795" y="1225"/><use xlink:href="#OxDZi1QSqiCftpOR2_9I_pad-48" x="2885" y="1125"/><use xlink:href="#OxDZi1QSqiCftpOR2_9I_pad-48" x="2985" y="1125"/><use xlink:href="#OxDZi1QSqiCftpOR2_9I_pad-48" x="3085" y="1125"/><use xlink:href="#OxDZi1QSqiCftpOR2_9I_pad-48" x="3185" y="1125"/><use xlink:href="#OxDZi1QSqiCftpOR2_9I_pad-48" x="3285" y="1125"/><use xlink:href="#OxDZi1QSqiCftpOR2_9I_pad-48" x="3385" y="1125"/><use xlink:href="#OxDZi1QSqiCftpOR2_9I_pad-48" x="3485" y="1125"/><use xlink:href="#OxDZi1QSqiCftpOR2_9I_pad-48" x="3810" y="3250"/><use xlink:href="#OxDZi1QSqiCftpOR2_9I_pad-48" x="3810" y="3350"/><use xlink:href="#OxDZi1QSqiCftpOR2_9I_pad-48" x="3810" y="3450"/><use xlink:href="#OxDZi1QSqiCftpOR2_9I_pad-48" x="3810" y="3550"/><use xlink:href="#OxDZi1QSqiCftpOR2_9I_pad-48" x="3430" y="3810"/><use xlink:href="#OxDZi1QSqiCftpOR2_9I_pad-48" x="3330" y="3810"/><use xlink:href="#OxDZi1QSqiCftpOR2_9I_pad-48" x="3230" y="3810"/><use xlink:href="#OxDZi1QSqiCftpOR2_9I_pad-48" x="1120" y="3108.7"/><use xlink:href="#OxDZi1QSqiCftpOR2_9I_pad-48" x="1120" y="3208.7"/><use xlink:href="#OxDZi1QSqiCftpOR2_9I_pad-48" x="1120" y="3308.7"/><use xlink:href="#OxDZi1QSqiCftpOR2_9I_pad-48" x="1120" y="3408.7"/><use xlink:href="#OxDZi1QSqiCftpOR2_9I_pad-48" x="1120" y="3508.7"/><use xlink:href="#OxDZi1QSqiCftpOR2_9I_pad-49" x="3585" y="1125"/><use xlink:href="#OxDZi1QSqiCftpOR2_9I_pad-49" x="3530" y="3810"/><use xlink:href="#OxDZi1QSqiCftpOR2_9I_pad-50" x="2993.74" y="2400"/><use xlink:href="#OxDZi1QSqiCftpOR2_9I_pad-50" x="3232.92" y="2317.92"/><use xlink:href="#OxDZi1QSqiCftpOR2_9I_pad-50" x="2906.92" y="2357.92"/><use xlink:href="#OxDZi1QSqiCftpOR2_9I_pad-50" x="2140.46" y="1682.13"/><use xlink:href="#OxDZi1QSqiCftpOR2_9I_pad-50" x="2845" y="1955"/><use xlink:href="#OxDZi1QSqiCftpOR2_9I_pad-50" x="2845" y="1855"/><use xlink:href="#OxDZi1QSqiCftpOR2_9I_pad-50" x="2950" y="2135"/><use xlink:href="#OxDZi1QSqiCftpOR2_9I_pad-50" x="3100" y="1995"/><use xlink:href="#OxDZi1QSqiCftpOR2_9I_pad-50" x="1962.13" y="2595"/><use xlink:href="#OxDZi1QSqiCftpOR2_9I_pad-50" x="2180" y="2782"/><use xlink:href="#OxDZi1QSqiCftpOR2_9I_pad-50" x="2257.99" y="2817.01"/><use xlink:href="#OxDZi1QSqiCftpOR2_9I_pad-50" x="1680" y="2430"/><use xlink:href="#OxDZi1QSqiCftpOR2_9I_pad-50" x="2140.46" y="2685.46"/><use xlink:href="#OxDZi1QSqiCftpOR2_9I_pad-50" x="2609.23" y="2405"/><use xlink:href="#OxDZi1QSqiCftpOR2_9I_pad-50" x="2535.94" y="2355.94"/><use xlink:href="#OxDZi1QSqiCftpOR2_9I_pad-50" x="2374.06" y="2470.94"/><use xlink:href="#OxDZi1QSqiCftpOR2_9I_pad-50" x="2559.56" y="2785"/><use xlink:href="#OxDZi1QSqiCftpOR2_9I_pad-50" x="2430" y="2350"/><use xlink:href="#OxDZi1QSqiCftpOR2_9I_pad-50" x="2864.84" y="2434.84"/><use xlink:href="#OxDZi1QSqiCftpOR2_9I_pad-50" x="2690" y="2232.16"/><use xlink:href="#OxDZi1QSqiCftpOR2_9I_pad-50" x="2643.82" y="2073.35"/><use xlink:href="#OxDZi1QSqiCftpOR2_9I_pad-50" x="2765" y="2244.57"/><use xlink:href="#OxDZi1QSqiCftpOR2_9I_pad-50" x="2265" y="2130"/><use xlink:href="#OxDZi1QSqiCftpOR2_9I_pad-50" x="2240" y="2075"/><use xlink:href="#OxDZi1QSqiCftpOR2_9I_pad-50" x="2230" y="2019.61"/><use xlink:href="#OxDZi1QSqiCftpOR2_9I_pad-50" x="2712.35" y="2095"/><use xlink:href="#OxDZi1QSqiCftpOR2_9I_pad-50" x="2811.54" y="2073.35"/><use xlink:href="#OxDZi1QSqiCftpOR2_9I_pad-50" x="2895" y="2095"/><use xlink:href="#OxDZi1QSqiCftpOR2_9I_pad-50" x="2813.23" y="2198.23"/><use xlink:href="#OxDZi1QSqiCftpOR2_9I_pad-50" x="2890" y="2165"/><use xlink:href="#OxDZi1QSqiCftpOR2_9I_pad-50" x="3340" y="2065"/><use xlink:href="#OxDZi1QSqiCftpOR2_9I_pad-50" x="3260" y="2100"/><use xlink:href="#OxDZi1QSqiCftpOR2_9I_pad-50" x="2025.97" y="2810"/><use xlink:href="#OxDZi1QSqiCftpOR2_9I_pad-50" x="2085" y="3012"/><use xlink:href="#OxDZi1QSqiCftpOR2_9I_pad-50" x="2400" y="1760"/><use xlink:href="#OxDZi1QSqiCftpOR2_9I_pad-50" x="1485" y="2635"/><use xlink:href="#OxDZi1QSqiCftpOR2_9I_pad-50" x="1591.57" y="2628.43"/><use xlink:href="#OxDZi1QSqiCftpOR2_9I_pad-50" x="2275" y="1800"/><use xlink:href="#OxDZi1QSqiCftpOR2_9I_pad-50" x="1415" y="2880"/><use xlink:href="#OxDZi1QSqiCftpOR2_9I_pad-50" x="1330" y="3305"/><use xlink:href="#OxDZi1QSqiCftpOR2_9I_pad-50" x="2190" y="2241.77"/><use xlink:href="#OxDZi1QSqiCftpOR2_9I_pad-50" x="1450" y="3408.7"/><use xlink:href="#OxDZi1QSqiCftpOR2_9I_pad-50" x="2145" y="2289.53"/><use xlink:href="#OxDZi1QSqiCftpOR2_9I_pad-50" x="2836.65" y="2699.79"/><use xlink:href="#OxDZi1QSqiCftpOR2_9I_pad-50" x="2920" y="2790"/><use xlink:href="#OxDZi1QSqiCftpOR2_9I_pad-50" x="2875" y="2835"/><use xlink:href="#OxDZi1QSqiCftpOR2_9I_pad-50" x="2800" y="2875"/><use xlink:href="#OxDZi1QSqiCftpOR2_9I_pad-50" x="1982.99" y="1850"/><use xlink:href="#OxDZi1QSqiCftpOR2_9I_pad-50" x="3470" y="1928.62"/><use xlink:href="#OxDZi1QSqiCftpOR2_9I_pad-50" x="3311.61" y="1966.61"/><use xlink:href="#OxDZi1QSqiCftpOR2_9I_pad-50" x="2455" y="2080"/><use xlink:href="#OxDZi1QSqiCftpOR2_9I_pad-50" x="1515" y="1780"/><use xlink:href="#OxDZi1QSqiCftpOR2_9I_pad-50" x="1460" y="1545"/><use xlink:href="#OxDZi1QSqiCftpOR2_9I_pad-50" x="2610.39" y="2029.61"/></g></svg>