<svg version="1.1" xmlns="http://www.w3.org/2000/svg" xmlns:xlink="http://www.w3.org/1999/xlink" stroke-linecap="round" stroke-linejoin="round" stroke-width="0" fill-rule="evenodd" width="2.934in" height="2.96in" viewBox="3600.58 995 2934 2960" id="HEQV_VMFXTP7fNCH0ZpL"><g transform="translate(0,4950) scale(1,-1)" fill="currentColor" stroke="currentColor"><path d="M 4044.01 1566.04 4084 1566.04 4044.01 1606.03 4044.01 1616.02 4054.01 1626.02 4074 1626.02 4084 1616.02 M 4024.02 1626.02 3984.03 1626.02 3984.03 1616.02 4024.02 1576.04 4024.02 1566.04 M 3924.05 1626.02 3964.04 1626.02 3964.04 1596.03 3944.05 1606.03 3934.05 1606.03 3924.05 1596.03 3924.05 1576.04 3934.05 1566.04 3954.04 1566.04 3964.04 1576.04 M 3824.08 1566.04 3844.08 1586.03 3844.08 1606.03 3824.08 1626.02 M 3794.09 1566.04 3794.09 1606.03 3784.1 1606.03 3774.1 1596.03 3774.1 1566.04 3774.1 1596.03 3764.1 1606.03 3754.11 1596.03 3754.11 1566.04 M 3734.11 1566.04 3714.12 1566.04 3724.12 1566.04 3724.12 1606.03 3734.11 1606.03 M 3684.13 1566.04 3664.14 1566.04 3674.13 1566.04 3674.13 1626.02 3684.13 1626.02 M 3634.15 1566.04 3614.15 1586.03 3614.15 1606.03 3634.15 1626.02" fill="none" stroke-width="6"/><path d="M 5350.58 3680 3985.58 3680 M 6375.58 3680 5360.58 3680 M 6365.58 1275 5600.58 1275 M 3980.58 1000 3980.58 1710 M 3705.58 1700 3705.58 1720 M 3980.58 1700 3980.58 1720 M 3705.58 1710 3645.58 1690 M 3705.58 1710 3645.58 1730 M 4040.58 1690 3980.58 1710 M 4040.58 1730 3980.58 1710 M 3705.58 1710 3605.58 1710 M 4080.58 1710 3980.58 1710 M 5600.58 1275 3985.58 1275 M 3980.58 1720 3980.58 3950 M 6375.58 1000 6375.58 2015 M 6375.58 2005 6375.58 3950" fill="none" stroke-width="10"/><path d="M 6528.58 2752 6528.58 2768 6512.58 2768 6512.58 2752 6528.58 2752 M 6528.58 2852 6528.58 2868 6512.58 2868 6512.58 2852 6528.58 2852 M 6468.58 1607 6468.58 1623 6452.58 1623 6452.58 1607 6468.58 1607 M 6468.58 1707 6468.58 1723 6452.58 1723 6452.58 1707 6468.58 1707 M 3858.58 1317 3858.58 1333 3842.58 1333 3842.58 1317 3858.58 1317 M 3858.58 2017 3858.58 2033 3842.58 2033 3842.58 2017 3858.58 2017 M 3858.58 1917 3858.58 1933 3842.58 1933 3842.58 1917 3858.58 1917 M 3858.58 1817 3858.58 1833 3842.58 1833 3842.58 1817 3858.58 1817 M 3858.58 1717 3858.58 1733 3842.58 1733 3842.58 1717 3858.58 1717 M 3858.58 1617 3858.58 1633 3842.58 1633 3842.58 1617 3858.58 1617 M 3858.58 1517 3858.58 1533 3842.58 1533 3842.58 1517 3858.58 1517 M 3858.58 1417 3858.58 1433 3842.58 1433 3842.58 1417 3858.58 1417 M 3858.58 1217 3858.58 1233 3842.58 1233 3842.58 1217 3858.58 1217 M 3858.58 1117 3858.58 1133 3842.58 1133 3842.58 1117 3858.58 1117 M 4768.58 1117 4768.58 1133 4752.58 1133 4752.58 1117 4768.58 1117 M 4668.58 1117 4668.58 1133 4652.58 1133 4652.58 1117 4668.58 1117 M 4568.58 1117 4568.58 1133 4552.58 1133 4552.58 1117 4568.58 1117 M 4468.58 1117 4468.58 1133 4452.58 1133 4452.58 1117 4468.58 1117 M 4368.58 1117 4368.58 1133 4352.58 1133 4352.58 1117 4368.58 1117 M 4268.58 1117 4268.58 1133 4252.58 1133 4252.58 1117 4268.58 1117 M 4168.58 1117 4168.58 1133 4152.58 1133 4152.58 1117 4168.58 1117 M 4068.58 1117 4068.58 1133 4052.58 1133 4052.58 1117 4068.58 1117 M 3843.58 3142 3843.58 3158 3827.58 3158 3827.58 3142 3843.58 3142 M 3843.58 3242 3843.58 3258 3827.58 3258 3827.58 3242 3843.58 3242 M 3843.58 3342 3843.58 3358 3827.58 3358 3827.58 3342 3843.58 3342 M 3843.58 3442 3843.58 3458 3827.58 3458 3827.58 3442 3843.58 3442 M 3843.58 3542 3843.58 3558 3827.58 3558 3827.58 3542 3843.58 3542 M 4123.58 3802 4123.58 3818 4107.58 3818 4107.58 3802 4123.58 3802 M 4223.58 3802 4223.58 3818 4207.58 3818 4207.58 3802 4223.58 3802 M 4323.58 3802 4323.58 3818 4307.58 3818 4307.58 3802 4323.58 3802 M 4423.58 3802 4423.58 3818 4407.58 3818 4407.58 3802 4423.58 3802 M 6533.58 3000.7 6533.58 3016.7 6517.58 3016.7 6517.58 3000.7 6533.58 3000.7 M 6533.58 3100.7 6533.58 3116.7 6517.58 3116.7 6517.58 3100.7 6533.58 3100.7 M 6533.58 3200.7 6533.58 3216.7 6517.58 3216.7 6517.58 3200.7 6533.58 3200.7 M 6533.58 3300.7 6533.58 3316.7 6517.58 3316.7 6517.58 3300.7 6533.58 3300.7 M 6533.58 3400.7 6533.58 3416.7 6517.58 3416.7 6517.58 3400.7 6533.58 3400.7 M 6533.58 3500.7 6533.58 3516.7 6517.58 3516.7 6517.58 3500.7 6533.58 3500.7" fill="none" stroke-width="2"/><path d="M 4643.84 2400 4649.36 2392.39 4658.31 2395.3 4658.31 2404.7 4649.36 2407.61 4643.84 2400 M 4404.66 2317.92 4410.19 2310.31 4419.13 2313.22 4419.13 2322.62 4410.19 2325.53 4404.66 2317.92 M 4730.66 2357.92 4736.19 2350.31 4745.13 2353.21 4745.13 2362.62 4736.19 2365.53 4730.66 2357.92 M 5497.12 1682.13 5502.65 1674.52 5511.59 1677.42 5511.59 1686.83 5502.65 1689.74 5497.12 1682.13 M 4792.58 1955 4798.1 1947.39 4807.05 1950.3 4807.05 1959.7 4798.1 1962.61 4792.58 1955 M 4792.58 1855 4798.1 1847.39 4807.05 1850.3 4807.05 1859.7 4798.1 1862.61 4792.58 1855 M 4687.58 2135 4693.1 2127.39 4702.05 2130.3 4702.05 2139.7 4693.1 2142.61 4687.58 2135 M 4537.58 1995 4543.1 1987.39 4552.05 1990.3 4552.05 1999.7 4543.1 2002.61 4537.58 1995 M 5675.45 2595 5680.98 2587.39 5689.92 2590.3 5689.92 2599.7 5680.98 2602.61 5675.45 2595 M 5457.58 2782 5463.1 2774.39 5472.05 2777.3 5472.05 2786.7 5463.1 2789.61 5457.58 2782 M 5379.58 2817.01 5385.11 2809.4 5394.06 2812.31 5394.06 2821.71 5385.11 2824.62 5379.58 2817.01 M 5957.58 2430 5963.1 2422.39 5972.05 2425.3 5972.05 2434.7 5963.1 2437.61 5957.58 2430 M 5497.12 2685.46 5502.65 2677.85 5511.59 2680.75 5511.59 2690.16 5502.65 2693.06 5497.12 2685.46 M 5028.35 2405 5033.87 2397.39 5042.82 2400.3 5042.82 2409.7 5033.87 2412.61 5028.35 2405 M 5101.63 2355.94 5107.16 2348.34 5116.1 2351.24 5116.1 2360.65 5107.16 2363.55 5101.63 2355.94 M 5263.52 2470.94 5269.05 2463.34 5277.99 2466.24 5277.99 2475.65 5269.05 2478.55 5263.52 2470.94 M 5078.01 2785 5083.54 2777.39 5092.48 2780.3 5092.48 2789.7 5083.54 2792.61 5078.01 2785 M 5207.58 2350 5213.1 2342.39 5222.05 2345.3 5222.05 2354.7 5213.1 2357.61 5207.58 2350 M 4772.73 2434.84 4778.26 2427.23 4787.21 2430.14 4787.21 2439.54 4778.26 2442.45 4772.73 2434.84 M 4947.58 2232.16 4953.1 2224.56 4962.05 2227.46 4962.05 2236.87 4953.1 2239.77 4947.58 2232.16 M 4993.76 2073.35 4999.29 2065.74 5008.23 2068.64 5008.23 2078.05 4999.29 2080.95 4993.76 2073.35 M 4872.58 2244.57 4878.1 2236.96 4887.05 2239.86 4887.05 2249.27 4878.1 2252.18 4872.58 2244.57 M 5372.58 2130 5378.1 2122.39 5387.05 2125.3 5387.05 2134.7 5378.1 2137.61 5372.58 2130 M 5397.58 2075 5403.1 2067.39 5412.05 2070.3 5412.05 2079.7 5403.1 2082.61 5397.58 2075 M 5407.58 2019.61 5413.1 2012 5422.05 2014.9 5422.05 2024.31 5413.1 2027.22 5407.58 2019.61 M 4925.23 2095 4930.76 2087.39 4939.7 2090.3 4939.7 2099.7 4930.76 2102.61 4925.23 2095 M 4826.04 2073.35 4831.57 2065.74 4840.51 2068.64 4840.51 2078.05 4831.57 2080.95 4826.04 2073.35 M 4742.58 2095 4748.1 2087.39 4757.05 2090.3 4757.05 2099.7 4748.1 2102.61 4742.58 2095 M 4824.35 2198.23 4829.88 2190.62 4838.82 2193.53 4838.82 2202.93 4829.88 2205.84 4824.35 2198.23 M 4747.58 2165 4753.1 2157.39 4762.05 2160.3 4762.05 2169.7 4753.1 2172.61 4747.58 2165 M 4297.58 2065 4303.1 2057.39 4312.05 2060.3 4312.05 2069.7 4303.1 2072.61 4297.58 2065 M 4377.58 2100 4383.1 2092.39 4392.05 2095.3 4392.05 2104.7 4383.1 2107.61 4377.58 2100 M 5611.6 2810 5617.13 2802.39 5626.08 2805.3 5626.08 2814.7 5617.13 2817.61 5611.6 2810 M 5552.58 3012 5558.1 3004.39 5567.05 3007.3 5567.05 3016.7 5558.1 3019.61 5552.58 3012 M 5237.58 1760 5243.1 1752.39 5252.05 1755.3 5252.05 1764.7 5243.1 1767.61 5237.58 1760 M 6152.58 2635 6158.1 2627.39 6167.05 2630.3 6167.05 2639.7 6158.1 2642.61 6152.58 2635 M 6046 2628.43 6051.53 2620.82 6060.47 2623.72 6060.47 2633.13 6051.53 2636.03 6046 2628.43 M 5362.58 1800 5368.1 1792.39 5377.05 1795.3 5377.05 1804.7 5368.1 1807.61 5362.58 1800 M 6222.58 2880 6228.1 2872.39 6237.05 2875.3 6237.05 2884.7 6228.1 2887.61 6222.58 2880 M 6307.58 3305 6313.1 3297.39 6322.05 3300.3 6322.05 3309.7 6313.1 3312.61 6307.58 3305 M 5447.58 2241.77 5453.1 2234.16 5462.05 2237.07 5462.05 2246.47 5453.1 2249.38 5447.58 2241.77 M 6187.58 3408.7 6193.1 3401.09 6202.05 3404 6202.05 3413.4 6193.1 3416.31 6187.58 3408.7 M 5492.58 2289.53 5498.1 2281.92 5507.05 2284.83 5507.05 2294.23 5498.1 2297.14 5492.58 2289.53 M 4800.92 2699.79 4806.45 2692.18 4815.39 2695.09 4815.39 2704.49 4806.45 2707.4 4800.92 2699.79 M 4717.58 2790 4723.1 2782.39 4732.05 2785.3 4732.05 2794.7 4723.1 2797.61 4717.58 2790 M 4762.58 2835 4768.1 2827.39 4777.05 2830.3 4777.05 2839.7 4768.1 2842.61 4762.58 2835 M 4837.58 2875 4843.1 2867.39 4852.05 2870.3 4852.05 2879.7 4843.1 2882.61 4837.58 2875 M 5654.58 1850 5660.11 1842.39 5669.06 1845.3 5669.06 1854.7 5660.11 1857.61 5654.58 1850 M 4167.58 1928.62 4173.1 1921.01 4182.05 1923.92 4182.05 1933.32 4173.1 1936.23 4167.58 1928.62 M 4325.96 1966.61 4331.49 1959 4340.43 1961.91 4340.43 1971.32 4331.49 1974.22 4325.96 1966.61 M 5182.58 2080 5188.1 2072.39 5197.05 2075.3 5197.05 2084.7 5188.1 2087.61 5182.58 2080 M 6122.58 1780 6128.1 1772.39 6137.05 1775.3 6137.05 1784.7 6128.1 1787.61 6122.58 1780 M 6177.58 1545 6183.1 1537.39 6192.05 1540.3 6192.05 1549.7 6183.1 1552.61 6177.58 1545 M 5027.18 2029.61 5032.71 2022 5041.65 2024.9 5041.65 2034.31 5032.71 2037.21 5027.18 2029.61" fill="none" stroke-width="2.67"/></g></svg>