<svg version="1.1" xmlns="http://www.w3.org/2000/svg" xmlns:xlink="http://www.w3.org/1999/xlink" stroke-linecap="round" stroke-linejoin="round" stroke-width="0" fill-rule="evenodd" width="2.95in" height="2.965in" viewBox="995 990 2950 2965" id="axPNt_yScFe_S4aNN0NG"><g transform="translate(0,4945) scale(1,-1)" fill="currentColor" stroke="currentColor"><path d="M 3362.16 2507.56 3354.29 2507.56 3362.16 2507.56 M 3111.22 2440.04 3111.22 2455.79 M 3138.78 2440.04 3138.78 2455.79 M 3533.78 2483.94 3533.78 2499.69 M 3506.22 2483.94 3506.22 2499.69 M 2944.8 3459.57 2992.05 3459.57 M 2796.38 3459.57 2843.62 3459.57 M 2631.38 3459.57 2678.62 3459.57 M 2472.56 3460 2519.8 3460 M 2306.38 3459.57 2353.62 3459.57 M 1075 2910 1175 2910 M 1175 2710 1175 2910 M 1075 2710 1175 2710 M 1075 2710 1075 2910 M 2057.6 2546.22 2073.35 2546.22 M 2057.6 2573.78 2073.35 2573.78 M 1235 1565 1235 1765 M 1135 1765 1235 1765 M 1135 1565 1135 1765 M 1135 1565 1235 1565 M 3745 1150 3745 2075 M 3745 1075 3745 1150 M 3745 1075 3845 1075 3845 2075 M 3745 2075 3845 2075 M 2309.17 2313.46 2309.17 2648.11 M 2643.82 2313.46 2643.82 2648.11 M 2309.17 2648.11 2643.82 2648.11 M 2309.17 2313.46 2643.82 2313.46 M 2954.65 3207.13 2954.65 3222.87 M 2982.2 3207.13 2982.2 3222.87 M 2801.22 3211.65 2801.22 3227.4 M 2828.78 3211.65 2828.78 3227.4 M 2641.22 3211.65 2641.22 3227.4 M 2668.78 3211.65 2668.78 3227.4 M 2482.4 3211.65 2482.4 3227.4 M 2509.96 3211.65 2509.96 3227.4 M 2320.98 3207.13 2320.98 3222.87 M 2348.54 3207.13 2348.54 3222.87 M 2835 1075 3635 1075 3635 1175 M 2835 1175 3635 1175 M 2835 1075 2835 1175 M 3760 3600 3860 3600 M 3860 3100 3860 3600 M 3760 3100 3760 3600 M 3760 3100 3860 3100 M 3180 3760 3180 3860 3580 3860 M 3180 3760 3580 3760 3580 3860 M 1070 3558.7 1170 3558.7 M 1070 2958.7 1170 2958.7 M 1070 2958.7 1070 3558.7 M 1170 2958.7 1170 3558.7 M 2698.78 1992.6 2698.78 2008.35 M 2671.22 1992.6 2671.22 2008.35 M 2553.78 1992.2 2553.78 2007.95 M 2526.22 1992.2 2526.22 2007.95 M 1526.65 1486.22 1542.4 1486.22 M 1526.65 1513.78 1542.4 1513.78 M 3321.22 1862.28 3321.22 1878.03 M 3348.78 1862.28 3348.78 1878.03 M 2063.94 2392.13 2063.94 2407.87 M 2091.5 2392.13 2091.5 2407.87 M 2063.94 2237.6 2063.94 2253.35 M 2091.5 2237.6 2091.5 2253.35 M 2142.6 3046.22 2158.35 3046.22 M 2142.6 3073.78 2158.35 3073.78 M 2142.6 2948.22 2158.35 2948.22 M 2142.6 2975.78 2158.35 2975.78 M 1567.6 2964.76 1583.35 2964.76 M 1567.6 2992.32 1583.35 2992.32 M 1566.65 3071.22 1582.4 3071.22 M 1566.65 3098.78 1582.4 3098.78 M 1567.13 3176.22 1582.87 3176.22 M 1567.13 3203.78 1582.87 3203.78" fill="none" stroke-width="7.87"/><path d="M 2262.91 2655.98 2255.53 2660.25 2255.53 2651.72 2262.91 2655.98" fill="none" stroke-width="9.84"/><path d="M 2360.35 2608.74 2355.91 2617.97 2345.92 2620.25 2337.9 2613.86 2337.9 2603.62 2345.92 2597.22 2355.91 2599.51 2360.35 2608.74" fill="none" stroke-width="23.62"/><path d="M 1522.01 1694.61 1514.13 1694.61 1522.01 1694.61 M 1610.43 1695.24 1602.56 1695.24 1610.43 1695.24" fill="none" stroke-width="11.81"/><path d="M 2970.39 1970.55 2962.52 1970.55 2970.39 1970.55" fill="none" stroke-width="12"/><path d="M 1853 3158 1856.52 3149.51 1865 3146 1873.48 3149.51 1877 3158 M 1811 3158 1853 3158 1877 3158 1919 3158 M 1811 2962 1919 2962" fill="none" stroke-width="6"/><path d="M 3252.13 2515.43 3330.87 2515.43 M 3252.13 2409.13 3330.87 2409.13 M 1586.54 1596.5 1653.46 1596.5 M 1586.54 1714.61 1653.46 1714.61 M 2950.71 1954.8 3155.43 1954.8 M 3155.43 1805.2 3155.43 1954.8 M 2950.71 1805.2 3155.43 1805.2 M 2950.71 1805.2 2950.71 1954.8 M 1653.46 1596.5 1653.46 1714.61 M 1586.54 1596.5 1653.46 1596.5 M 1586.54 1596.5 1586.54 1714.61 1653.46 1714.61" fill="none" stroke-width="5"/><path d="M 1205 3038.35 1236.28 3007.06 M 1205 2975.78 1236.28 3007.06 M 1205 2975.78 1205 3038.35 M 1195 2789.99 1195 2756.66 1201.67 2750 1214.99 2750 1221.66 2756.66 1221.66 2789.99 M 1261.64 2750 1234.99 2750 1261.64 2776.66 1261.64 2783.32 1254.98 2789.99 1241.65 2789.99 1234.99 2783.32 M 1274.97 2789.99 1274.97 2750 1294.97 2750 1301.63 2756.66 1301.63 2763.33 1294.97 2769.99 1274.97 2769.99 1294.97 2769.99 1301.63 2776.66 1301.63 2783.32 1294.97 2789.99 1274.97 2789.99 M 1314.96 2750 1314.96 2789.99 1334.95 2789.99 1341.62 2783.32 1341.62 2769.99 1334.95 2763.33 1314.96 2763.33 M 1328.29 2763.33 1341.62 2750 M 1354.95 2789.99 1381.61 2750 M 1381.61 2789.99 1354.95 2750 M 1195 2874.99 1195 2841.66 1201.67 2835 1214.99 2835 1221.66 2841.66 1221.66 2874.99 M 1261.64 2835 1234.99 2835 1261.64 2861.66 1261.64 2868.32 1254.98 2874.99 1241.65 2874.99 1234.99 2868.32 M 1274.97 2874.99 1274.97 2835 1294.97 2835 1301.63 2841.66 1301.63 2848.33 1294.97 2854.99 1274.97 2854.99 1294.97 2854.99 1301.63 2861.66 1301.63 2868.32 1294.97 2874.99 1274.97 2874.99 M 1314.96 2874.99 1341.62 2874.99 1328.29 2874.99 1328.29 2835 M 1354.95 2874.99 1381.61 2835 M 1381.61 2874.99 1354.95 2835 M 1015 1715.23 1041.66 1715.23 M 1028.33 1728.56 1028.33 1701.9 M 1081.65 1735.22 1054.99 1735.22 1054.99 1715.23 1068.32 1721.89 1074.98 1721.89 1081.65 1715.23 1081.65 1701.9 1074.98 1695.24 1061.65 1695.24 1054.99 1701.9 M 1094.97 1735.22 1094.97 1708.56 1108.3 1695.24 1121.63 1708.56 1121.63 1735.22 M 1041.66 1629.82 1034.99 1636.48 1021.66 1636.48 1015 1629.82 1015 1603.16 1021.66 1596.5 1034.99 1596.5 1041.66 1603.16 1041.66 1616.49 1028.33 1616.49 M 1054.99 1596.5 1054.99 1636.48 1081.65 1596.5 1081.65 1636.48 M 1094.97 1636.48 1094.97 1596.5 1114.97 1596.5 1121.63 1603.16 1121.63 1629.82 1114.97 1636.48 1094.97 1636.48 M 3171.68 1256.66 3165.01 1249.99 3165.01 1236.67 3171.68 1230 3178.34 1230 3185.01 1236.67 3185.01 1249.99 3191.67 1256.66 3198.34 1256.66 3205 1249.99 3205 1236.67 3198.34 1230 M 3165.01 1269.99 3205 1269.99 3205 1289.98 3198.34 1296.65 3171.68 1296.65 3165.01 1289.98 3165.01 1269.99 M 3205 1309.97 3178.34 1309.97 3165.01 1323.3 3178.34 1336.63 3205 1336.63 3185.01 1336.63 3185.01 1309.97 M 3171.68 1349.96 3165.01 1356.63 3165.01 1369.95 3171.68 1376.62 3178.34 1376.62 3185.01 1369.95 3185.01 1363.29 3185.01 1369.95 3191.67 1376.62 3198.34 1376.62 3205 1369.95 3205 1356.63 3198.34 1349.96 M 3271.68 1256.66 3265.01 1249.99 3265.01 1236.67 3271.68 1230 3278.34 1230 3285.01 1236.67 3285.01 1249.99 3291.67 1256.66 3298.34 1256.66 3305 1249.99 3305 1236.67 3298.34 1230 M 3271.68 1296.65 3265.01 1289.98 3265.01 1276.65 3271.68 1269.99 3298.34 1269.99 3305 1276.65 3305 1289.98 3298.34 1296.65 M 3265.01 1309.97 3305 1309.97 3305 1336.63 M 3271.68 1349.96 3265.01 1356.63 3265.01 1369.95 3271.68 1376.62 3278.34 1376.62 3285.01 1369.95 3285.01 1363.29 3285.01 1369.95 3291.67 1376.62 3298.34 1376.62 3305 1369.95 3305 1356.63 3298.34 1349.96 M 3366.68 1256.66 3360.01 1249.99 3360.01 1236.67 3366.68 1230 3393.34 1230 3400 1236.67 3400 1249.99 3393.34 1256.66 3380.01 1256.66 3380.01 1243.33 M 3400 1269.99 3360.01 1269.99 3400 1296.65 3360.01 1296.65 M 3360.01 1309.97 3400 1309.97 3400 1329.97 3393.34 1336.63 3366.68 1336.63 3360.01 1329.97 3360.01 1309.97 M 3585.01 1225 3585.01 1251.66 M 3571.68 1238.33 3598.34 1238.33 M 3565.01 1291.65 3565.01 1264.99 3585.01 1264.99 3578.34 1278.32 3578.34 1284.98 3585.01 1291.65 3598.34 1291.65 3605 1284.98 3605 1271.65 3598.34 1264.99 M 3565.01 1304.97 3591.67 1304.97 3605 1318.3 3591.67 1331.63 3565.01 1331.63 M 3249.88 3709.8 3249.95 3723.13 3243.32 3729.83 3216.66 3729.96 3209.96 3723.34 3209.89 3710.01 3216.53 3703.31 3243.18 3703.17 3249.88 3709.8 M 3242.97 3663.18 3249.67 3669.81 3249.74 3683.14 3243.11 3689.84 3216.45 3689.98 3209.75 3683.35 3209.69 3670.02 3216.32 3663.32 M 3209.48 3630.03 3249.46 3629.82 3229.57 3649.92 3229.43 3623.26 M 3349.88 3709.8 3349.95 3723.13 3343.32 3729.83 3316.66 3729.96 3309.96 3723.34 3309.9 3710.01 3316.52 3703.31 3343.18 3703.17 3349.88 3709.8 M 3342.97 3663.18 3349.67 3669.81 3349.74 3683.14 3343.11 3689.84 3316.45 3689.98 3309.76 3683.35 3309.68 3670.02 3316.31 3663.32 M 3342.9 3649.85 3349.53 3643.15 3349.46 3629.82 3342.76 3623.19 3336.1 3623.23 3329.47 3629.93 3329.5 3636.59 3329.47 3629.93 3322.77 3623.3 3316.1 3623.33 3309.48 3630.03 3309.55 3643.36 3316.25 3649.99 M 3449.88 3709.8 3449.95 3723.13 3443.32 3729.83 3416.66 3729.96 3409.97 3723.34 3409.89 3710.01 3416.52 3703.31 3443.18 3703.17 3449.88 3709.8 M 3442.97 3663.18 3449.67 3669.81 3449.74 3683.14 3443.11 3689.84 3416.46 3689.98 3409.75 3683.35 3409.68 3670.02 3416.32 3663.32 M 3409.44 3623.37 3409.58 3650.03 3436.1 3623.23 3442.76 3623.19 3449.46 3629.82 3449.53 3643.15 3442.9 3649.85 M 3554.88 3709.8 3554.95 3723.13 3548.32 3729.83 3521.66 3729.96 3514.97 3723.34 3514.89 3710.01 3521.52 3703.31 3548.18 3703.17 3554.88 3709.8 M 3547.97 3663.18 3554.67 3669.81 3554.74 3683.14 3548.11 3689.84 3521.46 3689.98 3514.76 3683.35 3514.68 3670.02 3521.32 3663.32 M 3514.58 3650.03 3514.51 3636.7 3514.55 3643.36 3554.53 3643.15 3547.9 3649.85 M 3610.71 3166.99 3624.04 3166.99 3617.37 3166.99 3617.37 3127 3610.71 3127 3624.04 3127 M 3670.69 3160.32 3664.02 3166.99 3650.7 3166.99 3644.03 3160.32 3644.03 3133.66 3650.7 3127 3664.02 3127 3670.69 3133.66 M 3684.02 3127 3697.35 3127 3690.68 3127 3690.68 3166.99 3684.02 3160.32 M 3610.71 3269.99 3624.04 3269.99 3617.37 3269.99 3617.37 3230 3610.71 3230 3624.04 3230 M 3670.69 3263.32 3664.02 3269.99 3650.7 3269.99 3644.03 3263.32 3644.03 3236.66 3650.7 3230 3664.02 3230 3670.69 3236.66 M 3710.68 3230 3684.02 3230 3710.68 3256.66 3710.68 3263.32 3704.01 3269.99 3690.68 3269.99 3684.02 3263.32 M 3610.71 3369.99 3624.04 3369.99 3617.37 3369.99 3617.37 3330 3610.71 3330 3624.04 3330 M 3670.69 3363.32 3664.02 3369.99 3650.7 3369.99 3644.03 3363.32 3644.03 3336.66 3650.7 3330 3664.02 3330 3670.69 3336.66 M 3684.02 3363.32 3690.68 3369.99 3704.01 3369.99 3710.68 3363.32 3710.68 3356.66 3704.01 3349.99 3697.35 3349.99 3704.01 3349.99 3710.68 3343.33 3710.68 3336.66 3704.01 3330 3690.68 3330 3684.02 3336.66 M 3610.71 3474.99 3624.04 3474.99 3617.37 3474.99 3617.37 3435 3610.71 3435 3624.04 3435 M 3670.69 3468.32 3664.02 3474.99 3650.7 3474.99 3644.03 3468.32 3644.03 3441.66 3650.7 3435 3664.02 3435 3670.69 3441.66 M 3704.01 3435 3704.01 3474.99 3684.02 3454.99 3710.68 3454.99 M 3610.71 3574.99 3624.04 3574.99 3617.37 3574.99 3617.37 3535 3610.71 3535 3624.04 3535 M 3670.69 3568.32 3664.02 3574.99 3650.7 3574.99 3644.03 3568.32 3644.03 3541.66 3650.7 3535 3664.02 3535 3670.69 3541.66 M 3710.68 3574.99 3684.02 3574.99 3684.02 3554.99 3697.35 3561.66 3704.01 3561.66 3710.68 3554.99 3710.68 3541.66 3704.01 3535 3690.68 3535 3684.02 3541.66 M 1270 3560 1270 3619.98 1299.99 3619.98 1309.99 3609.98 1309.99 3589.99 1299.99 3579.99 1270 3579.99 M 1329.98 3619.98 1349.97 3619.98 1339.98 3619.98 1339.98 3560 1329.98 3560 1349.97 3560 M 1419.95 3609.98 1409.96 3619.98 1389.96 3619.98 1379.96 3609.98 1379.96 3570 1389.96 3560 1409.96 3560 1419.95 3570 M 1439.94 3619.98 1439.94 3560 1439.94 3579.99 1479.93 3619.98 1449.94 3589.99 1479.93 3560 M 1499.93 3619.98 1519.92 3619.98 1509.92 3619.98 1509.92 3560 1499.93 3560 1519.92 3560 M 1549.91 3619.98 1589.9 3619.98 1569.9 3619.98 1569.9 3560 M 1609.89 3609.98 1619.89 3619.98 1639.88 3619.98 1649.88 3609.98 1649.88 3599.99 1639.88 3589.99 1629.88 3589.99 1639.88 3589.99 1649.88 3579.99 1649.88 3570 1639.88 3560 1619.89 3560 1609.89 3570 M 1045 1435 1045 1494.98 1074.99 1494.98 1084.99 1484.98 1084.99 1464.99 1074.99 1454.99 1045 1454.99 M 1134.97 1494.98 1114.98 1494.98 1104.98 1484.98 1104.98 1445 1114.98 1435 1134.97 1435 1144.97 1445 1144.97 1484.98 1134.97 1494.98 M 1164.96 1494.98 1164.96 1435 1184.96 1454.99 1204.95 1435 1204.95 1494.98 M 1264.93 1494.98 1224.94 1494.98 1224.94 1435 1264.93 1435 M 1224.94 1464.99 1244.94 1464.99 M 1284.92 1435 1284.92 1494.98 1314.91 1494.98 1324.91 1484.98 1324.91 1464.99 1314.91 1454.99 1284.92 1454.99 M 1304.92 1454.99 1324.91 1435 M 2869.99 1343.67 2859.99 1353.66 2840 1353.66 2830 1343.67 2830 1303.68 2840 1293.68 2859.99 1293.68 2869.99 1303.68 2869.99 1323.67 2849.99 1323.67 M 2889.98 1353.66 2889.98 1343.67 2909.97 1323.67 2929.97 1343.67 2929.97 1353.66 M 2909.97 1323.67 2909.97 1293.68 M 2949.96 1323.67 2989.95 1323.67 M 3009.94 1303.68 3019.94 1293.68 3039.93 1293.68 3049.93 1303.68 3049.93 1343.67 3039.93 1353.66 3019.94 1353.66 3009.94 1343.67 3009.94 1333.67 3019.94 1323.67 3049.93 1323.67 M 3069.92 1293.68 3089.92 1293.68 3079.92 1293.68 3079.92 1353.66 3069.92 1343.67 M 3320 1599.98 3339.99 1599.98 3330 1599.98 3330 1540 3320 1540 3339.99 1540 M 3399.97 1599.98 3379.98 1599.98 3369.98 1589.98 3369.98 1550 3379.98 1540 3399.97 1540 3409.97 1550 3409.97 1589.98 3399.97 1599.98 M 3489.94 1540 3489.94 1599.98 3519.93 1599.98 3529.93 1589.98 3529.93 1569.99 3519.93 1559.99 3489.94 1559.99 M 3579.92 1599.98 3559.92 1599.98 3549.93 1589.98 3549.93 1550 3559.92 1540 3579.92 1540 3589.91 1550 3589.91 1589.98 3579.92 1599.98 M 3609.91 1540 3609.91 1599.98 3639.9 1599.98 3649.89 1589.98 3649.89 1569.99 3639.9 1559.99 3609.91 1559.99 M 3629.9 1559.99 3649.89 1540 M 3669.89 1599.98 3709.87 1599.98 3689.88 1599.98 3689.88 1540 M 3395 3059.98 3414.99 3059.98 3405 3059.98 3405 3000 3395 3000 3414.99 3000 M 3484.97 3049.98 3474.97 3059.98 3454.98 3059.98 3444.98 3049.98 3444.98 3010 3454.98 3000 3474.97 3000 3484.97 3010 M 3564.94 3059.98 3564.94 3000 3564.94 3029.99 3604.93 3029.99 3604.93 3059.98 3604.93 3000 M 3664.91 3059.98 3624.93 3059.98 3624.93 3000 3664.91 3000 M 3624.93 3029.99 3644.92 3029.99 M 3684.91 3000 3684.91 3039.99 3704.9 3059.98 3724.89 3039.99 3724.89 3000 3724.89 3029.99 3684.91 3029.99 M 3744.89 3059.98 3744.89 3000 3774.88 3000 3784.87 3010 3784.87 3049.98 3774.88 3059.98 3744.89 3059.98 M 3844.85 3059.98 3804.87 3059.98 3804.87 3000 3844.85 3000 M 3804.87 3029.99 3824.86 3029.99 M 3864.85 3000 3864.85 3059.98 3894.84 3059.98 3904.83 3049.98 3904.83 3029.99 3894.84 3019.99 3864.85 3019.99 M 3884.84 3019.99 3904.83 3000 M 2666.29 3839.98 2646.3 3839.98 2636.3 3829.98 2636.3 3790 2646.3 3780 2666.29 3780 2676.29 3790 2676.29 3829.98 2666.29 3839.98 M 2736.27 3829.98 2726.27 3839.98 2706.28 3839.98 2696.28 3829.98 2696.28 3790 2706.28 3780 2726.27 3780 2736.27 3790 M 2816.24 3839.98 2816.24 3780 2816.24 3809.99 2856.23 3809.99 2856.23 3839.98 2856.23 3780 M 2916.21 3839.98 2876.22 3839.98 2876.22 3780 2916.21 3780 M 2876.22 3809.99 2896.22 3809.99 M 2936.2 3780 2936.2 3819.99 2956.2 3839.98 2976.19 3819.99 2976.19 3780 2976.19 3809.99 2936.2 3809.99 M 2996.18 3839.98 2996.18 3780 3026.17 3780 3036.17 3790 3036.17 3829.98 3026.17 3839.98 2996.18 3839.98 M 3096.15 3839.98 3056.16 3839.98 3056.16 3780 3096.15 3780 M 3056.16 3809.99 3076.16 3809.99 M 3116.14 3780 3116.14 3839.98 3146.14 3839.98 3156.13 3829.98 3156.13 3809.99 3146.14 3799.99 3116.14 3799.99 M 3136.14 3799.99 3156.13 3780 M 3249 2612.76 3249 2562.78 3258.99 2552.78 3278.99 2552.78 3288.98 2562.78 3288.98 2612.76 M 3348.96 2612.76 3308.98 2612.76 3308.98 2582.77 3328.97 2592.77 3338.97 2592.77 3348.96 2582.77 3348.96 2562.78 3338.97 2552.78 3318.97 2552.78 3308.98 2562.78 M 3040 2320 3040 2379.98 3069.99 2379.98 3079.99 2369.98 3079.99 2349.99 3069.99 2339.99 3040 2339.99 M 3059.99 2339.99 3079.99 2320 M 3099.98 2320 3119.97 2320 3109.98 2320 3109.98 2379.98 3099.98 2369.98 M 3149.96 2330 3159.96 2320 3179.96 2320 3189.95 2330 3189.95 2369.98 3179.96 2379.98 3159.96 2379.98 3149.96 2369.98 3149.96 2359.99 3159.96 2349.99 3189.95 2349.99 M 3591.39 2462.28 3591.39 2522.26 3621.38 2522.26 3631.37 2512.27 3631.37 2492.27 3621.38 2482.28 3591.39 2482.28 M 3611.38 2482.28 3631.37 2462.28 M 3651.37 2462.28 3671.36 2462.28 3661.36 2462.28 3661.36 2522.26 3651.37 2512.27 M 3701.35 2512.27 3711.35 2522.26 3731.34 2522.26 3741.34 2512.27 3741.34 2502.27 3731.34 2492.27 3741.34 2482.28 3741.34 2472.28 3731.34 2462.28 3711.35 2462.28 3701.35 2472.28 3701.35 2482.28 3711.35 2492.27 3701.35 2502.27 3701.35 2512.27 M 3711.35 2492.27 3731.34 2492.27 M 3289.23 2783.48 3279.23 2793.48 3259.24 2793.48 3249.24 2783.48 3249.24 2743.5 3259.24 2733.5 3279.23 2733.5 3289.23 2743.5 M 3309.22 2743.5 3319.22 2733.5 3339.21 2733.5 3349.21 2743.5 3349.21 2783.48 3339.21 2793.48 3319.22 2793.48 3309.22 2783.48 3309.22 2773.49 3319.22 2763.49 3349.21 2763.49 M 1250 2650 1250 2709.98 1279.99 2709.98 1289.99 2699.98 1289.99 2679.99 1279.99 2669.99 1250 2669.99 M 1309.98 2709.98 1349.97 2709.98 1349.97 2699.98 1309.98 2660 1309.98 2650 M 3751.5 2108.5 3751.5 2168.48 3781.49 2168.48 3791.49 2158.48 3791.49 2138.49 3781.49 2128.49 3751.5 2128.49 M 3851.47 2168.48 3831.47 2158.48 3811.48 2138.49 3811.48 2118.5 3821.48 2108.5 3841.47 2108.5 3851.47 2118.5 3851.47 2128.49 3841.47 2138.49 3811.48 2138.49 M 2270 3294.5 2270 3354.48 2299.99 3354.48 2309.99 3344.48 2309.99 3324.49 2299.99 3314.49 2270 3314.49 M 2289.99 3314.49 2309.99 3294.5 M 2329.98 3294.5 2349.97 3294.5 2339.98 3294.5 2339.98 3354.48 2329.98 3344.48 M 2379.96 3354.48 2419.95 3354.48 2419.95 3344.48 2379.96 3304.5 2379.96 3294.5 M 2425 3095 2425 3154.98 2454.99 3154.98 2464.99 3144.98 2464.99 3124.99 2454.99 3114.99 2425 3114.99 M 2444.99 3114.99 2464.99 3095 M 2484.98 3095 2504.97 3095 2494.98 3095 2494.98 3154.98 2484.98 3144.98 M 2574.95 3154.98 2554.96 3144.98 2534.96 3124.99 2534.96 3105 2544.96 3095 2564.95 3095 2574.95 3105 2574.95 3114.99 2564.95 3124.99 2534.96 3124.99 M 2580 3294.5 2580 3354.48 2609.99 3354.48 2619.99 3344.48 2619.99 3324.49 2609.99 3314.49 2580 3314.49 M 2599.99 3314.49 2619.99 3294.5 M 2639.98 3294.5 2659.97 3294.5 2649.98 3294.5 2649.98 3354.48 2639.98 3344.48 M 2729.95 3354.48 2689.96 3354.48 2689.96 3324.49 2709.96 3334.49 2719.95 3334.49 2729.95 3324.49 2729.95 3304.5 2719.95 3294.5 2699.96 3294.5 2689.96 3304.5 M 2735 3095 2735 3154.98 2764.99 3154.98 2774.99 3144.98 2774.99 3124.99 2764.99 3114.99 2735 3114.99 M 2754.99 3114.99 2774.99 3095 M 2794.98 3095 2814.97 3095 2804.98 3095 2804.98 3154.98 2794.98 3144.98 M 2874.95 3095 2874.95 3154.98 2844.96 3124.99 2884.95 3124.99 M 2895 3294.5 2895 3354.48 2924.99 3354.48 2934.99 3344.48 2934.99 3324.49 2924.99 3314.49 2895 3314.49 M 2914.99 3314.49 2934.99 3294.5 M 2954.98 3294.5 2974.97 3294.5 2964.98 3294.5 2964.98 3354.48 2954.98 3344.48 M 3004.96 3344.48 3014.96 3354.48 3034.96 3354.48 3044.95 3344.48 3044.95 3334.49 3034.96 3324.49 3024.96 3324.49 3034.96 3324.49 3044.95 3314.49 3044.95 3304.5 3034.96 3294.5 3014.96 3294.5 3004.96 3304.5 M 2279.65 3620.3 2279.65 3560.31 2309.64 3560.31 2319.63 3570.31 2319.63 3610.3 2309.64 3620.3 2279.65 3620.3 M 2379.61 3620.3 2339.63 3620.3 2339.63 3590.31 2359.62 3600.3 2369.62 3600.3 2379.61 3590.31 2379.61 3570.31 2369.62 3560.31 2349.62 3560.31 2339.63 3570.31 M 2450 3620.3 2450 3560.31 2479.99 3560.31 2489.99 3570.31 2489.99 3610.3 2479.99 3620.3 2450 3620.3 M 2539.97 3560.31 2539.97 3620.3 2509.98 3590.31 2549.97 3590.31 M 2609.23 3620.3 2609.23 3560.31 2639.22 3560.31 2649.22 3570.31 2649.22 3610.3 2639.22 3620.3 2609.23 3620.3 M 2669.21 3610.3 2679.21 3620.3 2699.2 3620.3 2709.2 3610.3 2709.2 3600.3 2699.2 3590.31 2689.2 3590.31 2699.2 3590.31 2709.2 3580.31 2709.2 3570.31 2699.2 3560.31 2679.21 3560.31 2669.21 3570.31 M 2775 3619.98 2775 3560 2804.99 3560 2814.99 3570 2814.99 3609.98 2804.99 3619.98 2775 3619.98 M 2874.97 3560 2834.98 3560 2874.97 3599.99 2874.97 3609.98 2864.97 3619.98 2844.98 3619.98 2834.98 3609.98 M 2930 3620.3 2930 3560.31 2959.99 3560.31 2969.99 3570.31 2969.99 3610.3 2959.99 3620.3 2930 3620.3 M 2989.98 3560.31 3009.97 3560.31 2999.98 3560.31 2999.98 3620.3 2989.98 3610.3 M 2015 2611.18 2015 2671.16 2044.99 2671.16 2054.99 2661.16 2054.99 2641.17 2044.99 2631.18 2015 2631.18 M 2034.99 2631.18 2054.99 2611.18 M 2114.97 2611.18 2074.98 2611.18 2114.97 2651.17 2114.97 2661.16 2104.97 2671.16 2084.98 2671.16 2074.98 2661.16 M 1075 3615 1075 3674.98 1104.99 3674.98 1114.99 3664.98 1114.99 3644.99 1104.99 3634.99 1075 3634.99 M 1174.97 3674.98 1134.98 3674.98 1134.98 3644.99 1154.97 3654.99 1164.97 3654.99 1174.97 3644.99 1174.97 3625 1164.97 3615 1144.98 3615 1134.98 3625 M 2075.47 3103.7 2075.47 3163.68 2105.46 3163.68 2115.46 3153.69 2115.46 3133.69 2105.46 3123.69 2075.47 3123.69 M 2095.47 3123.69 2115.46 3103.7 M 2135.45 3103.7 2155.45 3103.7 2145.45 3103.7 2145.45 3163.68 2135.45 3153.69 M 2225.42 3103.7 2185.44 3103.7 2225.42 3143.69 2225.42 3153.69 2215.43 3163.68 2195.43 3163.68 2185.44 3153.69 M 2090.47 2860 2090.47 2919.98 2120.46 2919.98 2130.46 2909.98 2130.46 2889.99 2120.46 2879.99 2090.47 2879.99 M 2110.47 2879.99 2130.46 2860 M 2150.45 2860 2170.45 2860 2160.45 2860 2160.45 2919.98 2150.45 2909.98 M 2200.44 2860 2220.43 2860 2210.43 2860 2210.43 2919.98 2200.44 2909.98 M 1820 3268.76 1820 3218.78 1830 3208.78 1849.99 3208.78 1859.99 3218.78 1859.99 3268.76 M 1909.97 3208.78 1909.97 3268.76 1879.98 3238.77 1919.97 3238.77 M 3135 1774.98 3135 1725 3145 1715 3164.99 1715 3174.99 1725 3174.99 1774.98 M 3234.97 1715 3194.98 1715 3234.97 1754.99 3234.97 1764.98 3224.97 1774.98 3204.98 1774.98 3194.98 1764.98 M 3395 1830 3395 1889.98 3424.99 1889.98 3434.99 1879.98 3434.99 1859.99 3424.99 1849.99 3395 1849.99 M 3414.99 1849.99 3434.99 1830 M 3454.98 1830 3474.97 1830 3464.98 1830 3464.98 1889.98 3454.98 1879.98 M 3504.96 1879.98 3514.96 1889.98 3534.96 1889.98 3544.95 1879.98 3544.95 1840 3534.96 1830 3514.96 1830 3504.96 1840 3504.96 1879.98 M 1935 2366.53 1935 2426.52 1964.99 2426.52 1974.99 2416.52 1974.99 2396.53 1964.99 2386.53 1935 2386.53 M 1954.99 2386.53 1974.99 2366.53 M 1994.98 2376.53 2004.98 2366.53 2024.97 2366.53 2034.97 2376.53 2034.97 2416.52 2024.97 2426.52 2004.98 2426.52 1994.98 2416.52 1994.98 2406.52 2004.98 2396.53 2034.97 2396.53 M 1395 2950 1395 3009.98 1424.99 3009.98 1434.99 2999.98 1434.99 2979.99 1424.99 2969.99 1395 2969.99 M 1414.99 2969.99 1434.99 2950 M 1454.98 2999.98 1464.98 3009.98 1484.97 3009.98 1494.97 2999.98 1494.97 2989.99 1484.97 2979.99 1494.97 2969.99 1494.97 2960 1484.97 2950 1464.98 2950 1454.98 2960 1454.98 2969.99 1464.98 2979.99 1454.98 2989.99 1454.98 2999.98 M 1464.98 2979.99 1484.97 2979.99 M 1395 3050 1395 3109.98 1424.99 3109.98 1434.99 3099.98 1434.99 3079.99 1424.99 3069.99 1395 3069.99 M 1414.99 3069.99 1434.99 3050 M 1454.98 3109.98 1494.97 3109.98 1494.97 3099.98 1454.98 3060 1454.98 3050 M 2049.17 2108.94 2049.17 2168.92 2079.16 2168.92 2089.16 2158.92 2089.16 2138.93 2079.16 2128.93 2049.17 2128.93 M 2069.17 2128.93 2089.16 2108.94 M 2149.14 2168.92 2129.15 2158.92 2109.15 2138.93 2109.15 2118.93 2119.15 2108.94 2139.14 2108.94 2149.14 2118.93 2149.14 2128.93 2139.14 2138.93 2109.15 2138.93 M 1395 3165 1395 3224.98 1424.99 3224.98 1434.99 3214.98 1434.99 3194.99 1424.99 3184.99 1395 3184.99 M 1414.99 3184.99 1434.99 3165 M 1494.97 3224.98 1454.98 3224.98 1454.98 3194.99 1474.97 3204.99 1484.97 3204.99 1494.97 3194.99 1494.97 3175 1484.97 3165 1464.98 3165 1454.98 3175 M 2990.18 1624.51 2980.19 1634.51 2960.19 1634.51 2950.2 1624.51 2950.2 1584.52 2960.19 1574.53 2980.19 1574.53 2990.18 1584.52 M 3010.18 1624.51 3020.17 1634.51 3040.17 1634.51 3050.16 1624.51 3050.16 1614.51 3040.17 1604.52 3050.16 1594.52 3050.16 1584.52 3040.17 1574.53 3020.17 1574.53 3010.18 1584.52 3010.18 1594.52 3020.17 1604.52 3010.18 1614.51 3010.18 1624.51 M 3020.17 1604.52 3040.17 1604.52 M 3049.99 2144.98 3039.99 2154.98 3020 2154.98 3010 2144.98 3010 2105 3020 2095 3039.99 2095 3049.99 2105 M 3069.98 2154.98 3109.97 2154.98 3109.97 2144.98 3069.98 2105 3069.98 2095 M 1949.99 2159.98 1939.99 2169.98 1920 2169.98 1910 2159.98 1910 2120 1920 2110 1939.99 2110 1949.99 2120 M 2009.97 2169.98 1989.97 2159.98 1969.98 2139.99 1969.98 2120 1979.98 2110 1999.97 2110 2009.97 2120 2009.97 2129.99 1999.97 2139.99 1969.98 2139.99 M 2655 1880 2655 1939.98 2684.99 1939.98 2694.99 1929.98 2694.99 1909.99 2684.99 1899.99 2655 1899.99 M 2674.99 1899.99 2694.99 1880 M 2744.97 1880 2744.97 1939.98 2714.98 1909.99 2754.97 1909.99 M 2490 1875 2490 1934.98 2519.99 1934.98 2529.99 1924.98 2529.99 1904.99 2519.99 1894.99 2490 1894.99 M 2509.99 1894.99 2529.99 1875 M 2549.98 1924.98 2559.98 1934.98 2579.97 1934.98 2589.97 1924.98 2589.97 1914.99 2579.97 1904.99 2569.97 1904.99 2579.97 1904.99 2589.97 1894.99 2589.97 1885 2579.97 1875 2559.98 1875 2549.98 1885 M 2671.22 1100 2671.22 1159.98 2701.21 1159.98 2711.21 1149.98 2711.21 1129.99 2701.21 1119.99 2671.22 1119.99 M 2761.19 1100 2761.19 1159.98 2731.2 1129.99 2771.19 1129.99 M 1570 1814.98 1570 1765 1580 1755 1599.99 1755 1609.99 1765 1609.99 1814.98 M 1629.98 1804.98 1639.98 1814.98 1659.97 1814.98 1669.97 1804.98 1669.97 1794.99 1659.97 1784.99 1649.97 1784.99 1659.97 1784.99 1669.97 1774.99 1669.97 1765 1659.97 1755 1639.98 1755 1629.98 1765 M 1500 1395 1500 1454.98 1529.99 1454.98 1539.99 1444.98 1539.99 1424.99 1529.99 1414.99 1500 1414.99 M 1519.99 1414.99 1539.99 1395 M 1559.98 1395 1579.97 1395 1569.98 1395 1569.98 1454.98 1559.98 1444.98 M 1135 1800 1135 1859.98 1164.99 1859.98 1174.99 1849.98 1174.99 1829.99 1164.99 1819.99 1135 1819.99 M 1194.98 1849.98 1204.98 1859.98 1224.97 1859.98 1234.97 1849.98 1234.97 1839.99 1224.97 1829.99 1214.97 1829.99 1224.97 1829.99 1234.97 1819.99 1234.97 1810 1224.97 1800 1204.98 1800 1194.98 1810 M 3760 3675 3760 3734.98 3789.99 3734.98 3799.99 3724.98 3799.99 3704.99 3789.99 3694.99 3760 3694.99 M 3859.97 3675 3819.98 3675 3859.97 3714.99 3859.97 3724.98 3849.97 3734.98 3829.98 3734.98 3819.98 3724.98 M 3680 3780 3680 3839.98 3709.99 3839.98 3719.99 3829.98 3719.99 3809.99 3709.99 3799.99 3680 3799.99 M 3739.98 3780 3759.97 3780 3749.98 3780 3749.98 3839.98 3739.98 3829.98 M 1974.99 1804.98 1964.99 1814.98 1945 1814.98 1935 1804.98 1935 1765 1945 1755 1964.99 1755 1974.99 1765 M 2034.97 1814.98 1994.98 1814.98 1994.98 1784.99 2014.97 1794.99 2024.97 1794.99 2034.97 1784.99 2034.97 1765 2024.97 1755 2004.98 1755 1994.98 1765 M 1819.99 1799.98 1809.99 1809.98 1790 1809.98 1780 1799.98 1780 1760 1790 1750 1809.99 1750 1819.99 1760 M 1869.97 1750 1869.97 1809.98 1839.98 1779.99 1879.97 1779.99 M 2365.18 2185.41 2355.19 2195.41 2335.19 2195.41 2325.2 2185.41 2325.2 2145.42 2335.19 2135.43 2355.19 2135.43 2365.18 2145.42 M 2385.18 2185.41 2395.17 2195.41 2415.17 2195.41 2425.16 2185.41 2425.16 2175.41 2415.17 2165.42 2405.17 2165.42 2415.17 2165.42 2425.16 2155.42 2425.16 2145.42 2415.17 2135.43 2395.17 2135.43 2385.18 2145.42 M 2557.96 2983.48 2547.96 2993.48 2527.97 2993.48 2517.97 2983.48 2517.97 2943.5 2527.97 2933.5 2547.96 2933.5 2557.96 2943.5 M 2617.94 2933.5 2577.95 2933.5 2617.94 2973.49 2617.94 2983.48 2607.94 2993.48 2587.95 2993.48 2577.95 2983.48 M 1374.99 1579.98 1364.99 1589.98 1345 1589.98 1335 1579.98 1335 1540 1345 1530 1364.99 1530 1374.99 1540 M 1394.98 1530 1414.97 1530 1404.98 1530 1404.98 1589.98 1394.98 1579.98 M 2333.09 2834.98 2333.09 2785 2343.08 2775 2363.08 2775 2373.07 2785 2373.07 2834.98 M 2393.07 2775 2413.06 2775 2403.06 2775 2403.06 2834.98 2393.07 2824.98 M 3940 1005 3940 3940 M 3930 995 3940 1005 M 1010 995 3930 995 M 1000 1005 1010 995 M 1000 1005 1000 3945 1005 3950 3930 3950 3940 3940" fill="none" stroke-width="10"/><path d="M 1853 3158 1856.52 3149.51 1865 3146 1873.48 3149.51 1877 3158 M 1786 2962 1786 3158 1853 3158 1877 3158 1944 3158 M 1944 2962 1944 3158 M 1786 2962 1944 2962 M 1944 3145 1987 3145 M 1987 3125 1987 3145 M 1944 3125 1987 3125 M 1944 3125 1944 3145 M 1944 3095 1987 3095 M 1987 3075 1987 3095 M 1944 3075 1987 3075 M 1944 3075 1944 3095 M 1944 3045 1987 3045 M 1987 3025 1987 3045 M 1944 3025 1987 3025 M 1944 3025 1944 3045 M 1944 2995 1987 2995 M 1987 2975 1987 2995 M 1944 2975 1987 2975 M 1944 2975 1944 2995 M 1743 2975 1786 2975 M 1743 2975 1743 2995 1786 2995 M 1786 2975 1786 2995 M 1743 3025 1786 3025 M 1743 3025 1743 3045 1786 3045 M 1786 3025 1786 3045 M 1743 3075 1786 3075 M 1743 3075 1743 3095 1786 3095 M 1786 3075 1786 3095 M 1743 3125 1786 3125 M 1743 3125 1743 3145 1786 3145 M 1786 3125 1786 3145" fill="none" stroke-width="0"/></g></svg>